<?xml version="1.0" encoding="utf-8"?>
<!-- Generator: Adobe Illustrator 19.0.0, SVG Export Plug-In . SVG Version: 6.00 Build 0)  -->
<svg version="1.1" id="Layer_1" xmlns="http://www.w3.org/2000/svg" xmlns:xlink="http://www.w3.org/1999/xlink" x="0px" y="0px"
	 viewBox="1834 -708 4628 1977" style="enable-background:new 1834 -708 4628 1977;" xml:space="preserve">
<style type="text/css">
	.st0{fill:#8E8E8E;stroke:#000000;stroke-miterlimit:10;}
	.st1{fill:#FFFFFF;stroke:#000000;stroke-miterlimit:10;}
	.st2{fill:#AFAFAF;stroke:#000000;stroke-miterlimit:10;}
	.st3{fill:#B3B3B3;stroke:#000000;stroke-miterlimit:10;}
	.st4{fill:none;stroke:#000000;stroke-miterlimit:10;}
	.st5{fill:#FFFFFF;}
	.st6{font-family:'MyriadPro-Regular';}
	.st7{font-size:50px;}
	.st8{font-size:38.9606px;}
</style>
<g id="Base">
	<polygon class="st0" points="2273.6,-280.6 2280.8,-280.6 2280.8,-311.2 1850.7,-311.2 1850.7,-134.4 2272.5,-134.4 2272.5,1114.3 
		5835,1114.3 5835,1105.3 5533,1104.7 5536.7,879.7 3013.3,879.7 3013.3,919.1 2958,919.1 2958,927.5 3013.5,927.5 3013.5,1105 
		2627,1105 2627,927.8 2879,927.8 2879,919.7 2626.3,919.7 2626.3,914.3 2618.2,914.3 2618.2,1106 2280.8,1106 2280.8,-134.5 
		2679.5,-134.5 2679.5,645 2383.3,645 2383.3,653.3 2435.3,653.3 2435.3,744 2443.6,744 2443.6,653.2 2679.7,653.2 2679.7,826 
		2443.7,826 2443.7,821.8 2436.3,821.8 2436.3,834.5 2687.3,834.5 2687.3,-143 2280.5,-143 2280.5,-201.5 2272.5,-201.5 
		2272.5,-143 1857.5,-143 1857.5,-304 2272.5,-304 	"/>
	<polygon class="st1" points="3021.3,888.8 3021.3,1105.5 5524.9,1105.5 5524.9,1083.3 5512.1,1083.3 5512.1,1075.5 5524.9,1075.5 
		5524.9,1047.9 5512.1,1047.9 5512.1,1039.3 5524.9,1039.3 5524.9,1008.5 5511.8,1008.5 5511.8,1000.7 5524.9,1000.7 5524.9,964.7 
		5510.7,964.7 5510.7,957 5524.9,957 5524.9,927.3 5510.8,927.3 5510.8,919.3 5524.9,919.3 5524.9,888.8 	"/>
	<rect x="5504.4" y="921.4" class="st0" width="6.4" height="4.4"/>
	<rect x="5504.6" y="958.7" class="st0" width="6" height="4.2"/>
	
		<rect x="5504.3" y="1001.5" transform="matrix(-1 -8.363721e-003 8.363721e-003 -1 11007.6143 2053.0081)" class="st2" width="7.6" height="4"/>
	<rect x="5504.3" y="1039.5" class="st2" width="7.9" height="4.4"/>
	<rect x="5504.5" y="1077.6" class="st2" width="7.6" height="3.7"/>
	<rect x="3021.3" y="921.2" class="st2" width="8.5" height="4.3"/>
	<rect x="3021.3" y="958.5" class="st2" width="8.5" height="4.3"/>
	<rect x="3021.3" y="1000.1" class="st2" width="8.7" height="4.4"/>
	<rect x="3021.3" y="1037.4" class="st2" width="8.2" height="4.1"/>
	<rect x="3021.3" y="1077.3" class="st2" width="8.5" height="4.4"/>
	<rect x="5835" y="1108.1" class="st0" width="8.8" height="3.8"/>
	<polygon class="st0" points="6095.8,1105.7 6095.8,1113.7 6444.8,1113.7 6444.8,1053.5 6437,1053.5 6437,1105.8 	"/>
	<rect x="6086.5" y="1107.5" class="st0" width="9.3" height="4.3"/>
	<polygon class="st0" points="6083.7,484 6437,484 6433.3,2.8 6212,6.5 5917.8,-394.5 5650.8,-394.5 5650.8,-456.5 5540.5,-456.5 
		5540.5,-627 2572.6,-627 2572.6,-618.5 2603,-618.5 2603,-440.5 2749.5,-440.5 2749.5,-448.2 2611,-448.2 2611,-618.7 
		2909.7,-618.7 2909.7,-448.2 2828,-448.2 2828,-440.2 2910,-440.2 2910,-393 5540.3,-393 5540.3,-448.2 5643,-448.2 5643,-386 
		5913.1,-386 6201.5,7.3 5966.4,12.5 5966.4,37.5 5973.8,37.5 5973.8,19.6 6424.3,11 6426.8,248.3 5973.5,248.8 5973.5,112.8 
		5965,112.8 5965,484 6004.5,484 6004.5,475.3 5973.8,475.3 5973.8,257.8 6427,256.3 6428.3,475.3 6083.5,475.3 	"/>
	<rect x="6438.9" y="1045.4" class="st0" width="3.6" height="8.1"/>
	<rect x="6437" y="484" class="st0" width="7.5" height="60.4"/>
	<rect x="6438.5" y="544.4" class="st0" width="4.3" height="7.9"/>
	<polygon class="st1" points="2917.5,-401 2917.5,-425.6 2922.6,-425.6 2922.6,-433.5 2917.5,-433.5 2917.5,-465.5 2922,-465.5 
		2922,-473.5 2917.5,-473.5 2917.5,-504.9 2922.6,-504.9 2922.6,-512.2 2917.5,-512.2 2917.5,-544.4 2921.8,-544.4 2921.8,-551.9 
		2917.5,-551.9 2917.5,-583.9 2922.6,-583.9 2922.6,-591.4 2917.5,-591.4 2917.5,-618.6 5532.6,-618.6 5532.6,-591.2 5504.8,-591.2 
		5504.8,-583.1 5532.6,-583.1 5532.6,-551.7 5505.1,-551.7 5505.1,-543.7 5532.6,-543.7 5532.6,-512.4 5505,-512.4 5505,-504.5 
		5532.6,-504.5 5532.6,-473.4 5505.3,-473.4 5505.3,-465.5 5532.6,-465.5 5532.6,-433.4 5505.1,-433.4 5505.1,-425.2 5532.6,-425.2 
		5532.6,-401 	"/>
	<rect x="2922.6" y="-589.4" class="st3" width="7.9" height="4.1"/>
	<rect x="2921.8" y="-549.5" class="st3" width="8.4" height="4.3"/>
	<rect x="2922.6" y="-510.7" class="st3" width="8" height="4"/>
	<rect x="2922" y="-471.4" class="st3" width="8.8" height="3.9"/>
	<rect x="2922.6" y="-431.5" class="st3" width="8" height="3.8"/>
	<line class="st4" x1="2930.5" y1="-587.4" x2="5497" y2="-587"/>
	<line class="st4" x1="5497" y1="-547.7" x2="2930.2" y2="-547.7"/>
	<line class="st4" x1="2930.8" y1="-508.7" x2="5497" y2="-508.7"/>
	<line class="st4" x1="5497" y1="-469" x2="2930.6" y2="-469"/>
	<line class="st4" x1="2930.8" y1="-429.6" x2="5497" y2="-429.6"/>
	<rect x="5497" y="-589.7" class="st3" width="7.8" height="4.2"/>
	<rect x="5497" y="-549.7" class="st3" width="8.1" height="4.4"/>
	<rect x="5497" y="-510.7" class="st3" width="8" height="4.3"/>
	<rect x="5497" y="-471.2" class="st3" width="8.3" height="4.3"/>
	<rect x="5497" y="-431.5" class="st3" width="8.1" height="4"/>
	<rect x="2564.3" y="-624.6" class="st0" width="8.3" height="4.1"/>
	<rect x="1860" y="-626.5" class="st0" width="476.2" height="8"/>
	<rect x="2336.2" y="-624.6" class="st0" width="8.1" height="4.1"/>
	<g id="Stairs">
		<rect x="1937.7" y="-461.7" class="st4" width="312" height="154"/>
		<polyline class="st4" points="2228.5,-461.7 2228.5,-307.7 2208,-307.7 2208,-461.7 2186.5,-461.7 2186.5,-307.7 2167.5,-307.7 
			2167.5,-461.7 2146,-461.7 2146,-307.7 2124.5,-307.7 2124.5,-461.7 2104.5,-461.7 2104.5,-307.7 2084,-307.7 2084,-461.7 
			2063,-461.7 2063,-307.7 2042,-307.7 2042,-461.7 2021,-461.7 2021,-307.7 2000.8,-307.7 2000.8,-461.7 1979.8,-461.7 
			1979.8,-307.7 1958.5,-307.7 1958.5,-461.7 		"/>
		<rect x="1937.7" y="-626.5" class="st4" width="312" height="154"/>
		<polyline class="st4" points="2228.5,-626.5 2228.5,-472.5 2208,-472.5 2208,-626.5 2186.5,-626.5 2186.5,-472.5 2167.5,-472.5 
			2167.5,-626.5 2146,-626.5 2146,-472.5 2124.5,-472.5 2124.5,-626.5 2104.5,-626.5 2104.5,-472.5 2084,-472.5 2084,-626.5 
			2063,-626.5 2063,-472.5 2042,-472.5 2042,-626.5 2021,-626.5 2021,-472.5 2000.8,-472.5 2000.8,-626.5 1979.8,-626.5 
			1979.8,-472.5 1958.5,-472.5 1958.5,-626.5 		"/>
		<rect x="1927.3" y="-477" class="st4" width="333.3" height="20"/>
		<rect x="1922" y="-481.7" class="st4" width="342.7" height="28.7"/>
		<rect x="6149.3" y="804.3" class="st4" width="234.7" height="249.2"/>
		<polyline class="st4" points="6362.8,804.3 6362.8,1053.5 6341.5,1053.5 6341.5,804.3 6320.3,804.3 6320.3,1053.5 6299.3,1053.5 
			6299.3,804.3 6277.8,804.3 6277.8,1053.5 6256,1053.5 6256,804.3 6234.8,804.3 6234.8,1053.5 6214.3,1053.5 6214.3,804.3 
			6192.3,804.3 6192.3,1053.5 6171.5,1053.5 6171.5,804.3 		"/>
		<rect x="6149.3" y="543.7" class="st4" width="234.7" height="249.2"/>
		<polyline class="st4" points="6362.8,543.7 6362.8,792.8 6341.5,792.8 6341.5,543.7 6320.3,543.7 6320.3,792.8 6299.3,792.8 
			6299.3,543.7 6277.8,543.7 6277.8,792.8 6256,792.8 6256,543.7 6234.8,543.7 6234.8,792.8 6214.3,792.8 6214.3,543.7 
			6192.3,543.7 6192.3,792.8 6171.5,792.8 6171.5,543.7 		"/>
		<rect x="6138" y="789.5" class="st4" width="257" height="18"/>
		<rect x="6134.5" y="784" class="st4" width="265.5" height="28.5"/>
		<rect x="2653.3" y="838.5" class="st4" width="50.5" height="78.8"/>
		<path class="st4" d="M2630.7,843.5h80.2l3.7-5c0,0,6.3-0.8,2.3,5l-6.2,4.7h-81.3l-6.2-7.2C2623.2,841,2625.5,834.7,2630.7,843.5z"
			/>
		<path class="st4" d="M2709.3,914.5H2633l-9.2,5.5c0,0-1.7,6.3,9.5,1.2h76.8l3.7,4.3C2713.8,925.5,2723.8,923.3,2709.3,914.5z"/>
		<rect x="2595.3" y="570.7" class="st4" width="79.3" height="73"/>
		<polyline class="st4" points="2647.3,570.7 2647.3,643.7 2621.8,643.7 2621.8,570.7 		"/>
		<path class="st4" d="M2679.5,575.3h-106.2c0,0-2.5-1-2.6-3.5c0,0-11.1-2.4,1.5,8.4h107.4v-4.9H2679.5z"/>
		<path class="st4" d="M2679.5,634.4h-104.4c0,0-7.5,3.5-6.6,9.3c0,0,3.6,1,6.6-4.6h104.4V634.4z"/>
		<rect x="2595.2" y="-133" class="st4" width="79.3" height="73"/>
		<polyline class="st4" points="2647.2,-133 2647.2,-60 2621.6,-60 2621.6,-133 		"/>
		<path class="st4" d="M2679.3-128.4h-106.2c0,0-2.5-1-2.6-3.5c0,0-11.1-2.4,1.5,8.4h107.4L2679.3-128.4L2679.3-128.4z"/>
		<path class="st4" d="M2679.3-69.2H2575c0,0-7.5,3.5-6.6,9.3c0,0,3.6,1,6.6-4.6h104.4L2679.3-69.2L2679.3-69.2z"/>
		<polygon class="st4" points="2667.8,838.5 2667.8,917.3 2689.3,917.3 2689.3,838.5 		"/>
	</g>
	<path class="st4" d="M2617.3,843.3h-69.7c0,0,5.3,65.7,69.7,67"/>
	<rect x="3029.8" y="922.4" class="st4" width="2474.6" height="1.6"/>
	<rect x="3030" y="960.8" class="st4" width="2474.6" height="1.6"/>
	<rect x="3030" y="1001.5" class="st4" width="2474.6" height="1.6"/>
	<rect x="3029.7" y="1039.6" class="st4" width="2474.6" height="1.6"/>
	<rect x="3030" y="1078.7" class="st4" width="2474.6" height="1.6"/>
	<rect x="5843.8" y="1109.4" class="st4" width="242.7" height="0.6"/>
	<rect x="6439.9" y="552.3" class="st4" width="1.6" height="493.1"/>
	<rect x="2344.3" y="-623.5" class="st0" width="220" height="1"/>
</g>
<g id="Rooms">
	<a id="SportsOffice_1_" xlink:href="#mapArea" >
		<g>
			<rect x="2628.5" y="929" class="st5" width="383.9" height="174.9"/>
			<path class="st4" d="M2952.7,929v65.5c0,0-69-3.8-69.3-65.5"/>
		</g>
	</a>
	<a id="BesideStair" xlink:href="#mapArea" >
		<g>
			<rect x="1858.9" y="-302.3" class="st5" width="412.1" height="157.7"/>
			<path class="st4" d="M2271-277h-114.3c0,0,12.3,74,114.3,72.5"/>
		</g>
	</a>
	<a id="SportsOffice" xlink:href="#mapArea" >
		<g>
			<rect x="2612.3" y="-616.3" class="st5" width="296" height="167"/>
			<path class="st4" d="M2826-449.4v-71.3c0,0-71,21.6-74.3,71.3"/>
		</g>
	</a>
	<a id="FemaleCR4b" xlink:href="#mapArea" >
		<g>
			<rect x="5974.6" y="258.6" class="st5" width="452" height="215.2"/>
			<path class="st4" d="M6006.7,473.8v-69.2c0,0,70.7,12.3,74.3,69.2"/>
		</g>
	</a>
	<a id="MaleCR4b" xlink:href="#mapArea" >
		<g>
			<polygon class="st5" points="5975.7,21 6422.3,13.3 6423.7,245.7 5975.7,247 			"/>
			<path class="st4" d="M5975.7,109h85.7c0,0-17.3-65.3-85.7-66"/>
		</g>
	</a>
	<a id="Stage" xlink:href="#mapArea" >
		<g>
			<rect x="2444.7" y="654.8" class="st5" width="233.8" height="169.7"/>
			<path class="st4" d="M2444.7,816h93.7c0,0-10-67.7-93.7-70"/>
		</g>
	</a>
</g>
<g id="Doors">
	<line id="SportsOffice_2_" class="st4" x1="2952.7" y1="971.2" x2="2918" y2="929"/>
	<line id="Stage_1_" class="st4" x1="2495.5" y1="758.4" x2="2444.7" y2="781"/>
	<line id="BesideStair_1_" class="st4" x1="2215.7" y1="-277" x2="2271" y2="-240.7"/>
	<line id="SportsOffice_3_" class="st4" x1="2826" y1="-479.4" x2="2788.8" y2="-449.4"/>
	<line id="MaleCR4b_1_" class="st4" x1="6020.7" y1="55.2" x2="5975.7" y2="76"/>
	<line id="FemaleCR4b_1_" class="st4" x1="6006.7" y1="437.7" x2="6043.8" y2="473.8"/>
</g>
<g id="Paths">
	<line class="st4" x1="2249.7" y1="-557.5" x2="2446.5" y2="-557.5"/>
	<line class="st4" x1="2446.5" y1="-557.5" x2="2446.5" y2="-240.7"/>
	<line class="st4" x1="2446.5" y1="-240.7" x2="2271" y2="-240.7"/>
	<line class="st4" x1="2446.5" y1="-240.7" x2="2788.8" y2="-240.7"/>
	<line class="st4" x1="2788.8" y1="-240.7" x2="2788.8" y2="-449.4"/>
	<line class="st4" x1="2788.8" y1="-240.7" x2="2788.8" y2="-96.5"/>
	<line class="st4" x1="2788.8" y1="-96.5" x2="2326.5" y2="-96.5"/>
	<line class="st4" x1="2326.5" y1="-96.5" x2="2326.5" y2="605"/>
	<line class="st4" x1="2326.5" y1="605" x2="2788.8" y2="605"/>
	<line class="st4" x1="2326.5" y1="605" x2="2326.5" y2="781"/>
	<line class="st4" x1="2326.5" y1="781" x2="2444.7" y2="781"/>
	<line class="st4" x1="2788.8" y1="-96.5" x2="2788.8" y2="605"/>
	<line class="st4" x1="2326.5" y1="781" x2="2326.5" y2="876.8"/>
	<line class="st4" x1="2326.5" y1="876.8" x2="2788.8" y2="876.8"/>
	<line class="st4" x1="2788.8" y1="605" x2="2788.8" y2="830"/>
	<line class="st4" x1="2788.8" y1="830" x2="2918" y2="830"/>
	<line class="st4" x1="2918" y1="830" x2="2918" y2="929"/>
	<line class="st4" x1="2788.8" y1="876.8" x2="2788.8" y2="830"/>
	<line class="st4" x1="2918" y1="830" x2="5844" y2="830"/>
	<line class="st4" x1="6043.8" y1="830" x2="6043.8" y2="473.8"/>
	<line class="st4" x1="6043.8" y1="830" x2="6043.8" y2="928.9"/>
	<line class="st4" x1="6043.8" y1="928.9" x2="6149.3" y2="928.9"/>
	<line class="st4" x1="5975.7" y1="76" x2="5844" y2="76"/>
	<line class="st4" x1="5844" y1="76" x2="5844" y2="830"/>
	<line class="st4" x1="5844" y1="830" x2="6043.8" y2="830"/>
	<line class="st4" x1="2806" y1="-240.7" x2="5844" y2="-240.7"/>
	<line class="st4" x1="5844" y1="-240.7" x2="5844" y2="76"/>
</g>
<g id="Portals">
	<line id="Stair.1.floor3" class="st4" x1="2228.5" y1="-572.3" x2="2249.7" y2="-557.5"/>
	<line id="Stair.2.floor3" class="st4" x1="6171.5" y1="910.3" x2="6149.3" y2="928.9"/>
</g>
<g id="RoomNames">
	<text transform="matrix(1 0 0 1 2664.6667 1041.5316)" class="st6 st7">SPORTS OFFICE</text>
	<text transform="matrix(1 0 0 1 2636.0007 -545.2083)" class="st6 st8">SPORTS OFFICE</text>
	<text transform="matrix(1 0 0 1 6127.6665 130.1666)" class="st6 st8">MALE CR</text>
	<text transform="matrix(1 0 0 1 6113.7505 386.5419)" class="st6 st8">FEMALE CR</text>
</g>
</svg>
