<?xml version="1.0" encoding="utf-8"?>
<!-- Generator: Adobe Illustrator 22.0.0, SVG Export Plug-In . SVG Version: 6.00 Build 0)  -->
<svg version="1.1" id="Layer_1" xmlns="http://www.w3.org/2000/svg" xmlns:xlink="http://www.w3.org/1999/xlink" x="0px" y="0px"
	 viewBox="0 0 4628 1977" enable-background="new 0 0 4628 1977" xml:space="preserve" height="100%" width="100%">
<g id="Base">
	<polygon points="205,1867.8 205,1873.7 39.7,1873.7 39.7,1025.5 45.8,1025.5 45.8,1057 354.2,1057 354.2,1050 359.7,1050 
		359.7,1062.5 45.8,1062.5 45.8,1318.2 118.7,1318.2 118.7,1219.7 124.7,1219.7 124.7,1318.3 563,1318.3 563,1292.7 587.5,1292.7 
		587.5,1297.8 568.7,1297.8 568.7,1868.2 723,1868.2 723,1873.7 336.8,1873.7 336.8,1868 563,1868 563,1323.7 46,1323.7 46,1867.7 	
		"/>
	<rect x="354" y="829.8" width="5.3" height="166.5"/>
	<polygon points="40.3,800.6 45.5,800.6 45.5,774.8 354,774.8 354,777.1 359.3,777.1 359.3,764.1 354,764.1 354,769.4 45.6,769.4 
		45.6,740.8 40.3,740.8 	"/>
	<rect x="354.5" y="560.5" width="4.8" height="150"/>
	<polygon points="359.3,507.1 354.5,507.1 354.5,486.5 45.4,486.5 45.4,515 40.1,515 40.1,115.4 388.5,115.4 388.5,120.8 
		280.6,120.8 280.6,130.3 276.3,130.3 276.3,120.8 45.6,120.8 45.6,246.5 275.3,246.5 275.3,204.5 281.3,204.5 281.3,298.3 
		275.6,298.3 275.6,251.8 45.5,251.8 45.5,382.5 275.8,382.5 275.8,372.5 281.1,372.5 281.1,405.3 275.5,405.3 275.5,387.6 
		45.1,387.6 45.1,481.6 275.1,481.6 275.1,458 281.1,458 281.1,481.3 359.4,481.3 	"/>
	<rect x="488" y="115.4" width="761" height="5.6"/>
	<polygon points="854.2,1868.3 854.2,1873.7 882.6,1873.7 882.6,1842.1 877.5,1842.1 877.5,1868.3 	"/>
	<polygon points="877.1,1298.3 877.1,1323.7 882.8,1323.7 882.8,1248.3 877.1,1248.3 877.1,1292.4 864.8,1292.4 864.8,1298.4 	"/>
	<polygon points="882.8,1103 877.7,1103 877.7,1062.2 563,1062.2 563,855.5 569,855.5 569,1056.9 877.5,1056.9 877.5,1033.5 
		882.8,1033.5 	"/>
	<polygon points="877.5,800.5 882.8,800.5 882.8,749 877.5,749 877.5,769.2 568.3,769.2 568.3,571.8 563,571.8 563,791.5 
		568.5,791.5 568.5,774.8 877.3,774.8 	"/>
	<polygon points="877.2,515 882.8,515 882.8,481.2 568.8,481.2 568.8,469 563,469 563,507.2 569,507.2 569,487.2 876.8,487.2 	"/>
	<polygon points="563.4,400.3 568.5,400.3 568.5,387.4 1211,387.4 1211,719 1218,719 1218,383 563.4,383 	"/>
	<rect x="119" y="1062.5" width="5.3" height="103.8"/>
	<rect x="878.5" y="1329.4" width="3" height="512.7"/>
	<rect x="878.8" y="1323.7" width="2.3" height="5.7"/>
	<rect x="587.5" y="1293.7" width="114.1" height="3"/>
	<rect x="769.9" y="1293.4" width="94.9" height="3.6"/>
	<circle cx="701.6" cy="1294.4" r="2.4"/>
	<circle cx="768.8" cy="1294.4" r="2.9"/>
	<rect x="878.6" y="1028.9" width="1.6" height="4.6"/>
	<rect x="878.5" y="800.5" width="1.9" height="228.4"/>
	<rect x="878.6" y="512" width="2.3" height="242"/>
	<polygon points="1452,115.4 1452,121.3 1488.5,121.3 1488.5,629 1509.8,629 1509.8,622.8 1494,622.8 1494,121 1512.7,121 
		1512.7,115.4 	"/>
	<rect x="1596.3" y="622.8" width="659" height="6.4"/>
	<rect x="2460.8" y="622.3" width="673.3" height="7.3"/>
	<polygon points="3241,622.7 3219.8,622.7 3219.8,629.3 3690.3,629.3 3690.3,431.5 3681.2,431.5 3681.2,438.8 3684.5,438.8 
		3684.5,622.8 3247.8,622.8 3247.8,374.2 3583,374.2 3582.8,438 3617.2,438 3617.2,432.2 3589.2,432.2 3589.2,302.2 3610.5,302.2 
		3610.5,295.8 3583.7,295.8 3583.7,368.3 3247.8,368.3 3247.8,120.8 3684,120.8 3684,296.5 3675,296.5 3675,303 3690.3,303 
		3690.3,120.8 3727.8,120.8 3727.8,114.7 3209.5,114.7 3209.5,121.3 3241.8,121.3 	"/>
	<polygon points="3814.5,114.7 3814.5,121 3842.7,121 3842.7,351.5 3849,351.5 3849,121 3974.8,121 3974.8,316.2 3941.3,316.2 
		3941.3,323.2 3981.3,323.2 3981.3,114.7 	"/>
	<rect x="3849" y="317.1" width="37.4" height="6.5"/>
	<polygon points="3842.7,407 3849.2,407 3849.2,623 4128,623 4128,629.3 3842.7,629.3 	"/>
	<polygon points="4128.1,316.4 4128.1,323.5 4129.9,323.5 4129.9,621.8 4136.6,621.8 4136.6,316.4 	"/>
	<rect x="3981.3" y="316.6" width="146.7" height="6.4"/>
	<rect x="4128" y="623.8" width="6.6" height="4.3"/>
	<path d="M4134.6,625.9"/>
	<rect x="4134.6" y="623.6" width="175.9" height="4.5"/>
	<rect x="4303.6" y="628.1" width="5.7" height="271.3"/>
	<polygon points="4303.4,906.1 4309.5,906.1 4309.5,1003.5 4588.3,1003.5 4588.3,1058 4582.5,1058 4582.5,1009.5 4303.4,1009.5 	"/>
	<rect x="4304.8" y="899.4" width="3.2" height="6.7"/>
	<polygon points="4581.8,1469.8 4588.1,1469.8 4588.1,1517.3 4307.8,1517.3 4307.8,1511.3 4582,1511.3 	"/>
	<rect x="4583.8" y="1091.5" width="2.6" height="378.3"/>
	<rect x="4583.6" y="1058" width="3.2" height="6.1"/>
	<polygon points="4168.8,1511.2 4168.8,1517.8 4092,1517.8 4092,1511.2 4129.8,1511.2 4129.8,1498 4135.8,1498 4135.8,1511.8 	"/>
	<polyline fill="none" stroke="#000000" stroke-width="5" stroke-miterlimit="10" points="4133,1358 4133,1006.5 4036.5,1006.5 	"/>
	<polyline fill="none" stroke="#000000" stroke-width="5" stroke-miterlimit="10" points="3648.8,1217 3599.3,1217 3623.8,1217 
		3623.8,1005.1 3956,1006.5 3846.3,1006.5 3846.3,1228 3846.3,1216.3 3695,1216.3 	"/>
	<polyline fill="none" stroke="#000000" stroke-width="5" stroke-miterlimit="10" points="3540,1217 3245,1217 3245,1006.5 
		3245,1514.3 3146,1514.3 3270,1514.3 	"/>
	<polyline fill="none" stroke="#000000" stroke-width="5" stroke-miterlimit="10" points="2373.5,1000.7 2357.2,1000.7 
		2357.2,1514.3 2446.5,1514.3 2257.8,1514.3 	"/>
	<polyline fill="none" stroke="#000000" stroke-width="5" stroke-miterlimit="10" points="1214.2,1112.1 1214.2,1514.5 
		1559.3,1514.5 1491.3,1514.5 1491.3,1006.5 1214.2,1006.5 1214.2,1034.5 1214.2,918.8 	"/>
	<polyline fill="none" stroke="#000000" stroke-miterlimit="10" points="1559.3,1513 1906.7,1513 1909.2,1513 1909.2,1516.8 
		2257.8,1516.8 	"/>
	<polyline fill="none" stroke="#000000" stroke-miterlimit="10" points="1512.7,116.2 1914,116.2 1916.8,116.2 1916.8,119.5 
		2320.8,119.5 	"/>
	<polyline fill="none" stroke="#000000" stroke-miterlimit="10" points="2376.9,116.2 2793.2,116.2 2793.2,119.8 3209.5,119.8 	"/>
	<polyline fill="none" stroke="#000000" stroke-width="5" stroke-miterlimit="10" points="3846.3,1293.7 3846.3,1514.3 
		3902.3,1514.3 3778.3,1514.3 	"/>
	<polyline fill="none" stroke="#000000" stroke-miterlimit="10" points="3778.3,1516 3523.5,1516 3523.5,1512.5 3269.7,1512.5 	"/>
	<polyline fill="none" stroke="#000000" stroke-miterlimit="10" points="3146,1516 2796.3,1516 2796.3,1513 2446.5,1513 	"/>
	<polyline fill="none" stroke="#000000" stroke-miterlimit="10" points="3902.3,1512.7 3997,1512.7 3997,1516.5 4092,1516.5 	"/>
	<polyline fill="none" stroke="#000000" stroke-miterlimit="10" points="41,1025.5 41,915 44,915 44,800.6 	"/>
	<polyline fill="none" stroke="#000000" stroke-miterlimit="10" points="41,740.8 41,629.1 43.9,629.1 43.9,515 	"/>
	<g id="Stairs">
		<rect x="176.3" y="1194.3" fill="none" stroke="#000000" stroke-miterlimit="10" width="157.3" height="113"/>
		<polyline fill="none" stroke="#000000" stroke-miterlimit="10" points="318.7,1194.3 318.7,1307.3 304,1307.3 304,1194.3 
			290.3,1194.3 290.3,1307.3 275.3,1307.3 275.3,1194.3 262.3,1194.3 262.3,1307.3 248,1307.3 248,1194.3 232.7,1194.3 
			232.7,1307.3 218.7,1307.3 218.7,1194.3 204.7,1194.3 204.7,1307.3 189.7,1307.3 189.7,1194.3 		"/>
		<rect x="175.5" y="1074.3" fill="none" stroke="#000000" stroke-miterlimit="10" width="157.3" height="113"/>
		<polyline fill="none" stroke="#000000" stroke-miterlimit="10" points="317.8,1074.3 317.8,1187.3 303.2,1187.3 303.2,1074.3 
			289.5,1074.3 289.5,1187.3 274.5,1187.3 274.5,1074.3 261.5,1074.3 261.5,1187.3 247.2,1187.3 247.2,1074.3 231.8,1074.3 
			231.8,1187.3 217.8,1187.3 217.8,1074.3 203.8,1074.3 203.8,1187.3 188.8,1187.3 188.8,1074.3 		"/>
		<path fill="none" stroke="#000000" stroke-miterlimit="10" d="M160.8,1300.8l-3.2,4c0,0-1.8,5.7,4.2,0h197.5l2,2.5
			c0,0,7.8,2.3-1-6.5H160.8z"/>
		<rect x="168.8" y="1184" fill="none" stroke="#000000" stroke-miterlimit="10" width="172.3" height="13.3"/>
		<rect x="165.8" y="1180" fill="none" stroke="#000000" stroke-miterlimit="10" width="178" height="20.5"/>
		<path fill="none" stroke="#000000" stroke-miterlimit="10" d="M150,1076.5l-2.5-2.2c0,0-5,0.5,1.3,4.7h199.5l3-3.4
			c0,0-0.1-4.9-4.1,1L150,1076.5z"/>
		<rect x="593.9" y="134.7" fill="none" stroke="#000000" stroke-miterlimit="10" width="157.3" height="113"/>
		<polyline fill="none" stroke="#000000" stroke-miterlimit="10" points="608.9,247.7 608.9,134.7 623.5,134.7 623.5,247.7 
			637.2,247.7 637.2,134.7 652.2,134.7 652.2,247.7 665.2,247.7 665.2,134.7 679.5,134.7 679.5,247.7 694.9,247.7 694.9,134.7 
			708.9,134.7 708.9,247.7 722.9,247.7 722.9,134.7 737.9,134.7 737.9,247.7 		"/>
		<rect x="594.7" y="254.7" fill="none" stroke="#000000" stroke-miterlimit="10" width="157.3" height="113"/>
		<polyline fill="none" stroke="#000000" stroke-miterlimit="10" points="609.7,367.7 609.7,254.7 624.4,254.7 624.4,367.7 
			638,367.7 638,254.7 653,254.7 653,367.7 666,367.7 666,254.7 680.4,254.7 680.4,367.7 695.7,367.7 695.7,254.7 709.7,254.7 
			709.7,367.7 723.7,367.7 723.7,254.7 738.7,254.7 738.7,367.7 		"/>
		<path fill="none" stroke="#000000" stroke-miterlimit="10" d="M777.2,144.6l3.2-4c0,0,1.8-5.7-4.2,0H578.7l-2-2.5
			c0,0-7.8-2.3,1,6.5H777.2z"/>
		<rect x="586.5" y="244.7" fill="none" stroke="#000000" stroke-miterlimit="10" width="172.3" height="13.3"/>
		<rect x="583.8" y="241.5" fill="none" stroke="#000000" stroke-miterlimit="10" width="178" height="20.5"/>
		<path fill="none" stroke="#000000" stroke-miterlimit="10" d="M765,368.2l2.5,2.2c0,0,5-0.5-1.3-4.7H566.7l-3,3.4
			c0,0,0.1,4.9,4.1-1L765,368.2z"/>
		<rect x="944.5" y="252" fill="none" stroke="#000000" stroke-miterlimit="10" width="250" height="123"/>
		<polyline fill="none" stroke="#000000" stroke-miterlimit="10" points="1179,252 1179,375 1161.5,375 1161.5,252 1145,252 
			1145,375 1128,375 1128,252 1111.5,252 1111.5,375 1094.5,375 1094.5,252 1078,252 1078,375 1060.5,375 1060.5,252 1045,252 
			1045,375 1027,375 1027,252 1010.5,252 1010.5,375 994,375 994,252 977,252 977,375 961,375 961,252 		"/>
		<rect x="944.5" y="121" fill="none" stroke="#000000" stroke-miterlimit="10" width="250" height="123"/>
		<polyline fill="none" stroke="#000000" stroke-miterlimit="10" points="1179,121 1179,244 1161.5,244 1161.5,121 1145,121 
			1145,244 1128,244 1128,121 1111.5,121 1111.5,244 1094.5,244 1094.5,121 1078,121 1078,244 1060.5,244 1060.5,121 1045,121 
			1045,244 1027,244 1027,121 1010.5,121 1010.5,244 994,244 994,121 977,121 977,244 961,244 961,121 		"/>
		<path fill="none" stroke="#000000" stroke-miterlimit="10" d="M913,124.1l-3.4-3.1c0,0-8.4-1.6,1.7,6.5h301.1l4.9-4.5
			c0,0,2.1-7.8-6,1.2L913,124.1z"/>
		<path fill="none" stroke="#000000" stroke-miterlimit="10" d="M927.2,371.5l-3.5,3.5c0,0-6.3-1.7,1.8-6.7h301.7l4.7,4.2
			c0,0,1,6-5.5-0.8L927.2,371.5z"/>
		<rect x="935.3" y="239.8" fill="none" stroke="#000000" stroke-miterlimit="10" width="269.5" height="16.3"/>
		<rect x="931.5" y="235.5" fill="none" stroke="#000000" stroke-miterlimit="10" width="277" height="24.5"/>
		<rect x="4351" y="1267.7" fill="none" stroke="#000000" stroke-miterlimit="10" width="189.7" height="202.1"/>
		<polyline fill="none" stroke="#000000" stroke-miterlimit="10" points="4523,1267.7 4523,1469.8 4505.3,1469.8 4505.3,1267.7 
			4489,1267.7 4489,1469.8 4470.7,1469.8 4470.7,1267.7 4453.7,1267.7 4453.7,1469.8 4437,1469.8 4437,1267.7 4420,1267.7 
			4420,1469.8 4401.7,1469.8 4401.7,1267.7 4385.3,1267.7 4385.3,1469.8 4366.3,1469.8 4366.3,1267.7 		"/>
		<rect x="4351" y="1057.9" fill="none" stroke="#000000" stroke-miterlimit="10" width="189.7" height="202.1"/>
		<polyline fill="none" stroke="#000000" stroke-miterlimit="10" points="4523,1057.9 4523,1260 4505.3,1260 4505.3,1057.9 
			4489,1057.9 4489,1260 4470.7,1260 4470.7,1057.9 4453.7,1057.9 4453.7,1260 4437,1260 4437,1057.9 4420,1057.9 4420,1260 
			4401.7,1260 4401.7,1057.9 4385.3,1057.9 4385.3,1260 4366.3,1260 4366.3,1057.9 		"/>
		<rect x="4341.8" y="1255.8" fill="none" stroke="#000000" stroke-miterlimit="10" width="207.3" height="16.3"/>
		<rect x="4337.7" y="1251.5" fill="none" stroke="#000000" stroke-miterlimit="10" width="214.3" height="23.5"/>
		<path fill="none" stroke="#000000" stroke-miterlimit="10" d="M4319.3,1061.5l-2.8-3c0,0-9.6-2.8,1.4,6.8h239.5l4.8-4.8
			c0,0,0.8-7.9-6,1.3L4319.3,1061.5z"/>
		<path fill="none" stroke="#000000" stroke-miterlimit="10" d="M4332.8,1462.9l-4.6,3.6c0,0-1.8,6.4,5.8,0h237.3l2.7,2.7
			c0,0,7.5,0.2-1.2-6.3L4332.8,1462.9L4332.8,1462.9z"/>
	</g>
	<rect x="1249" y="115.4" width="203" height="5.6"/>
	<polyline fill="none" stroke="#000000" stroke-width="5" stroke-miterlimit="10" points="2335.7,620.7 2380.2,620.7 2358.2,620.7 
		2358.2,114.7 2324,114.7 2374.7,114.7 	"/>
	<polyline fill="none" stroke="#000000" stroke-width="5" stroke-miterlimit="10" points="3245,1006.5 2456.8,1000.7 2456.7,1005.7 
			"/>
	<polyline fill="none" stroke="#000000" stroke-width="5" stroke-miterlimit="10" points="3343,1005.7 3623.8,1005.1 3623.8,1020.5 
			"/>
</g>
<g id="Rooms">
	<a id="SevenEleven" xlink:href="#myMaps" >
		<g>
			<rect x="50" y="1329.4" fill="#FFFFFF" width="508" height="534.6"/>
		</g>
	</a>
	<a id="MediaRoom" xlink:href="#myMaps" >
		<g>
			<rect x="573" y="1303" fill="#FFFFFF" width="300.8" height="561"/>
			<path fill="#FFFFFF" stroke="#000000" stroke-miterlimit="10" d="M704,1303v61.5c0,0,58.2-4.3,63-61.5"/>
		</g>
	</a>
	<a id="OldClinic" xlink:href="#myMaps" >
		<g>
			<rect x="47.3" y="1064" fill="#FFFFFF" width="69" height="252.5"/>
			<path fill="none" stroke="#000000" stroke-miterlimit="10" d="M116.3,1166.8H66.5c0,0,7.3,50.8,49.8,52.3"/>
		</g>
	</a>
	<a id="Comlab4_1_" xlink:href="#myMaps" >
		<g>
			<rect x="47.3" y="778" fill="#FFFFFF" width="304" height="276.8"/>
			<path fill="none" stroke="#000000" stroke-miterlimit="10" d="M351.3,1047.3h-46c0,0,7.3-44.8,46-44"/>
			<path fill="none" stroke="#000000" stroke-miterlimit="10" d="M351.3,783h-58.8c0,0,6,45.5,58.8,46.8"/>
		</g>
	</a>
	<a id="Comlab1" xlink:href="#myMaps" >
		<g>
			<rect x="49.3" y="492" fill="#FFFFFF" width="299.7" height="274.3"/>
			<path fill="none" stroke="#000000" stroke-miterlimit="10" d="M349,760.5h-56.5c0,0,10.2-46.3,56.5-43.7"/>
			<path fill="none" stroke="#000000" stroke-miterlimit="10" d="M349,515h-50.8c0,0,0.9,44.4,50.8,43.4"/>
		</g>
	</a>
	<a id="UtilityRoom1_1_" xlink:href="#myMaps" >
		<g>
			<rect x="47.3" y="392" fill="#FFFFFF" width="226.1" height="88.2"/>
			<path fill="none" stroke="#000000" stroke-miterlimit="10" d="M273.3,410.7H223c0,0,10.3,46.3,50.3,46"/>
		</g>
	</a>
	<a id="MaleCR1A" xlink:href="#myMaps" >
		<g>
			<rect x="49.3" y="254" fill="#FFFFFF" width="224" height="126"/>
		</g>
	</a>
	<a id="FemaleCR1A" xlink:href="#myMaps" >
		<g>
			<rect x="49.3" y="124.3" fill="#FFFFFF" width="224" height="120.3"/>
		</g>
	</a>
	<a id="Comlab3" xlink:href="#myMaps" >
		<g>
			<rect x="572" y="778.5" fill="#FFFFFF" width="302.5" height="275.5"/>
			<path fill="none" stroke="#000000" stroke-miterlimit="10" d="M572,792.7h59.7c0,0,3,62.3-59.7,62.8"/>
		</g>
	</a>
	<a id="Comlab2" xlink:href="#myMaps" >
		<g>
			<rect x="572" y="490" fill="#FFFFFF" width="302.7" height="274.8"/>
			<path fill="none" stroke="#000000" stroke-miterlimit="10" d="M572,508.7h69.7c0,0-4.2,59.5-69.7,62.2"/>
		</g>
	</a>
	<a id="KitchenLab" xlink:href="#myMaps" >
		<g>
			<rect x="1499" y="125" fill="#FFFFFF" width="848" height="494"/>
			<path fill="none" stroke="#000000" stroke-miterlimit="10" d="M1515.8,619v-73.3c0,0,72.3,10,76.8,73.3"/>
			<path fill="none" stroke="#000000" stroke-miterlimit="10" d="M2335.7,619v-73.3c0,0-75.7,7.6-76.2,72.9"/>
		</g>
	</a>
	<a id="FBLab" xlink:href="#myMaps" >
		<g>
			<rect x="2366" y="125" fill="#FFFFFF" width="871.7" height="493.7"/>
			<path fill="none" stroke="#000000" stroke-miterlimit="10" d="M2380.5,619v-73.3c0,0,78.5,7.3,79,72.9"/>
			<path fill="none" stroke="#000000" stroke-miterlimit="10" d="M3216.3,618.7v-72.9c0,0-79.3,24.9-78.7,72.9"/>
		</g>
	</a>
	<a id="MaleCR1B" xlink:href="#myMaps" >
		<g>
			<polygon fill="#FFFFFF" points="3250.3,376 3581,376 3581,441.7 3682.7,441.7 3682.7,620.7 3250.3,620.7 			"/>
			<path fill="none" stroke="#000000" stroke-miterlimit="10" d="M3676.3,441.7v56.7c0,0-53-1.3-55.3-56.7"/>
		</g>
	</a>
	<a id="FemaleCR1B" xlink:href="#myMaps" >
		<g>
			<polygon fill="#FFFFFF" points="3250.3,365.5 3250.3,122 3682.8,122 3682.8,295.3 3581.3,295.3 3581.3,367 			"/>
			<path fill="none" stroke="#000000" stroke-miterlimit="10" d="M3674.3,295.3v-57.9c0,0-54.7,13.2-59,57.9"/>
		</g>
	</a>
	<a id="BesideClinic" xlink:href="#myMaps" >
		<g>
			<rect x="3850.5" y="122.8" fill="#FFFFFF" width="122.5" height="192.5"/>
		</g>
	</a>
	<a id="SchoolClinic" xlink:href="#myMaps" >
		<g>
			<rect x="3850.5" y="325.3" fill="#FFFFFF" width="277.5" height="295.7"/>
			<path fill="none" stroke="#000000" stroke-miterlimit="10" d="M3850.5,354.8h54.8c0,0-13,48.5-54.8,48.3"/>
		</g>
	</a>
	<a id="Frontline" xlink:href="#myMaps" >
		<g>
			<rect x="3853.5" y="1012.5" fill="#FFFFFF" width="274" height="495"/>
			<path fill="none" stroke="#000000" stroke-miterlimit="10" d="M4031.5,1012.5v78.3c0,0-74.8-15.5-75.5-78.3"/>
			<path fill="none" stroke="#000000" stroke-miterlimit="10" d="M4127.5,1364.7h-130.3c0,0-10.8,129.7,130.3,127.7"/>
		</g>
	</a>
	<a id="Administration" xlink:href="#myMaps" >
		<g>
			<rect x="3251.8" y="1223.7" fill="#FFFFFF" width="588.6" height="283.3"/>
		</g>
	</a>
	<a id="Guidance1" xlink:href="#myMaps" >
		<g>
			<rect x="3250.3" y="1009.7" fill="#FFFFFF" width="369.3" height="202"/>
			<path fill="none" stroke="#000000" stroke-miterlimit="10" d="M3268.5,1009.7v78.8c0,0,75.8-10.9,74.5-78.8"/>
		</g>
	</a>
	<a id="Administration2" xlink:href="#myMaps" >
		<g>
			<rect x="3629.3" y="1009.7" fill="#FFFFFF" width="211" height="202"/>
		</g>
	</a>
	<a id="MockHotel" xlink:href="#myMaps" >
		<g>
			<rect x="2362.7" y="1005.7" fill="#FFFFFF" width="875.8" height="503.3"/>
			<path fill="none" stroke="#000000" stroke-miterlimit="10" d="M2379.7,1005.7v67.7c0,0,79.7-4.3,77-67.7"/>
		</g>
	</a>
	<a id="Canteen" xlink:href="#myMaps" >
		<g>
			<rect x="1497" y="1007" fill="#FFFFFF" width="852" height="498"/>
			<path fill="none" stroke="#000000" stroke-miterlimit="10" d="M1809,1007v181c0,0,346-19.7,357-176.3"/>
		</g>
	</a>
	<a id="CanteenCounter" xlink:href="#myMaps" >
		<g>
			<rect x="1220" y="1011.7" fill="#FFFFFF" width="265.3" height="498.3"/>
			<path fill="none" stroke="#000000" stroke-miterlimit="10" d="M1220,1037.8h101.3c0,0,1.5,74-101.3,70.3"/>
		</g>
	</a>
	<a id="EvacArea_1_" xlink:href="#myMaps" >
		<g id="EvacArea">
			<rect x="1086" y="1632.5" fill="none" stroke="#000000" stroke-miterlimit="10" width="3162" height="273.4"/>
		</g>
	</a>
</g>
<g id="Doors">
	<line id="MediaRoom_1_" fill="none" stroke="#000000" stroke-miterlimit="10" x1="704" y1="1343.8" x2="729.3" y2="1303"/>
	<line id="Comlab4" fill="none" stroke="#000000" stroke-miterlimit="10" x1="323" y1="1047.3" x2="351.3" y2="1025.2"/>
	<line id="Comlab1_1_" fill="none" stroke="#000000" stroke-miterlimit="10" x1="314.6" y1="760.5" x2="349" y2="744.3"/>
	<line id="UtilityRoom1" fill="none" stroke="#000000" stroke-miterlimit="10" x1="240" y1="442.4" x2="273.3" y2="433.7"/>
	<line id="Comlab3_1_" fill="none" stroke="#000000" stroke-miterlimit="10" x1="592.5" y1="792.7" x2="572" y2="806.4"/>
	<line id="Comlab2_1_" fill="none" stroke="#000000" stroke-miterlimit="10" x1="605.2" y1="508.7" x2="572" y2="536.7"/>
	<line id="KitchenLab_1_" fill="none" stroke="#000000" stroke-miterlimit="10" x1="1515.8" y1="574.8" x2="1554.1" y2="619"/>
	<line id="FBLab_1_" fill="none" stroke="#000000" stroke-miterlimit="10" x1="2380.5" y1="578.8" x2="2415.3" y2="618.7"/>
	<line id="MaleCR1B_1_" fill="none" stroke="#000000" stroke-miterlimit="10" x1="3676.3" y1="470.8" x2="3648.7" y2="441.7"/>
	<line id="FemaleCR1B_1_" fill="none" stroke="#000000" stroke-miterlimit="10" x1="3629.2" y1="263.9" x2="3648.7" y2="295.3"/>
	<line id="SchoolClinic_1_" fill="none" stroke="#000000" stroke-miterlimit="10" x1="3874.8" y1="354.8" x2="3850.5" y2="376"/>
	<line id="Frontline_1_" fill="none" stroke="#000000" stroke-miterlimit="10" x1="4031.5" y1="1049.9" x2="3990.5" y2="1012.5"/>
	<line id="Guidance1_1_" fill="none" stroke="#000000" stroke-miterlimit="10" x1="3330.4" y1="1052.7" x2="3305.8" y2="1009.7"/>
	<line id="MockHotel_1_" fill="none" stroke="#000000" stroke-miterlimit="10" x1="2445.2" y1="1043.7" x2="2415.3" y2="1005.7"/>
	<line id="Canteen_1_" fill="none" stroke="#000000" stroke-miterlimit="10" x1="2062.5" y1="1129.9" x2="1987.5" y2="1007"/>
	<line id="EvacArea_2_" fill="none" stroke="#000000" stroke-miterlimit="10" x1="1102.8" y1="1813.4" x2="1153.6" y2="1827.2"/>
	<line id="EvacArea_3_" fill="none" stroke="#000000" stroke-miterlimit="10" x1="4105" y1="1673.7" x2="4119.3" y2="1688"/>
	
	<line id="CanteenCounter_1_" fill="none" stroke="#000000" stroke-miterlimit="10" x1="1263.3" y1="1037.8" x2="1220" y2="1067.7"/>
	<line id="OldClinic_1_" fill="none" stroke="#000000" stroke-miterlimit="10" x1="91.4" y1="1166.8" x2="116.3" y2="1194.3"/>
	<line id="Frontline_2_" fill="none" stroke="#000000" stroke-miterlimit="10" x1="4108" y1="1409" x2="4127.5" y2="1428.5"/>
	<line id="FBLab_2_" fill="none" stroke="#000000" stroke-miterlimit="10" x1="3177" y1="614.5" x2="3202" y2="589.5"/>
	<line id="KitchenLab_2_" fill="none" stroke="#000000" stroke-miterlimit="10" x1="2296" y1="594.3" x2="2308" y2="607.2"/>
	<line id="Comlab1_2_" fill="none" stroke="#000000" stroke-miterlimit="10" x1="338.2" y1="528.5" x2="346.2" y2="536.7"/>
</g>
<g id="Paths">
	<line fill="none" stroke="#000000" stroke-miterlimit="10" x1="145.6" y1="1225.5" x2="482.7" y2="1225.5"/>
	<line fill="none" stroke="#000000" stroke-miterlimit="10" x1="482.7" y1="1225.5" x2="729.3" y2="1225.5"/>
	<line fill="none" stroke="#000000" stroke-miterlimit="10" x1="729.3" y1="1225.5" x2="1029.2" y2="1225.5"/>
	<line fill="none" stroke="#000000" stroke-miterlimit="10" x1="729.3" y1="1225.5" x2="729.3" y2="1303"/>
	<line fill="none" stroke="#000000" stroke-miterlimit="10" x1="482.7" y1="1225.5" x2="482.7" y2="1025.2"/>
	<line fill="none" stroke="#000000" stroke-miterlimit="10" x1="482.7" y1="1025.2" x2="351.3" y2="1025.2"/>
	<line fill="none" stroke="#000000" stroke-miterlimit="10" x1="482.7" y1="1025.2" x2="482.7" y2="806.4"/>
	<line fill="none" stroke="#000000" stroke-miterlimit="10" x1="482.7" y1="806.4" x2="572" y2="806.4"/>
	<line fill="none" stroke="#000000" stroke-miterlimit="10" x1="482.7" y1="806.4" x2="351.3" y2="806.4"/>
	<line fill="none" stroke="#000000" stroke-miterlimit="10" x1="482.7" y1="806.4" x2="482.7" y2="744.3"/>
	<line fill="none" stroke="#000000" stroke-miterlimit="10" x1="482.7" y1="744.3" x2="349" y2="744.3"/>
	<line fill="none" stroke="#000000" stroke-miterlimit="10" x1="482.7" y1="744.3" x2="482.7" y2="536.7"/>
	<line fill="none" stroke="#000000" stroke-miterlimit="10" x1="482.7" y1="536.7" x2="346.2" y2="536.7"/>
	<line fill="none" stroke="#000000" stroke-miterlimit="10" x1="482.7" y1="536.7" x2="572" y2="536.7"/>
	<line fill="none" stroke="#000000" stroke-miterlimit="10" x1="482.7" y1="536.7" x2="482.7" y2="433.7"/>
	<line fill="none" stroke="#000000" stroke-miterlimit="10" x1="482.7" y1="433.7" x2="273.3" y2="433.7"/>
	<line fill="none" stroke="#000000" stroke-miterlimit="10" x1="482.7" y1="433.7" x2="482.7" y2="321.5"/>
	<line fill="none" stroke="#000000" stroke-miterlimit="10" x1="482.7" y1="321.5" x2="841.5" y2="321.5"/>
	<line fill="none" stroke="#000000" stroke-miterlimit="10" x1="841.5" y1="321.5" x2="841.5" y2="199"/>
	<line fill="none" stroke="#000000" stroke-miterlimit="10" x1="841.5" y1="199" x2="751.2" y2="199"/>
	<line fill="none" stroke="#000000" stroke-miterlimit="10" x1="841.5" y1="199" x2="944.5" y2="199"/>
	<line fill="none" stroke="#000000" stroke-miterlimit="10" x1="841.5" y1="321.5" x2="1352.7" y2="321.5"/>
	<line fill="none" stroke="#000000" stroke-miterlimit="10" x1="1352.7" y1="321.5" x2="1352.7" y2="824.1"/>
	<line fill="none" stroke="#000000" stroke-miterlimit="10" x1="1352.7" y1="824.1" x2="1554.1" y2="824.1"/>
	<line fill="none" stroke="#000000" stroke-miterlimit="10" x1="1554.1" y1="824.1" x2="1554.1" y2="619"/>
	<line fill="none" stroke="#000000" stroke-miterlimit="10" x1="1554.1" y1="824.1" x2="1987.5" y2="824.1"/>
	<line fill="none" stroke="#000000" stroke-miterlimit="10" x1="1987.5" y1="824.1" x2="1987.5" y2="1007"/>
	<line fill="none" stroke="#000000" stroke-miterlimit="10" x1="1987.5" y1="824.1" x2="2308" y2="824.1"/>
	<line fill="none" stroke="#000000" stroke-miterlimit="10" x1="2308" y1="824.1" x2="2415.3" y2="824.1"/>
	<line fill="none" stroke="#000000" stroke-miterlimit="10" x1="2308" y1="824.1" x2="2308" y2="607.2"/>
	<line fill="none" stroke="#000000" stroke-miterlimit="10" x1="2415.3" y1="824.1" x2="2415.3" y2="618.7"/>
	<line fill="none" stroke="#000000" stroke-miterlimit="10" x1="2415.3" y1="824.1" x2="2415.3" y2="1005.7"/>
	<line fill="none" stroke="#000000" stroke-miterlimit="10" x1="2415.3" y1="824.1" x2="3177" y2="824.1"/>
	<line fill="none" stroke="#000000" stroke-miterlimit="10" x1="3177" y1="824.1" x2="3305.8" y2="824.1"/>
	<line fill="none" stroke="#000000" stroke-miterlimit="10" x1="3305.8" y1="824.1" x2="3769" y2="824.1"/>
	<line fill="none" stroke="#000000" stroke-miterlimit="10" x1="3769" y1="824.1" x2="3769" y2="376"/>
	<line fill="none" stroke="#000000" stroke-miterlimit="10" x1="3769" y1="376" x2="3648.7" y2="376"/>
	<line fill="none" stroke="#000000" stroke-miterlimit="10" x1="3648.7" y1="376" x2="3648.7" y2="441.7"/>
	<line fill="none" stroke="#000000" stroke-miterlimit="10" x1="3648.7" y1="376" x2="3648.7" y2="295.3"/>
	<line fill="none" stroke="#000000" stroke-miterlimit="10" x1="3769" y1="376" x2="3850.5" y2="376"/>
	<line fill="none" stroke="#000000" stroke-miterlimit="10" x1="3769" y1="824.1" x2="3990.5" y2="824.1"/>
	<line fill="none" stroke="#000000" stroke-miterlimit="10" x1="3990.5" y1="824.1" x2="4208" y2="824.1"/>
	<line fill="none" stroke="#000000" stroke-miterlimit="10" x1="3990.5" y1="824.1" x2="3990.5" y2="1012.5"/>
	<line fill="none" stroke="#000000" stroke-miterlimit="10" x1="4208" y1="824.1" x2="4208" y2="1123.3"/>
	<line fill="none" stroke="#000000" stroke-miterlimit="10" x1="4208" y1="1182.2" x2="4562.3" y2="1182.2"/>
	<line fill="none" stroke="#000000" stroke-miterlimit="10" x1="4562.3" y1="1182.2" x2="4562.3" y2="1363.3"/>
	<line fill="none" stroke="#000000" stroke-miterlimit="10" x1="4562.3" y1="1363.3" x2="4538.6" y2="1363.3"/>
	<line fill="none" stroke="#000000" stroke-miterlimit="10" x1="4208" y1="1123.3" x2="4208" y2="1182.2"/>
	<line fill="none" stroke="#000000" stroke-miterlimit="10" x1="3305.8" y1="824.1" x2="3305.8" y2="1009.7"/>
	<line fill="none" stroke="#000000" stroke-miterlimit="10" x1="3177" y1="824.1" x2="3177" y2="614.5"/>
	<line fill="none" stroke="#000000" stroke-miterlimit="10" x1="4208" y1="1182.2" x2="4208" y2="1428.5"/>
	<line fill="none" stroke="#000000" stroke-miterlimit="10" x1="4208" y1="1428.5" x2="4127.5" y2="1428.5"/>
	<line fill="none" stroke="#000000" stroke-miterlimit="10" x1="4208" y1="1428.5" x2="4208" y2="1688"/>
	<line fill="none" stroke="#000000" stroke-miterlimit="10" x1="145.6" y1="1225.5" x2="145.6" y2="1194.3"/>
	<line fill="none" stroke="#000000" stroke-miterlimit="10" x1="145.6" y1="1194.3" x2="116.3" y2="1194.3"/>
	<line fill="none" stroke="#000000" stroke-miterlimit="10" x1="145.6" y1="1194.3" x2="145.6" y2="1124.8"/>
	<line fill="none" stroke="#000000" stroke-miterlimit="10" x1="145.6" y1="1124.8" x2="176.9" y2="1124.8"/>
	<line fill="none" stroke="#000000" stroke-miterlimit="10" x1="1220" y1="1067.7" x2="1029.2" y2="1067.7"/>
	<line fill="none" stroke="#000000" stroke-miterlimit="10" x1="1029.2" y1="1067.7" x2="1029.2" y2="1225.5"/>
	<line fill="none" stroke="#000000" stroke-miterlimit="10" x1="1352.7" y1="824.1" x2="1029.2" y2="824.1"/>
	<line fill="none" stroke="#000000" stroke-miterlimit="10" x1="1029.2" y1="824.1" x2="1029.2" y2="1067.7"/>
	<line fill="none" stroke="#000000" stroke-miterlimit="10" x1="1029.2" y1="1225.5" x2="1029.2" y2="1604"/>
	<line fill="none" stroke="#000000" stroke-miterlimit="10" x1="1029.2" y1="1604" x2="1029.2" y2="1813.4"/>
	<line fill="none" stroke="#000000" stroke-miterlimit="10" x1="1029.2" y1="1813.4" x2="1102.8" y2="1813.4"/>
	<line fill="none" stroke="#000000" stroke-miterlimit="10" x1="4208" y1="1688" x2="4119.3" y2="1688"/>
</g>
<g id="Portals">
	<line id="Stair.1.floor2" fill="none" stroke="#000000" stroke-miterlimit="10" x1="188.8" y1="1119.2" x2="176.9" y2="1124.8"/>
	<line id="Stair.2.floor2" fill="none" stroke="#000000" stroke-miterlimit="10" x1="737.9" y1="186.5" x2="751.2" y2="199"/>
	<line id="Stair.3.floor2" fill="none" stroke="#000000" stroke-miterlimit="10" x1="961" y1="189.2" x2="944.5" y2="199"/>
	<line id="Stair.4.floor2" fill="none" stroke="#000000" stroke-miterlimit="10" x1="4522.8" y1="1349.6" x2="4538.6" y2="1363.3"/>
</g>
<g id="RoomNames">
	<text transform="matrix(1 0 0 1 125.9043 1632.4805)" font-family="'ArialMT'" font-size="50px">SEVEN ELEVEN</text>
	<text transform="matrix(1 0 0 1 75.314 932.4806)" font-family="'ArialMT'" font-size="50px">COMLAB 4</text>
	<text transform="matrix(1 0 0 1 75.314 652.75)" font-family="'ArialMT'" font-size="50px">COMLAB 1</text>
	<text transform="matrix(1 0 0 1 592.4998 945.9)" font-family="'ArialMT'" font-size="50px">COMLAB 2</text>
	<text transform="matrix(1 0 0 1 601.8616 1583.5)" font-family="'ArialMT'" font-size="34.7828px">MEDIA ROOM</text>
	<text transform="matrix(1 0 0 1 606.8499 652.75)" font-family="'ArialMT'" font-size="50px">COMLAB 3</text>
	<text transform="matrix(1 0 0 1 75.314 321.5)" font-family="'ArialMT'" font-size="30.6825px">MALE CR</text>
	<text transform="matrix(1 0 0 1 58.1855 194.0999)" font-family="'ArialMT'" font-size="31.087px">FEMALE CR</text>
	<text transform="matrix(1 0 0 1 1770.8125 371.6665)" font-family="'ArialMT'" font-size="50px">KITCHEN LAB</text>
	<text transform="matrix(1 0 0 1 1809.0002 1274.7568)" font-family="'ArialMT'" font-size="50px">CANTEEN</text>
	<text transform="matrix(1 0 0 1 2678.8672 1293.6665)" font-family="'ArialMT'" font-size="50px">MOCK HOTEL</text>
	<text transform="matrix(1 0 0 1 3377.937 1368.7079)" font-family="'ArialMT'" font-size="50px">ADMINISTRATION</text>
	<text transform="matrix(1 0 0 1 3840.2998 1267.6998)" font-family="'ArialMT'" font-size="50px">FRONTLINE</text>
	<text transform="matrix(1 0 0 1 2714.8711 366.9995)" font-family="'ArialMT'" font-size="50px">F &amp; B LAB</text>
	<text transform="matrix(1 0 0 1 3348.667 536.749)" font-family="'ArialMT'" font-size="50px">MALE CR</text>
	<text transform="matrix(1 0 0 1 3330.4434 266.2917)" font-family="'ArialMT'" font-size="50px">FEMALE CR</text>
	<text transform="matrix(1 0 0 1 3879.7495 491.55)" font-family="'ArialMT'" font-size="50px">SCHOOL</text>
	<text transform="matrix(1 0 0 1 3879.7495 544.75)" font-family="'ArialMT'" font-size="50px">CLINIC</text>
	<text transform="matrix(1 0 0 1 91.458 425.5869)" font-family="'ArialMT'" font-size="35px">UTILITY</text>
	<text transform="matrix(1 0 0 1 91.458 425.5869)" fill="none" stroke="#FFFFFF" font-family="'ArialMT'" font-size="35px">UTILITY</text>
	<text transform="matrix(1 0 0 1 91.458 466.5869)" font-family="'ArialMT'" font-size="35px">ROOM 1</text>
	<text transform="matrix(1 0 0 1 91.458 466.5869)" fill="none" stroke="#FFFFFF" font-family="'ArialMT'" font-size="35px">ROOM 1</text>
	<text transform="matrix(1 0 0 1 2062.5002 1825.8003)" font-family="'ArialMT'" font-size="131.9434px">EVACTUATION AREA</text>
</g>
</svg>
