<?xml version="1.0" encoding="utf-8"?>
<!-- Generator: Adobe Illustrator 22.0.0, SVG Export Plug-In . SVG Version: 6.00 Build 0)  -->
<svg version="1.1" id="Layer_1" xmlns="http://www.w3.org/2000/svg" xmlns:xlink="http://www.w3.org/1999/xlink" x="0px" y="0px"
	 viewBox="0 0 612 266" enable-background="new 0 0 612 266" xml:space="preserve" height="100%" width="100%">
<g id="Base">
	<polygon points="27.1,248.3 27.1,249.1 5.2,249.1 5.2,136.9 6.1,136.9 6.1,141.1 46.8,141.1 46.8,140.1 47.6,140.1 47.6,141.8 
		6.1,141.8 6.1,175.6 15.7,175.6 15.7,162.6 16.5,162.6 16.5,175.6 74.5,175.6 74.5,172.2 77.7,172.2 77.7,172.9 75.2,172.9 
		75.2,248.3 95.6,248.3 95.6,249.1 44.5,249.1 44.5,248.3 74.5,248.3 74.5,176.3 6.1,176.3 6.1,248.3 	"/>
	<rect x="46.8" y="111" width="0.7" height="22"/>
	<polygon points="5.3,107.2 6,107.2 6,103.7 46.8,103.7 46.8,104 47.5,104 47.5,102.3 46.8,102.3 46.8,103 6,103 6,99.2 5.3,99.2 	
		"/>
	<rect x="46.9" y="75.4" width="0.6" height="19.8"/>
	<polygon points="47.5,68.3 46.9,68.3 46.9,65.6 6,65.6 6,69.4 5.3,69.4 5.3,16.5 51.4,16.5 51.4,17.3 37.1,17.3 37.1,18.5 
		36.5,18.5 36.5,17.3 6,17.3 6,33.9 36.4,33.9 36.4,28.3 37.2,28.3 37.2,40.7 36.4,40.7 36.4,34.6 6,34.6 6,51.9 36.5,51.9 
		36.5,50.5 37.2,50.5 37.2,54.9 36.4,54.9 36.4,52.5 6,52.5 6,65 36.4,65 36.4,61.8 37.2,61.8 37.2,64.9 47.5,64.9 	"/>
	<rect x="64.5" y="16.5" width="100.6" height="0.7"/>
	<polygon points="113,248.3 113,249.1 116.7,249.1 116.7,244.9 116,244.9 116,248.3 	"/>
	<polygon points="116,173 116,176.3 116.7,176.3 116.7,166.4 116,166.4 116,172.2 114.4,172.2 114.4,173 	"/>
	<polygon points="116.7,147.1 116.1,147.1 116.1,141.7 74.5,141.7 74.5,114.4 75.2,114.4 75.2,141 116,141 116,138 116.7,138 	"/>
	<polygon points="116,107.1 116.7,107.1 116.7,100.3 116,100.3 116,103 75.2,103 75.2,76.9 74.5,76.9 74.5,105.9 75.2,105.9 
		75.2,103.7 116,103.7 	"/>
	<polygon points="116,69.4 116.7,69.4 116.7,64.9 75.2,64.9 75.2,63.3 74.5,63.3 74.5,68.4 75.2,68.4 75.2,65.7 115.9,65.7 	"/>
	<polygon points="74.5,54.2 75.2,54.2 75.2,52.5 160.1,52.5 160.1,96.4 161.1,96.4 161.1,51.9 74.5,51.9 	"/>
	<rect x="15.7" y="141.8" width="0.7" height="13.7"/>
	<rect x="116.2" y="177.1" width="0.4" height="67.8"/>
	<rect x="116.2" y="176.3" width="0.3" height="0.8"/>
	<rect x="77.7" y="172.4" width="15.1" height="0.4"/>
	<rect x="101.8" y="172.3" width="12.5" height="0.5"/>
	<circle cx="92.8" cy="172.5" r="0.3"/>
	<circle cx="101.7" cy="172.5" r="0.4"/>
	<rect x="116.2" y="137.3" width="0.2" height="0.6"/>
	<rect x="116.2" y="107.1" width="0.3" height="30.2"/>
	<rect x="116.2" y="69" width="0.3" height="32"/>
	<polygon points="192,16.5 192,17.3 196.8,17.3 196.8,84.5 199.7,84.5 199.7,83.6 197.6,83.6 197.6,17.3 200,17.3 200,16.5 	"/>
	<rect x="211.1" y="83.6" width="87.1" height="0.8"/>
	<rect x="325.4" y="83.6" width="89" height="1"/>
	<polygon points="428.6,83.6 425.8,83.6 425.8,84.5 488,84.5 488,58.3 486.8,58.3 486.8,59.3 487.2,59.3 487.2,83.6 429.5,83.6 
		429.5,50.8 473.8,50.8 473.8,59.2 478.3,59.2 478.3,58.4 474.6,58.4 474.6,41.2 477.4,41.2 477.4,40.4 473.9,40.4 473.9,50 
		429.5,50 429.5,17.3 487.2,17.3 487.2,40.5 486,40.5 486,41.4 488,41.4 488,17.3 493,17.3 493,16.4 424.4,16.4 424.4,17.3 
		428.7,17.3 	"/>
	<polygon points="504.4,16.4 504.4,17.3 508.2,17.3 508.2,47.8 509,47.8 509,17.3 525.6,17.3 525.6,43.1 521.2,43.1 521.2,44 
		526.5,44 526.5,16.4 	"/>
	<rect x="509" y="43.2" width="4.9" height="0.9"/>
	<polygon points="508.2,55.1 509,55.1 509,83.7 545.9,83.7 545.9,84.5 508.2,84.5 	"/>
	<polygon points="545.9,43.1 545.9,44.1 546.1,44.1 546.1,83.5 547,83.5 547,43.1 	"/>
	<rect x="526.5" y="43.1" width="19.4" height="0.8"/>
	<rect x="545.9" y="83.8" width="0.9" height="0.6"/>
	<path d="M546.8,84.1"/>
	<rect x="546.8" y="83.7" width="23.3" height="0.6"/>
	<rect x="569.1" y="84.3" width="0.8" height="35.9"/>
	<polygon points="569.1,121.1 569.9,121.1 569.9,134 606.8,134 606.8,141.2 606,141.2 606,134.8 569.1,134.8 	"/>
	<rect x="569.3" y="120.2" width="0.4" height="0.9"/>
	<polygon points="605.9,195.6 606.7,195.6 606.7,201.9 569.7,201.9 569.7,201.1 605.9,201.1 	"/>
	<rect x="606.2" y="145.6" width="0.3" height="50"/>
	<rect x="606.1" y="141.2" width="0.4" height="0.8"/>
	<polygon points="551.3,201.1 551.3,202 541.1,202 541.1,201.1 546.1,201.1 546.1,199.4 546.9,199.4 546.9,201.2 	"/>
	<polyline fill="none" stroke="#000000" stroke-width="5" stroke-miterlimit="10" points="546.5,180.9 546.5,134.4 533.8,134.4 	"/>
	<polyline fill="none" stroke="#000000" stroke-width="5" stroke-miterlimit="10" points="482.5,162.2 476,162.2 479.2,162.2 
		479.2,134.2 523.1,134.4 508.6,134.4 508.6,163.7 508.6,162.1 488.6,162.1 	"/>
	<polyline fill="none" stroke="#000000" stroke-width="5" stroke-miterlimit="10" points="468.1,162.2 429.1,162.2 429.1,134.4 
		429.1,201.5 416,201.5 432.4,201.5 	"/>
	<polyline fill="none" stroke="#000000" stroke-width="5" stroke-miterlimit="10" points="313.9,133.6 311.7,133.6 311.7,201.5 
		323.5,201.5 298.6,201.5 	"/>
	<polyline fill="none" stroke="#000000" stroke-width="5" stroke-miterlimit="10" points="160.6,148.3 160.6,201.6 206.2,201.6 
		197.2,201.6 197.2,134.4 160.6,134.4 160.6,138.1 160.6,122.8 	"/>
	<polyline fill="none" stroke="#000000" stroke-miterlimit="10" points="206.2,201.4 252.1,201.4 252.5,201.4 252.5,201.9 
		298.6,201.9 	"/>
	<polyline fill="none" stroke="#000000" stroke-miterlimit="10" points="200,16.6 253.1,16.6 253.5,16.6 253.5,17.1 306.9,17.1 	"/>
	<polyline fill="none" stroke="#000000" stroke-miterlimit="10" points="314.3,16.6 369.4,16.6 369.4,17.1 424.4,17.1 	"/>
	<polyline fill="none" stroke="#000000" stroke-width="5" stroke-miterlimit="10" points="508.6,172.4 508.6,201.5 516,201.5 
		499.6,201.5 	"/>
	<polyline fill="none" stroke="#000000" stroke-miterlimit="10" points="499.6,201.8 465.9,201.8 465.9,201.3 432.4,201.3 	"/>
	<polyline fill="none" stroke="#000000" stroke-miterlimit="10" points="416,201.8 369.8,201.8 369.8,201.4 323.5,201.4 	"/>
	<polyline fill="none" stroke="#000000" stroke-miterlimit="10" points="516,201.3 528.6,201.3 528.6,201.8 541.1,201.8 	"/>
	<polyline fill="none" stroke="#000000" stroke-miterlimit="10" points="5.4,136.9 5.4,122.3 5.8,122.3 5.8,107.2 	"/>
	<polyline fill="none" stroke="#000000" stroke-miterlimit="10" points="5.4,99.2 5.4,84.5 5.8,84.5 5.8,69.4 	"/>
	<g id="Stairs">
		<rect x="23.3" y="159.2" fill="none" stroke="#000000" stroke-miterlimit="10" width="20.8" height="14.9"/>
		<polyline fill="none" stroke="#000000" stroke-miterlimit="10" points="42.1,159.2 42.1,174.2 40.2,174.2 40.2,159.2 38.4,159.2 
			38.4,174.2 36.4,174.2 36.4,159.2 34.7,159.2 34.7,174.2 32.8,174.2 32.8,159.2 30.8,159.2 30.8,174.2 28.9,174.2 28.9,159.2 
			27.1,159.2 27.1,174.2 25.1,174.2 25.1,159.2 		"/>
		<rect x="23.2" y="143.3" fill="none" stroke="#000000" stroke-miterlimit="10" width="20.8" height="14.9"/>
		<polyline fill="none" stroke="#000000" stroke-miterlimit="10" points="42,143.3 42,158.3 40.1,158.3 40.1,143.3 38.3,143.3 
			38.3,158.3 36.3,158.3 36.3,143.3 34.6,143.3 34.6,158.3 32.7,158.3 32.7,143.3 30.7,143.3 30.7,158.3 28.8,158.3 28.8,143.3 
			27,143.3 27,158.3 25,158.3 25,143.3 		"/>
		<path fill="none" stroke="#000000" stroke-miterlimit="10" d="M21.3,173.3l-0.4,0.5c0,0-0.2,0.8,0.6,0h26.1l0.3,0.3
			c0,0,1,0.3-0.1-0.9H21.3V173.3z"/>
		<rect x="22.3" y="157.9" fill="none" stroke="#000000" stroke-miterlimit="10" width="22.8" height="1.8"/>
		<rect x="21.9" y="157.3" fill="none" stroke="#000000" stroke-miterlimit="10" width="23.5" height="2.7"/>
		<path fill="none" stroke="#000000" stroke-miterlimit="10" d="M19.8,143.6l-0.3-0.3c0,0-0.7,0.1,0.2,0.6h26.4l0.4-0.4
			c0,0,0-0.6-0.5,0.1L19.8,143.6z"/>
		<rect x="78.5" y="19.1" fill="none" stroke="#000000" stroke-miterlimit="10" width="20.8" height="14.9"/>
		<polyline fill="none" stroke="#000000" stroke-miterlimit="10" points="80.5,34 80.5,19.1 82.5,19.1 82.5,34 84.3,34 84.3,19.1 
			86.2,19.1 86.2,34 88,34 88,19.1 89.9,19.1 89.9,34 91.9,34 91.9,19.1 93.7,19.1 93.7,34 95.6,34 95.6,19.1 97.6,19.1 97.6,34 		
			"/>
		<rect x="78.6" y="35" fill="none" stroke="#000000" stroke-miterlimit="10" width="20.8" height="14.9"/>
		<polyline fill="none" stroke="#000000" stroke-miterlimit="10" points="80.6,49.9 80.6,35 82.6,35 82.6,49.9 84.4,49.9 84.4,35 
			86.4,35 86.4,49.9 88.1,49.9 88.1,35 90,35 90,49.9 92,49.9 92,35 93.8,35 93.8,49.9 95.7,49.9 95.7,35 97.7,35 97.7,49.9 		"/>
		<path fill="none" stroke="#000000" stroke-miterlimit="10" d="M102.8,20.4l0.4-0.5c0,0,0.2-0.8-0.6,0H76.5l-0.3-0.3
			c0,0-1-0.3,0.1,0.9h26.5V20.4z"/>
		<rect x="77.6" y="33.6" fill="none" stroke="#000000" stroke-miterlimit="10" width="22.8" height="1.8"/>
		<rect x="77.2" y="33.2" fill="none" stroke="#000000" stroke-miterlimit="10" width="23.5" height="2.7"/>
		<path fill="none" stroke="#000000" stroke-miterlimit="10" d="M101.2,50l0.3,0.3c0,0,0.7-0.1-0.2-0.6H74.9l-0.4,0.4
			c0,0,0,0.6,0.5-0.1L101.2,50z"/>
		<rect x="124.9" y="34.6" fill="none" stroke="#000000" stroke-miterlimit="10" width="33.1" height="16.3"/>
		<polyline fill="none" stroke="#000000" stroke-miterlimit="10" points="155.9,34.6 155.9,50.9 153.6,50.9 153.6,34.6 151.4,34.6 
			151.4,50.9 149.2,50.9 149.2,34.6 147,34.6 147,50.9 144.7,50.9 144.7,34.6 142.6,34.6 142.6,50.9 140.2,50.9 140.2,34.6 
			138.2,34.6 138.2,50.9 135.8,50.9 135.8,34.6 133.6,34.6 133.6,50.9 131.4,50.9 131.4,34.6 129.2,34.6 129.2,50.9 127.1,50.9 
			127.1,34.6 		"/>
		<rect x="124.9" y="17.3" fill="none" stroke="#000000" stroke-miterlimit="10" width="33.1" height="16.3"/>
		<polyline fill="none" stroke="#000000" stroke-miterlimit="10" points="155.9,17.3 155.9,33.5 153.6,33.5 153.6,17.3 151.4,17.3 
			151.4,33.5 149.2,33.5 149.2,17.3 147,17.3 147,33.5 144.7,33.5 144.7,17.3 142.6,17.3 142.6,33.5 140.2,33.5 140.2,17.3 
			138.2,17.3 138.2,33.5 135.8,33.5 135.8,17.3 133.6,17.3 133.6,33.5 131.4,33.5 131.4,17.3 129.2,17.3 129.2,33.5 127.1,33.5 
			127.1,17.3 		"/>
		<path fill="none" stroke="#000000" stroke-miterlimit="10" d="M120.7,17.7l-0.4-0.4c0,0-1.1-0.2,0.2,0.9h39.8l0.6-0.6
			c0,0,0.3-1-0.8,0.2L120.7,17.7z"/>
		<path fill="none" stroke="#000000" stroke-miterlimit="10" d="M122.6,50.4l-0.5,0.5c0,0-0.8-0.2,0.2-0.9h39.9l0.6,0.6
			c0,0,0.1,0.8-0.7-0.1L122.6,50.4z"/>
		<rect x="123.7" y="33" fill="none" stroke="#000000" stroke-miterlimit="10" width="35.6" height="2.2"/>
		<rect x="123.2" y="32.4" fill="none" stroke="#000000" stroke-miterlimit="10" width="36.6" height="3.2"/>
		<rect x="575.4" y="168.9" fill="none" stroke="#000000" stroke-miterlimit="10" width="25.1" height="26.7"/>
		<polyline fill="none" stroke="#000000" stroke-miterlimit="10" points="598.1,168.9 598.1,195.6 595.8,195.6 595.8,168.9 
			593.6,168.9 593.6,195.6 591.2,195.6 591.2,168.9 589,168.9 589,195.6 586.7,195.6 586.7,168.9 584.5,168.9 584.5,195.6 
			582.1,195.6 582.1,168.9 579.9,168.9 579.9,195.6 577.4,195.6 577.4,168.9 		"/>
		<rect x="575.4" y="141.2" fill="none" stroke="#000000" stroke-miterlimit="10" width="25.1" height="26.7"/>
		<polyline fill="none" stroke="#000000" stroke-miterlimit="10" points="598.1,141.2 598.1,167.9 595.8,167.9 595.8,141.2 
			593.6,141.2 593.6,167.9 591.2,167.9 591.2,141.2 589,141.2 589,167.9 586.7,167.9 586.7,141.2 584.5,141.2 584.5,167.9 
			582.1,167.9 582.1,141.2 579.9,141.2 579.9,167.9 577.4,167.9 577.4,141.2 		"/>
		<rect x="574.2" y="167.3" fill="none" stroke="#000000" stroke-miterlimit="10" width="27.4" height="2.2"/>
		<rect x="573.6" y="166.8" fill="none" stroke="#000000" stroke-miterlimit="10" width="28.3" height="3.1"/>
		<path fill="none" stroke="#000000" stroke-miterlimit="10" d="M571.2,141.7l-0.4-0.4c0,0-1.3-0.4,0.2,0.9h31.7l0.6-0.6
			c0,0,0.1-1-0.8,0.2L571.2,141.7z"/>
		<path fill="none" stroke="#000000" stroke-miterlimit="10" d="M573,194.7l-0.6,0.5c0,0-0.2,0.8,0.8,0h31.4l0.4,0.4
			c0,0,1,0-0.2-0.8L573,194.7L573,194.7z"/>
	</g>
	<rect x="165.2" y="16.5" width="26.8" height="0.7"/>
	<polyline fill="none" stroke="#000000" stroke-width="5" stroke-miterlimit="10" points="308.9,83.4 314.8,83.4 311.8,83.4 
		311.8,16.4 307.3,16.4 314,16.4 	"/>
	<polyline fill="none" stroke="#000000" stroke-width="5" stroke-miterlimit="10" points="429.1,134.4 324.9,133.6 324.9,134.3 	"/>
	<polyline fill="none" stroke="#000000" stroke-width="5" stroke-miterlimit="10" points="442.1,134.3 479.2,134.2 479.2,136.2 	"/>
</g>
<g id="Rooms">
	<a id="SevenEleven" xlink:href="#mapArea" >
		<g>
			<rect x="6.6" y="177.1" fill="#FFFFFF" width="67.2" height="70.7"/>
		</g>
	</a>
	<a id="MediaRoom" xlink:href="#mapArea" >
		<g>
			<rect x="75.8" y="173.6" fill="#FFFFFF" width="39.8" height="74.2"/>
			<path fill="#FFFFFF" stroke="#000000" stroke-miterlimit="10" d="M93.1,173.6v8.1c0,0,7.7-0.6,8.3-8.1"/>
		</g>
	</a>
	<a id="OldClinic" xlink:href="#mapArea" >
		<g>
			<rect x="6.3" y="142" fill="#FFFFFF" width="9.1" height="33.4"/>
			<path fill="none" stroke="#000000" stroke-miterlimit="10" d="M15.4,155.6H8.8c0,0,1,6.7,6.6,6.9"/>
		</g>
	</a>
	<a id="Comlab4_1_" xlink:href="#mapArea" >
		<g>
			<rect x="6.3" y="104.2" fill="#FFFFFF" width="40.2" height="36.6"/>
			<path fill="none" stroke="#000000" stroke-miterlimit="10" d="M46.5,139.8h-6.1c0,0,1-5.9,6.1-5.8"/>
			<path fill="none" stroke="#000000" stroke-miterlimit="10" d="M46.5,104.8h-7.8c0,0,0.8,6,7.8,6.2"/>
		</g>
	</a>
	<a id="Comlab1" xlink:href="#mapArea" >
		<g>
			<rect x="6.5" y="66.3" fill="#FFFFFF" width="39.6" height="36.3"/>
			<path fill="none" stroke="#000000" stroke-miterlimit="10" d="M46.2,101.8h-7.5c0,0,1.3-6.1,7.5-5.8"/>
			<path fill="none" stroke="#000000" stroke-miterlimit="10" d="M46.2,69.4h-6.7c0,0,0.1,5.9,6.7,5.7"/>
		</g>
	</a>
	<a id="UtilityRoom1_1_" xlink:href="#mapArea" >
		<g>
			<rect x="6.3" y="53.1" fill="#FFFFFF" width="29.9" height="11.7"/>
			<path fill="none" stroke="#000000" stroke-miterlimit="10" d="M36.1,55.6h-6.7c0,0,1.4,6.1,6.7,6.1"/>
		</g>
	</a>
	<a id="MaleCR1A" xlink:href="#mapArea" >
		<g>
			<rect x="6.5" y="34.9" fill="#FFFFFF" width="29.6" height="16.7"/>
		</g>
	</a>
	<a id="FemaleCR1A" xlink:href="#mapArea" >
		<g>
			<rect x="6.5" y="17.7" fill="#FFFFFF" width="29.6" height="15.9"/>
		</g>
	</a>
	<a id="Comlab3" xlink:href="#mapArea" >
		<g>
			<rect x="75.6" y="104.2" fill="#FFFFFF" width="40" height="36.4"/>
			<path fill="none" stroke="#000000" stroke-miterlimit="10" d="M75.6,106.1h7.9c0,0,0.4,8.2-7.9,8.3"/>
		</g>
	</a>
	<a id="Comlab2" xlink:href="#mapArea" >
		<g>
			<rect x="75.6" y="66.1" fill="#FFFFFF" width="40" height="36.3"/>
			<path fill="none" stroke="#000000" stroke-miterlimit="10" d="M75.6,68.6h9.2c0,0-0.6,7.9-9.2,8.2"/>
		</g>
	</a>
	<a id="KitchenLab" xlink:href="#mapArea" >
		<g>
			<rect x="198.2" y="17.8" fill="#FFFFFF" width="112.1" height="65.3"/>
			<path fill="none" stroke="#000000" stroke-miterlimit="10" d="M200.4,83.1v-9.7c0,0,9.6,1.3,10.2,9.7"/>
			<path fill="none" stroke="#000000" stroke-miterlimit="10" d="M308.9,83.1v-9.7c0,0-10,1-10.1,9.6"/>
		</g>
	</a>
	<a id="FBLab" xlink:href="#mapArea" >
		<g>
			<rect x="312.9" y="17.8" fill="#FFFFFF" width="115.3" height="65.3"/>
			<path fill="none" stroke="#000000" stroke-miterlimit="10" d="M314.8,83.1v-9.7c0,0,10.4,1,10.4,9.6"/>
			<path fill="none" stroke="#000000" stroke-miterlimit="10" d="M425.3,83.1v-9.6c0,0-10.5,3.3-10.4,9.6"/>
		</g>
	</a>
	<a id="MaleCR1B" xlink:href="#mapArea" >
		<g>
			<polygon fill="#FFFFFF" points="429.8,51 473.5,51 473.5,59.7 487,59.7 487,83.4 429.8,83.4 			"/>
			<path fill="none" stroke="#000000" stroke-miterlimit="10" d="M486.1,59.7v7.5c0,0-7-0.2-7.3-7.5"/>
		</g>
	</a>
	<a id="FemaleCR1B" xlink:href="#mapArea" >
		<g>
			<polygon fill="#FFFFFF" points="429.8,49.6 429.8,17.4 487,17.4 487,40.3 473.6,40.3 473.6,49.8 			"/>
			<path fill="none" stroke="#000000" stroke-miterlimit="10" d="M485.9,40.3v-7.7c0,0-7.2,1.7-7.8,7.7"/>
		</g>
	</a>
	<a id="BesideClinic" xlink:href="#mapArea" >
		<g>
			<rect x="509.2" y="17.5" fill="#FFFFFF" width="16.2" height="25.5"/>
		</g>
	</a>
	<a id="SchoolClinic" xlink:href="#mapArea" >
		<g>
			<rect x="509.2" y="44.3" fill="#FFFFFF" width="36.7" height="39.1"/>
			<path fill="none" stroke="#000000" stroke-miterlimit="10" d="M509.2,48.2h7.2c0,0-1.7,6.4-7.2,6.4"/>
		</g>
	</a>
	<a id="Frontline" xlink:href="#mapArea" >
		<g>
			<rect x="509.6" y="135.2" fill="#FFFFFF" width="36.2" height="65.5"/>
			<path fill="none" stroke="#000000" stroke-miterlimit="10" d="M533.1,135.2v10.4c0,0-9.9-2-10-10.4"/>
			<path fill="none" stroke="#000000" stroke-miterlimit="10" d="M545.8,181.7h-17.2c0,0-1.4,17.2,17.2,16.9"/>
		</g>
	</a>
	<a id="Administration" xlink:href="#mapArea" >
		<g>
			<rect x="430" y="163.1" fill="#FFFFFF" width="77.8" height="37.5"/>
		</g>
	</a>
	<a id="Guidance1" xlink:href="#mapArea" >
		<g>
			<rect x="429.8" y="134.8" fill="#FFFFFF" width="48.8" height="26.7"/>
			<path fill="none" stroke="#000000" stroke-miterlimit="10" d="M432.2,134.8v10.4c0,0,10-1.4,9.9-10.4"/>
		</g>
	</a>
	<a id="Administration2" xlink:href="#mapArea" >
		<g>
			<rect x="479.9" y="134.8" fill="#FFFFFF" width="27.9" height="26.7"/>
		</g>
	</a>
	<a id="MockHotel" xlink:href="#mapArea" >
		<g>
			<rect x="312.4" y="134.3" fill="#FFFFFF" width="115.8" height="66.6"/>
			<path fill="none" stroke="#000000" stroke-miterlimit="10" d="M314.7,134.3v9c0,0,10.5-0.6,10.2-9"/>
		</g>
	</a>
	<a id="Canteen" xlink:href="#mapArea" >
		<g>
			<rect x="198" y="134.4" fill="#FFFFFF" width="112.7" height="65.9"/>
			<path fill="none" stroke="#000000" stroke-miterlimit="10" d="M239.2,134.4v23.9c0,0,45.8-2.6,47.2-23.3"/>
		</g>
	</a>
	<a id="CanteenCounter" xlink:href="#mapArea" >
		<g>
			<rect x="161.3" y="135.1" fill="#FFFFFF" width="35.1" height="65.9"/>
			<path fill="none" stroke="#000000" stroke-miterlimit="10" d="M161.3,138.5h13.4c0,0,0.2,9.8-13.4,9.3"/>
		</g>
	</a>
	<a id="EvacArea_1_" xlink:href="#mapArea" >
		<g id="EvacArea">
			<rect x="143.6" y="217.2" fill="none" stroke="#000000" stroke-miterlimit="10" width="418.1" height="36.2"/>
		</g>
	</a>
</g>
<g id="Doors">
	<line id="MediaRoom_1_" fill="none" stroke="#000000" stroke-miterlimit="10" x1="93.1" y1="179" x2="96.4" y2="173.6"/>
	<line id="Comlab4" fill="none" stroke="#000000" stroke-miterlimit="10" x1="42.7" y1="139.8" x2="46.5" y2="136.9"/>
	<line id="Comlab1_1_" fill="none" stroke="#000000" stroke-miterlimit="10" x1="41.6" y1="101.8" x2="46.2" y2="99.7"/>
	<line id="UtilityRoom1" fill="none" stroke="#000000" stroke-miterlimit="10" x1="31.7" y1="59.8" x2="36.1" y2="58.6"/>
	<line id="Comlab3_1_" fill="none" stroke="#000000" stroke-miterlimit="10" x1="78.4" y1="106.1" x2="75.6" y2="107.9"/>
	<line id="Comlab2_1_" fill="none" stroke="#000000" stroke-miterlimit="10" x1="80" y1="68.6" x2="75.6" y2="72.3"/>
	<line id="KitchenLab_1_" fill="none" stroke="#000000" stroke-miterlimit="10" x1="200.4" y1="77.3" x2="205.5" y2="83.1"/>
	<line id="FBLab_1_" fill="none" stroke="#000000" stroke-miterlimit="10" x1="314.8" y1="77.8" x2="319.4" y2="83.1"/>
	<line id="MaleCR1B_1_" fill="none" stroke="#000000" stroke-miterlimit="10" x1="486.1" y1="63.5" x2="482.5" y2="59.7"/>
	<line id="FemaleCR1B_1_" fill="none" stroke="#000000" stroke-miterlimit="10" x1="479.9" y1="36.2" x2="482.5" y2="40.3"/>
	<line id="SchoolClinic_1_" fill="none" stroke="#000000" stroke-miterlimit="10" x1="512.4" y1="48.2" x2="509.2" y2="51"/>
	<line id="Frontline_1_" fill="none" stroke="#000000" stroke-miterlimit="10" x1="533.1" y1="140.1" x2="527.7" y2="135.2"/>
	<line id="Guidance1_1_" fill="none" stroke="#000000" stroke-miterlimit="10" x1="440.4" y1="140.5" x2="437.2" y2="134.8"/>
	<line id="MockHotel_1_" fill="none" stroke="#000000" stroke-miterlimit="10" x1="323.3" y1="139.3" x2="319.4" y2="134.3"/>
	<line id="Canteen_1_" fill="none" stroke="#000000" stroke-miterlimit="10" x1="272.7" y1="150.7" x2="262.8" y2="134.4"/>
	<line id="EvacArea_2_" fill="none" stroke="#000000" stroke-miterlimit="10" x1="145.8" y1="241.1" x2="152.6" y2="242.9"/>
	<line id="EvacArea_3_" fill="none" stroke="#000000" stroke-miterlimit="10" x1="542.8" y1="222.6" x2="544.7" y2="224.5"/>
	<line id="CanteenCounter_1_" fill="none" stroke="#000000" stroke-miterlimit="10" x1="167.1" y1="138.5" x2="161.3" y2="142.5"/>
	<line id="OldClinic_1_" fill="none" stroke="#000000" stroke-miterlimit="10" x1="12.1" y1="155.6" x2="15.4" y2="159.2"/>
	<line id="Frontline_2_" fill="none" stroke="#000000" stroke-miterlimit="10" x1="543.2" y1="187.6" x2="545.8" y2="190.2"/>
	<line id="FBLab_2_" fill="none" stroke="#000000" stroke-miterlimit="10" x1="420.1" y1="82.5" x2="423.4" y2="79.2"/>
	<line id="KitchenLab_2_" fill="none" stroke="#000000" stroke-miterlimit="10" x1="303.6" y1="79.9" x2="305.2" y2="81.6"/>
	<line id="Comlab1_2_" fill="none" stroke="#000000" stroke-miterlimit="10" x1="44.7" y1="71.2" x2="45.8" y2="72.3"/>
</g>
<g id="Paths">
	<line fill="none" stroke="#000000" stroke-miterlimit="10" x1="19.3" y1="163.3" x2="63.8" y2="163.3"/>
	<line id="PMediaRoom" fill="none" stroke="#000000" stroke-miterlimit="10" x1="63.8" y1="163.3" x2="96.4" y2="163.3"/>
	<line fill="none" stroke="#000000" stroke-miterlimit="10" x1="96.4" y1="163.3" x2="136.1" y2="163.3"/>
	<line fill="none" stroke="#000000" stroke-miterlimit="10" x1="96.4" y1="163.3" x2="96.4" y2="173.6"/>
	<line fill="none" stroke="#000000" stroke-miterlimit="10" x1="63.8" y1="163.3" x2="63.8" y2="136.9"/>
	<line fill="none" stroke="#000000" stroke-miterlimit="10" x1="63.8" y1="136.9" x2="46.5" y2="136.9"/>
	<line id="PC4.PC3" fill="none" stroke="#000000" stroke-miterlimit="10" x1="63.8" y1="136.9" x2="63.8" y2="107.9"/>
	<line fill="none" stroke="#000000" stroke-miterlimit="10" x1="63.8" y1="107.9" x2="75.6" y2="107.9"/>
	<line fill="none" stroke="#000000" stroke-miterlimit="10" x1="63.8" y1="107.9" x2="46.5" y2="107.9"/>
	<line fill="none" stroke="#000000" stroke-miterlimit="10" x1="63.8" y1="107.9" x2="63.8" y2="99.7"/>
	<line fill="none" stroke="#000000" stroke-miterlimit="10" x1="63.8" y1="99.7" x2="46.2" y2="99.7"/>
	<line id="PC1.PC2" fill="none" stroke="#000000" stroke-miterlimit="10" x1="63.8" y1="99.7" x2="63.8" y2="72.3"/>
	<line fill="none" stroke="#000000" stroke-miterlimit="10" x1="63.8" y1="72.3" x2="45.8" y2="72.3"/>
	<line fill="none" stroke="#000000" stroke-miterlimit="10" x1="63.8" y1="72.3" x2="75.6" y2="72.3"/>
	<line fill="none" stroke="#000000" stroke-miterlimit="10" x1="63.8" y1="72.3" x2="63.8" y2="58.6"/>
	<line fill="none" stroke="#000000" stroke-miterlimit="10" x1="63.8" y1="58.6" x2="36.1" y2="58.6"/>
	<line fill="none" stroke="#000000" stroke-miterlimit="10" x1="63.8" y1="58.6" x2="63.8" y2="43.8"/>
	<line fill="none" stroke="#000000" stroke-miterlimit="10" x1="63.8" y1="43.8" x2="113.6" y2="43.8"/>
	<line fill="none" stroke="#000000" stroke-miterlimit="10" x1="113.6" y1="43.8" x2="113.6" y2="27.6"/>
	<line fill="none" stroke="#000000" stroke-miterlimit="10" x1="113.6" y1="27.6" x2="99.3" y2="27.6"/>
	<line fill="none" stroke="#000000" stroke-miterlimit="10" x1="113.6" y1="27.6" x2="124.9" y2="27.6"/>
	<line fill="none" stroke="#000000" stroke-miterlimit="10" x1="113.6" y1="43.8" x2="168" y2="43.8"/>
	<line fill="none" stroke="#000000" stroke-miterlimit="10" x1="168" y1="43.8" x2="168" y2="110.3"/>
	<line fill="none" stroke="#000000" stroke-miterlimit="10" x1="168" y1="110.3" x2="205.5" y2="110.3"/>
	<line fill="none" stroke="#000000" stroke-miterlimit="10" x1="205.5" y1="110.3" x2="205.5" y2="83.1"/>
	<line fill="none" stroke="#000000" stroke-miterlimit="10" x1="205.5" y1="110.3" x2="262.8" y2="110.3"/>
	<line fill="none" stroke="#000000" stroke-miterlimit="10" x1="262.8" y1="110.3" x2="262.8" y2="134.4"/>
	<line id="PKitchen.PCanteen" fill="none" stroke="#000000" stroke-miterlimit="10" x1="262.8" y1="110.3" x2="305.2" y2="110.3"/>
	<line fill="none" stroke="#000000" stroke-miterlimit="10" x1="305.2" y1="110.3" x2="319.4" y2="110.3"/>
	<line fill="none" stroke="#000000" stroke-miterlimit="10" x1="305.2" y1="110.3" x2="305.2" y2="81.6"/>
	<line fill="none" stroke="#000000" stroke-miterlimit="10" x1="319.4" y1="110.3" x2="319.4" y2="83.1"/>
	<line fill="none" stroke="#000000" stroke-miterlimit="10" x1="319.4" y1="110.3" x2="319.4" y2="134.3"/>
	<line id="PMock.PFBLab" fill="none" stroke="#000000" stroke-miterlimit="10" x1="319.4" y1="110.3" x2="420.1" y2="110.3"/>
	<line fill="none" stroke="#000000" stroke-miterlimit="10" x1="420.1" y1="110.3" x2="437.2" y2="110.3"/>
	
		<line id="PAdmin.PMaleCRB1.PFemaleCRB1" fill="none" stroke="#000000" stroke-miterlimit="10" x1="437.2" y1="110.3" x2="498.4" y2="110.3"/>
	<line fill="none" stroke="#000000" stroke-miterlimit="10" x1="498.4" y1="110.3" x2="498.4" y2="51"/>
	<line fill="none" stroke="#000000" stroke-miterlimit="10" x1="498.4" y1="51" x2="482.5" y2="51"/>
	<line fill="none" stroke="#000000" stroke-miterlimit="10" x1="482.5" y1="51" x2="482.5" y2="59.7"/>
	<line fill="none" stroke="#000000" stroke-miterlimit="10" x1="482.5" y1="51" x2="482.5" y2="40.3"/>
	<line fill="none" stroke="#000000" stroke-miterlimit="10" x1="498.4" y1="51" x2="509.2" y2="51"/>
	<line id="PCLinic.PFrontLine" fill="none" stroke="#000000" stroke-miterlimit="10" x1="498.4" y1="110.3" x2="527.7" y2="110.3"/>
	<line fill="none" stroke="#000000" stroke-miterlimit="10" x1="527.7" y1="110.3" x2="556.5" y2="110.3"/>
	<line fill="none" stroke="#000000" stroke-miterlimit="10" x1="527.7" y1="110.3" x2="527.7" y2="135.2"/>
	<line fill="none" stroke="#000000" stroke-miterlimit="10" x1="556.5" y1="110.3" x2="556.5" y2="157.6"/>
	<line fill="none" stroke="#000000" stroke-miterlimit="10" x1="556.5" y1="157.6" x2="603.3" y2="157.6"/>
	<line fill="none" stroke="#000000" stroke-miterlimit="10" x1="603.3" y1="157.6" x2="603.3" y2="181.6"/>
	<line fill="none" stroke="#000000" stroke-miterlimit="10" x1="603.3" y1="181.6" x2="600.2" y2="181.6"/>
	<line fill="none" stroke="#000000" stroke-miterlimit="10" x1="437.2" y1="110.3" x2="437.2" y2="134.8"/>
	<line fill="none" stroke="#000000" stroke-miterlimit="10" x1="420.1" y1="110.3" x2="420.1" y2="82.5"/>
	<line id="PFrontLine" fill="none" stroke="#000000" stroke-miterlimit="10" x1="556.5" y1="157.6" x2="556.5" y2="190.2"/>
	<line fill="none" stroke="#000000" stroke-miterlimit="10" x1="556.5" y1="190.2" x2="545.8" y2="190.2"/>
	<line fill="none" stroke="#000000" stroke-miterlimit="10" x1="556.5" y1="190.2" x2="556.5" y2="224.5"/>
	<line fill="none" stroke="#000000" stroke-miterlimit="10" x1="19.3" y1="163.3" x2="19.3" y2="159.2"/>
	<line fill="none" stroke="#000000" stroke-miterlimit="10" x1="19.3" y1="159.2" x2="15.4" y2="159.2"/>
	<line fill="none" stroke="#000000" stroke-miterlimit="10" x1="19.3" y1="159.2" x2="19.3" y2="150"/>
	<line fill="none" stroke="#000000" stroke-miterlimit="10" x1="19.3" y1="150" x2="23.4" y2="150"/>
	<line fill="none" stroke="#000000" stroke-miterlimit="10" x1="161.3" y1="142.5" x2="136.1" y2="142.5"/>
	<line fill="none" stroke="#000000" stroke-miterlimit="10" x1="136.1" y1="142.5" x2="136.1" y2="163.3"/>
	<line fill="none" stroke="#000000" stroke-miterlimit="10" x1="168" y1="110.3" x2="136.1" y2="110.3"/>
	<line fill="none" stroke="#000000" stroke-miterlimit="10" x1="136.1" y1="110.3" x2="136.1" y2="142.5"/>
	<line fill="none" stroke="#000000" stroke-miterlimit="10" x1="136.1" y1="163.3" x2="136.1" y2="241.1"/>
	<line fill="none" stroke="#000000" stroke-miterlimit="10" x1="136.1" y1="241.1" x2="145.8" y2="241.1"/>
	<line fill="none" stroke="#000000" stroke-miterlimit="10" x1="556.5" y1="224.5" x2="544.7" y2="224.5"/>
</g>
<g id="Portals">
	<line id="Stair.1.floor2" fill="none" stroke="#000000" stroke-miterlimit="10" x1="25" y1="149.3" x2="23.4" y2="150"/>
	<line id="Stair.2.floor2" fill="none" stroke="#000000" stroke-miterlimit="10" x1="97.6" y1="25.9" x2="99.3" y2="27.6"/>
	<line id="Stair.3.floor2" fill="none" stroke="#000000" stroke-miterlimit="10" x1="127.1" y1="26.3" x2="124.9" y2="27.6"/>
	<line id="Stair.4.floor2" fill="none" stroke="#000000" stroke-miterlimit="10" x1="598.1" y1="179.8" x2="600.2" y2="181.6"/>
</g>
<g id="RoomNames">
	<text transform="matrix(1 0 0 1 16.6494 217.1592)" font-family="'ArialMT'" font-size="6.6119px">SEVEN ELEVEN</text>
	<text transform="matrix(1 0 0 1 9.959 124.5918)" font-family="'ArialMT'" font-size="6.6119px">COMLAB 4</text>
	<text transform="matrix(1 0 0 1 9.959 87.6006)" font-family="'ArialMT'" font-size="6.6119px">COMLAB 1</text>
	<text transform="matrix(1 0 0 1 78.3516 126.3667)" font-family="'ArialMT'" font-size="6.6119px">COMLAB 3</text>
	<text transform="matrix(1 0 0 1 79.5889 210.6816)" font-family="'ArialMT'" font-size="4.5996px">MEDIA ROOM</text>
	<text transform="matrix(1 0 0 1 80.249 87.6006)" font-family="'ArialMT'" font-size="6.6119px">COMLAB 2</text>
	<text transform="matrix(1 0 0 1 9.959 43.7969)" font-family="'ArialMT'" font-size="4.0574px">MALE CR</text>
	<text transform="matrix(1 0 0 1 7.6943 26.9497)" font-family="'ArialMT'" font-size="4.1109px">FEMALE CR</text>
	<text transform="matrix(1 0 0 1 234.1699 50.4307)" font-family="'ArialMT'" font-size="6.6119px">KITCHEN LAB</text>
	<text transform="matrix(1 0 0 1 239.2197 169.8545)" font-family="'ArialMT'" font-size="6.6119px">CANTEEN</text>
	<text transform="matrix(1 0 0 1 354.25 172.3545)" font-family="'ArialMT'" font-size="6.6119px">MOCK HOTEL</text>
	<text transform="matrix(1 0 0 1 446.6934 182.2783)" font-family="'ArialMT'" font-size="6.6119px">ADMINISTRATION</text>
	<text transform="matrix(1 0 0 1 507.8359 168.9209)" font-family="'ArialMT'" font-size="6.6119px">FRONTLINE</text>
	<text transform="matrix(1 0 0 1 359.0107 49.8135)" font-family="'ArialMT'" font-size="6.6119px">F &amp; B LAB</text>
	<text transform="matrix(1 0 0 1 442.8232 72.2607)" font-family="'ArialMT'" font-size="6.6119px">MALE CR</text>
	<text transform="matrix(1 0 0 1 440.4131 36.4961)" font-family="'ArialMT'" font-size="6.6119px">FEMALE CR</text>
	<text transform="matrix(1 0 0 1 513.0527 66.2837)" font-family="'ArialMT'" font-size="6.6119px">SCHOOL</text>
	<text transform="matrix(1 0 0 1 513.0527 73.3188)" font-family="'ArialMT'" font-size="6.6119px">CLINIC</text>
	<text transform="matrix(1 0 0 1 12.0947 57.561)" font-family="'ArialMT'" font-size="4.6283px">UTILITY</text>
	<text transform="matrix(1 0 0 1 12.0947 57.561)" fill="none" stroke="#FFFFFF" font-family="'ArialMT'" font-size="4.6283px">UTILITY</text>
	<text transform="matrix(1 0 0 1 12.0947 62.9829)" font-family="'ArialMT'" font-size="4.6283px">ROOM 1</text>
	<text transform="matrix(1 0 0 1 12.0947 62.9829)" fill="none" stroke="#FFFFFF" font-family="'ArialMT'" font-size="4.6283px">ROOM 1</text>
	<text transform="matrix(1 0 0 1 272.7422 242.7236)" font-family="'ArialMT'" font-size="17.448px">EVACTUATION AREA</text>
</g>
</svg>
