<?xml version="1.0" encoding="utf-8"?>
<!-- Generator: Adobe Illustrator 22.0.0, SVG Export Plug-In . SVG Version: 6.00 Build 0)  -->
<svg version="1.1" id="Layer_1" xmlns="http://www.w3.org/2000/svg" xmlns:xlink="http://www.w3.org/1999/xlink" x="0px" y="0px"
	 viewBox="0 0 4628 1977" enable-background="new 0 0 4628 1977" xml:space="preserve" height="100%" width="100%">
<g id="Base">
	<polyline fill="none" stroke="#000000" stroke-width="5" stroke-miterlimit="10" points="338.6,733.1 338.6,691 338.6,713.1 
		19.9,713.1 19.9,681 19.9,742.4 19.9,971.9 	"/>
	<polyline fill="none" stroke="#000000" stroke-width="5" stroke-miterlimit="10" points="19.6,681 19.6,452.4 19.6,420.6 
		339.1,420.6 339.1,426.1 339.1,420.6 19.6,420.6 19.6,319.5 259,319.5 259,340.3 259,307.7 259,319.5 19.6,319.5 19.6,181.3 
		259.2,181.3 259.2,231.2 259.2,136.5 259.2,181.3 19.6,181.3 19.6,48.5 259.3,48.5 259.3,61.3 259.3,48.5 286.7,48.5 459.5,48.9 
		1253.8,48.9 1446,49.3 1555,49.3 1483,49.3 1483,562 1500.5,562 	"/>
	<line fill="none" stroke="#000000" stroke-width="5" stroke-miterlimit="10" x1="338.5" y1="942.5" x2="338.5" y2="787"/>
	<polyline fill="none" stroke="#000000" stroke-width="5" stroke-miterlimit="10" points="551.3,1404.8 551.3,1409.8 521.8,1409.8 
		870.3,1409.8 870.3,1359.6 870.3,1444 870.4,1805.6 870.4,1829.8 858.6,1829.8 568.7,1829.3 551.5,1829.3 551.5,1909.3 519,1909.3 
		35.3,1909.6 19.9,1909.6 19.9,1271.1 99.5,1271.1 99.5,1168.3 99.5,1271.1 338.6,1271.1 338.6,1410 371.4,1410 338.6,1410 
		338.6,1271.1 19.9,1271.1 19.9,971.9 19.9,1005.6 99.8,1005.6 99.8,1114.1 99.8,1005.6 338.5,1005.6 338.5,995.8 	"/>
	<line fill="none" stroke="#000000" stroke-width="5" stroke-miterlimit="10" x1="551.5" y1="1351" x2="551.5" y2="1069.6"/>
	<line fill="none" stroke="#000000" stroke-width="5" stroke-miterlimit="10" x1="551.5" y1="1016.3" x2="551.5" y2="995.8"/>
	<line fill="none" stroke="#000000" stroke-width="5" stroke-miterlimit="10" x1="551.4" y1="942.5" x2="551.4" y2="771.4"/>
	<polyline fill="none" stroke="#000000" stroke-width="5" stroke-miterlimit="10" points="551.6,718.6 551.6,705.2 551.6,713.3 
		870.3,713.3 870.3,679 870.3,742.8 	"/>
	<polyline fill="none" stroke="#000000" stroke-width="5" stroke-miterlimit="10" points="551.4,425.9 551.4,405.1 551.4,421 
		870.4,421 870.4,449.8 870.3,679 870.3,1359.6 	"/>
	<polyline fill="none" stroke="#000000" stroke-width="5" stroke-miterlimit="10" points="551.3,405.1 551.3,335.8 551.3,319.8 
		1228.8,319.8 1228.8,610.3 1228.5,898.6 1228.5,1022.1 1238,1022.1 1228.5,1022.1 1228.5,1459.5 1526.6,1459.5 1482.3,1459.5 
		1482.3,947 1482.3,1022.4 1315.8,1022.4 1350.1,1022.4 1350.1,947.1 1356.9,947.1 	"/>
	<polyline fill="none" stroke="#000000" stroke-width="5" stroke-miterlimit="10" points="1925.5,562.3 1892.7,562.3 1908.3,562.3 
		1908.3,49.3 1975.3,49.3 1870,49.3 1555,49.3 	"/>
	<polyline fill="none" stroke="#000000" stroke-width="5" stroke-miterlimit="10" points="2290.3,49.3 2417.7,49.3 2356.7,49.3 
		2356.7,562.3 2341.7,562.3 2374,562.3 	"/>
	<polyline fill="none" stroke="#000000" stroke-width="5" stroke-miterlimit="10" points="2790,562 2822.8,562 2805.8,562 
		2805.8,49.2 2859.5,49.2 2732.7,49.2 	"/>
	<polyline fill="none" stroke="#000000" stroke-width="5" stroke-miterlimit="10" points="3238.3,562.2 3272,562.2 3254.2,562.2 
		3254.2,49 3174.7,49 3314.8,49 	"/>
	<polyline fill="none" stroke="#000000" stroke-width="5" stroke-miterlimit="10" points="3687,562.2 4023.5,562.2 4023.5,382.8 
		4016.3,382.8 	"/>
	<polyline fill="none" stroke="#000000" stroke-width="5" stroke-miterlimit="10" points="3702.5,562.2 3702.5,306.3 3920.3,306.3 
		3920.3,382.8 3952,382.8 3920.3,382.8 3920.3,241.3 3949,241.3 3920.3,241.3 3920.3,306.3 3702.5,306.3 3702.5,48.8 3629.5,48.8 
		4024,48.8 4024,241.6 4014.4,241.6 4024,241.6 4024,48.8 4051.7,48.8 	"/>
	<polyline fill="none" stroke="#000000" stroke-width="5" stroke-miterlimit="10" points="4132,48.8 4151.8,48.8 4151.8,562.2 
		4168.5,562.2 4151.8,562.2 4151.8,48.8 4209.8,118 	"/>
	<polyline fill="none" stroke="#000000" stroke-width="5" stroke-miterlimit="10" points="4569.7,528.5 4599.5,562.2 4256.2,562.2 
		4327,562.2 4327,649.7 4327,562.2 4599.5,562.2 4602.8,565.5 4602.8,733.5 	"/>
	<polyline fill="none" stroke="#000000" stroke-width="5" stroke-miterlimit="10" points="4602.1,918.4 4602.1,946.3 4327.1,946.3 
		4327.1,736.9 	"/>
	<polyline fill="none" stroke="#000000" stroke-width="5" stroke-miterlimit="10" points="4608.3,1414 4608.3,1459.3 4328.3,1459.3 
		4191.3,1460.2 4091.3,1460.2 4152.2,1460.2 4152.2,946.3 4136.3,946.3 	"/>
	<line fill="none" stroke="#000000" stroke-width="5" stroke-miterlimit="10" x1="4048.7" y1="946.8" x2="3825.5" y2="946.8"/>
	<polyline fill="none" stroke="#000000" stroke-width="5" stroke-miterlimit="10" points="3737.8,946.8 3656.3,946.8 3702.7,946.8 
		3702.7,1459.8 3776.7,1459.8 3629.7,1459.8 3315.3,1459.8 	"/>
	<line fill="none" stroke="#000000" stroke-width="5" stroke-miterlimit="10" x1="3569.5" y1="947.1" x2="3358.7" y2="947.1"/>
	<polyline fill="none" stroke="#000000" stroke-width="5" stroke-miterlimit="10" points="3271.4,947.1 3238.3,947.1 3254.1,947.1 
		3254.1,1459.4 3315.3,1459.4 3167.5,1459.4 2852.7,1459.2 	"/>
	<line fill="none" stroke="#000000" stroke-width="5" stroke-miterlimit="10" x1="3151" y1="947.1" x2="2909" y2="947.1"/>
	<polyline fill="none" stroke="#000000" stroke-width="5" stroke-miterlimit="10" points="2341.8,947 2374,947 2356.5,947 
		2356.5,1459.8 2283.3,1459.8 2410.8,1459.8 2726.3,1459.2 2852.7,1459.2 2805.7,1459.2 2805.7,947.1 2790,947.1 2823.2,947.1 	"/>
	<line fill="none" stroke="#000000" stroke-width="5" stroke-miterlimit="10" x1="2461.5" y1="946.7" x2="2702.2" y2="946.7"/>
	<line fill="none" stroke="#000000" stroke-width="5" stroke-miterlimit="10" x1="2254.3" y1="947" x2="2013.3" y2="947"/>
	<line fill="none" stroke="#000000" stroke-width="5" stroke-miterlimit="10" x1="1805" y1="947" x2="1589" y2="947"/>
	<polyline fill="none" stroke="#000000" stroke-width="5" stroke-miterlimit="10" points="1975.3,49.3 2290.3,49.3 2732.7,49.3 
		4151.8,49.3 4573.8,533.2 	"/>
	<g id="Stairs">
		<rect x="154" y="1018.3" fill="none" stroke="#000000" stroke-miterlimit="10" width="161.3" height="238"/>
		<polyline fill="none" stroke="#000000" stroke-miterlimit="10" points="300.5,1018.3 300.5,1256.3 285.5,1256.3 285.5,1018.3 
			270.5,1018.3 270.5,1256.3 255,1256.3 255,1018.3 241.5,1018.3 241.5,1256.3 227,1256.3 227,1018.3 213.5,1018.3 213.5,1256.3 
			198,1256.3 198,1018.3 183.5,1018.3 183.5,1256.3 169.5,1256.3 169.5,1018.3 		"/>
		<path fill="none" stroke="#000000" stroke-miterlimit="10" d="M141.3,1253l-3,2.5c0,0-6.5-0.5,1.5-5.7h201.8l3.8,2.8
			c0,0,0.5,6.7-4.5,0L141.3,1253z"/>
		<path fill="none" stroke="#000000" stroke-miterlimit="10" d="M128.8,1021.4l-2.8-3c0,0-6.5-0.3,1.4,5.7h202.3l3.9-3.9
			c0,0,0.4-6.3-4.4,1.1L128.8,1021.4z"/>
		<rect x="146.7" y="1130" fill="none" stroke="#000000" stroke-miterlimit="10" width="176" height="14"/>
		<rect x="144.3" y="1126.5" fill="none" stroke="#000000" stroke-miterlimit="10" width="181.3" height="20.8"/>
		<rect x="580.5" y="67" fill="none" stroke="#000000" stroke-miterlimit="10" width="160.5" height="237.5"/>
		<polyline fill="none" stroke="#000000" stroke-miterlimit="10" points="725.5,67 725.5,304.5 712,304.5 712,67 696.5,67 
			696.5,304.5 681,304.5 681,67 668,67 668,304.5 651.5,304.5 651.5,67 637.5,67 637.5,304.5 622.5,304.5 622.5,67 609.5,67 
			609.5,304.5 594.5,304.5 594.5,67 		"/>
		<path fill="none" stroke="#000000" stroke-miterlimit="10" d="M565.4,73l-3.8-4c0,0,0-4.8,4.6,0.9h200l2.5-2.7
			c0,0,7.1-0.8-1.3,5.9h-202V73z"/>
		<path fill="none" stroke="#000000" stroke-miterlimit="10" d="M553.9,301.4l-2.9,3.1c0,0-5.9-2.3,2.3-6h201.3l4.1,3
			c0,0,0.6,7.9-4.1,0L553.9,301.4z"/>
		<rect x="946" y="52" fill="none" stroke="#000000" stroke-miterlimit="10" width="253.5" height="257"/>
		<polyline fill="none" stroke="#000000" stroke-miterlimit="10" points="1183,52 1183,309 1165.5,309 1165.5,52 1149,52 1149,309 
			1132,309 1132,52 1116,52 1116,309 1099,309 1099,52 1082,52 1082,309 1065,309 1065,52 1047.5,52 1047.5,309 1031,309 1031,52 
			1014,52 1014,309 996,309 996,52 979,52 979,309 962.5,309 962.5,52 		"/>
		<path fill="none" stroke="#000000" stroke-miterlimit="10" d="M928.5,302.5l-5.3,3.8c0,0-1.3,6.3,5.3,0h303l3,2.8
			c0,0,7.3-1.3-2.3-6.5L928.5,302.5L928.5,302.5z"/>
		<rect x="937.3" y="173" fill="none" stroke="#000000" stroke-miterlimit="10" width="271.7" height="16.3"/>
		<rect x="932.7" y="168.2" fill="none" stroke="#000000" stroke-miterlimit="10" width="280" height="25.2"/>
		<path fill="none" stroke="#000000" stroke-miterlimit="10" d="M914.9,55.4l-3-3.4c0,0-9.5-1.6,1.5,7.9h304.8l4-4.9
			c0,0,0.3-8-4.5,0.2L914.9,55.4z"/>
		<rect x="4371.3" y="998.3" fill="none" stroke="#000000" stroke-miterlimit="10" width="192.7" height="415.7"/>
		<polyline fill="none" stroke="#000000" stroke-miterlimit="10" points="4544.7,998.3 4544.7,1414 4528,1414 4528,998.3 
			4511.3,998.3 4511.3,1414 4493.3,1414 4493.3,998.3 4476,998.3 4476,1414 4458,1414 4458,998.3 4442,998.3 4442,1414 4422,1414 
			4422,998.3 4408,998.3 4408,1414 4388,1414 4388,998.3 		"/>
		<path fill="none" stroke="#000000" stroke-miterlimit="10" d="M4354,1406.8l-4.9,4.8c0,0,0.1,6.7,5.8-0.8h239.5l3.3,3.2
			c0,0,7.8-0.5-2.4-7.3H4354V1406.8z"/>
		<rect x="4362.8" y="1197.5" fill="none" stroke="#000000" stroke-miterlimit="10" width="209.8" height="16.7"/>
		<rect x="4359.2" y="1194.5" fill="none" stroke="#000000" stroke-miterlimit="10" width="217.2" height="23"/>
		<path fill="none" stroke="#000000" stroke-miterlimit="10" d="M4340,1001.5l-3.1-2.6c0,0-6.4-1.9,1.6,7.1h242.4l5.4-5.4
			c0,0-0.3-6.9-6.8,1.2L4340,1001.5z"/>
		<rect x="573" y="180" fill="none" stroke="#000000" stroke-miterlimit="10" width="174.7" height="13"/>
		<rect x="569.7" y="175.5" fill="none" stroke="#000000" stroke-miterlimit="10" width="182" height="21"/>
	</g>
	<line fill="none" stroke="#000000" stroke-miterlimit="10" x1="4602.1" y1="920.3" x2="4602.8" y2="729.3"/>
	<rect x="334.3" y="480" width="4.9" height="161.7"/>
	<rect x="551.6" y="475.5" width="3.9" height="180.5"/>
	<rect x="1430" y="943.5" width="78" height="3.5"/>
	<path fill="none" stroke="#000000" stroke-width="5" stroke-miterlimit="10" d="M1526.6,1459.5"/>
	<polyline fill="none" stroke="#000000" stroke-width="5" stroke-miterlimit="10" points="1526.6,1459.5 1841.7,1459.7 1968,1459.7 
		1908.8,1459.7 1908.8,947 1893,947 1924.7,947 	"/>
	<line fill="none" stroke="#000000" stroke-width="5" stroke-miterlimit="10" x1="4091.3" y1="1460.2" x2="3776.7" y2="1459.8"/>
	<rect x="1968" y="1457.3" width="315.3" height="4.9"/>
	<rect x="255.2" y="392.2" width="5.4" height="28.5"/>
	<rect x="4602.1" y="946.3" width="4.5" height="47.8"/>
	<rect x="3354.7" y="558.3" width="250" height="7.3"/>
	<rect x="2908" y="558.3" width="248.5" height="7.3"/>
	<rect x="2458.7" y="558.7" width="248.5" height="7.3"/>
	<rect x="2009.2" y="558.7" width="248.5" height="7.3"/>
	<rect x="1587.7" y="558.7" width="223" height="7.3"/>
</g>
<g id="Rooms">
	<a id="Library" xlink:href="#myMaps" >
		<g>
			<polygon fill="#FFFFFF" points="22.9,1274.5 335.3,1274.5 335.3,1413.5 866,1413.5 866,1826.8 548,1826.8 548,1906.5 
				22.9,1906.5 			"/>
			<path fill="none" stroke="#000000" stroke-miterlimit="10" d="M518,1413.5v130.2c0,0-146.6-21-146.6-130.2"/>
		</g>
	</a>
	<a id="OldAcadOffice" xlink:href="#myMaps" >
		<g>
			<rect x="23.2" y="1009" fill="#FFFFFF" width="73" height="259.2"/>
			<path fill="none" stroke="#000000" stroke-miterlimit="10" d="M96.2,1117.3H47c0,0,17.8,43.8,49.2,45.8"/>
		</g>
	</a>
	<a id="RM205A" xlink:href="#myMaps" >
		<g>
			<rect x="24.2" y="717" fill="#FFFFFF" width="310.1" height="283.5"/>
			<path fill="none" stroke="#000000" stroke-miterlimit="10" d="M334.3,991.3h-43.8c0,0,0.8-46.8,43.8-44.8"/>
			<path fill="none" stroke="#000000" stroke-miterlimit="10" d="M334.3,738.5h-43.8c0,0,1,43.2,43.8,45.3"/>
		</g>
	</a>
	<a id="RM206A" xlink:href="#myMaps" >
		<g>
			<rect x="23.3" y="425" fill="#FFFFFF" width="310.9" height="284.3"/>
			<path fill="none" stroke="#000000" stroke-miterlimit="10" d="M334.3,685.8h-43.8c0,0-2.8-44.8,43.8-44"/>
			<path fill="none" stroke="#000000" stroke-miterlimit="10" d="M334.3,430.8h-43.8c0,0,2.7,44.1,43.8,45.4"/>
		</g>
	</a>
	<a id="UtilityRoom2" xlink:href="#myMaps" >
		<g>
			<rect x="23.3" y="323.3" fill="#FFFFFF" width="231" height="93"/>
			<path fill="none" stroke="#000000" stroke-miterlimit="10" d="M254.3,344.2h-49.7c0,0,3.7,42.5,49.7,48"/>
		</g>
	</a>
	<a id="MaleCR2A" xlink:href="#myMaps" >
		<g>
			<rect x="23.3" y="185.3" fill="#FFFFFF" width="231" height="130.3"/>
		</g>
	</a>
	<a id="FemaleCR2A" xlink:href="#myMaps" >
		<g>
			<rect x="23.3" y="53.5" fill="#FFFFFF" width="231" height="124"/>
		</g>
	</a>
	<a id="TechLab" xlink:href="#myMaps" >
		<g>
			<rect x="555.5" y="717" fill="#FFFFFF" width="310.5" height="688"/>
			<path fill="none" stroke="#000000" stroke-miterlimit="10" d="M555.5,1401.8h58.2c0,0-7.7-48.5-58.2-47.1"/>
			<path fill="none" stroke="#000000" stroke-miterlimit="10" d="M555.5,1020.3H599c0,0-8,47-43.5,45.3"/>
			<path fill="none" stroke="#000000" stroke-miterlimit="10" d="M555.5,991.3H599c0,0-1.3-44.7-43.5-45.3"/>
			<path fill="none" stroke="#000000" stroke-miterlimit="10" d="M555.5,723H599c0,0,1.8,46-43.5,45.5"/>
		</g>
	</a>
	<a id="RM204A" xlink:href="#myMaps" >
		<g>
			<rect x="555.5" y="425" fill="#FFFFFF" width="310.5" height="284.3"/>
			<path fill="none" stroke="#000000" stroke-miterlimit="10" d="M555.5,700.8H599c0,0,0.2-39.5-43.5-44.8"/>
			<path fill="none" stroke="#000000" stroke-miterlimit="10" d="M555.5,431.7H599c0,0-4.5,45.6-43.5,43.8"/>
		</g>
	</a>
	<a id="Bookstore" xlink:href="#myMaps" >
		<g>
			<rect x="1234.5" y="1030.1" fill="#FFFFFF" width="245.5" height="420"/>
			<path fill="none" stroke="#000000" stroke-miterlimit="10" d="M1245.5,1030.1v69.9c0,0,61.5-8.3,66-69.9"/>
		</g>
	</a>
	<a id="BesideBookstore" xlink:href="#myMaps" >
		<g>
			<rect x="1353.5" y="951" fill="#FFFFFF" width="124.7" height="67.2"/>
			<path fill="none" stroke="#000000" stroke-miterlimit="10" d="M1362.5,951v47c0,0,66,5.5,67.5-47"/>
		</g>
	</a>
	<a id="RM211B" xlink:href="#myMaps" >
		<g>
			<rect x="1488" y="951" fill="#FFFFFF" width="415.3" height="499.1"/>
			<path fill="none" stroke="#000000" stroke-miterlimit="10" d="M1508,951v77c0,0,76-14,76.5-77"/>
			<path fill="none" stroke="#000000" stroke-miterlimit="10" d="M1888,951v77c0,0-81-10.3-77.3-77"/>
		</g>
	</a>
	<a id="RM210B" xlink:href="#myMaps" >
		<g>
			<rect x="1488.7" y="55" fill="#FFFFFF" width="412.7" height="503.3"/>
			<path fill="none" stroke="#000000" stroke-miterlimit="10" d="M1886.7,558.3v-77.7c0,0-77.3,5-76,77.7"/>
			<path fill="none" stroke="#000000" stroke-miterlimit="10" d="M1508,558.3v-77.7c0,0,81.3,5.7,79.7,77.7"/>
		</g>
	</a>
	<a id="RM209B" xlink:href="#myMaps" >
		<g>
			<rect x="1918.3" y="951" fill="#FFFFFF" width="431" height="499.1"/>
			<path fill="none" stroke="#000000" stroke-miterlimit="10" d="M1932,951v77c0,0,81.7-4.3,77.7-77"/>
			<path fill="none" stroke="#000000" stroke-miterlimit="10" d="M2335.3,951v77c0,0-78,0.3-78-77"/>
		</g>
	</a>
	<a id="RM208B" xlink:href="#myMaps" >
		<g>
			<rect x="1917" y="55" fill="#FFFFFF" width="433" height="503.3"/>
			<path fill="none" stroke="#000000" stroke-miterlimit="10" d="M2334.7,558.3v-77.7c0,0-76.8,18.7-76.8,76.8"/>
			<path fill="none" stroke="#000000" stroke-miterlimit="10" d="M1930.7,558.3v-77.7c0,0,79.3,16.3,78,77.7"/>
		</g>
	</a>
	<a id="RM207B" xlink:href="#myMaps" >
		<g>
			<rect x="2363" y="951" fill="#FFFFFF" width="437" height="503"/>
			<path fill="none" stroke="#000000" stroke-miterlimit="10" d="M2381,951v77c0,0,80.7-4.3,77.3-77"/>
			<path fill="none" stroke="#000000" stroke-miterlimit="10" d="M2784,951v77c0,0-76-4.3-77.3-77"/>
		</g>
	</a>
	<a id="RM206B" xlink:href="#myMaps" >
		<g>
			<rect x="2365" y="55" fill="#FFFFFF" width="431.1" height="503.3"/>
			<path fill="none" stroke="#000000" stroke-miterlimit="10" d="M2785.3,558.3v-77.7c0,0-80,10.3-77.3,77.7"/>
			<path fill="none" stroke="#000000" stroke-miterlimit="10" d="M2380,558.3v-77.7c0,0,81.3,12.3,78.7,77.7"/>
		</g>
	</a>
	<a id="RM205B" xlink:href="#myMaps" >
		<g>
			<rect x="2811.3" y="951" fill="#FFFFFF" width="437.8" height="503"/>
			<path fill="none" stroke="#000000" stroke-miterlimit="10" d="M2830.7,951v77c0,0,77.3-7,78.3-77"/>
			<path fill="none" stroke="#000000" stroke-miterlimit="10" d="M3232,951v77c0,0-78.7-7.7-75.3-77"/>
		</g>
	</a>
	<a id="RM204B" xlink:href="#myMaps" >
		<g>
			<rect x="2812.7" y="55" fill="#FFFFFF" width="438.7" height="503.3"/>
			<path fill="none" stroke="#000000" stroke-miterlimit="10" d="M3232.7,558.3v-77.7c0,0-79.3,10.3-76,77.7"/>
			<path fill="none" stroke="#000000" stroke-miterlimit="10" d="M2828.7,558.3v-77.7c0,0,78,11,78.7,77.7"/>
		</g>
	</a>
	<a id="RM203B" xlink:href="#myMaps" >
		<g>
			<rect x="3259.3" y="951" fill="#FFFFFF" width="438" height="503"/>
			<path fill="none" stroke="#000000" stroke-miterlimit="10" d="M3278.7,951v77c0,0,75.3-16.3,76-77"/>
			<path fill="none" stroke="#000000" stroke-miterlimit="10" d="M3650,951v79.3c0,0-75.3-5.3-76-79.3"/>
		</g>
	</a>
	<a id="RM202B" xlink:href="#myMaps" >
		<g>
			<rect x="3263" y="55" fill="#FFFFFF" width="432" height="503.3"/>
			<path fill="none" stroke="#000000" stroke-miterlimit="10" d="M3682.3,558.3v-77.7c0,0-75.3,22.7-77.7,77.7"/>
			<path fill="none" stroke="#000000" stroke-miterlimit="10" d="M3274.6,558.3v-77.7c0,0,82.1,12.3,80.1,77.7"/>
		</g>
	</a>
	<a id="RM201B" xlink:href="#myMaps" >
		<g>
			<rect x="3707.7" y="951" fill="#FFFFFF" width="439.3" height="503"/>
			<path fill="none" stroke="#000000" stroke-miterlimit="10" d="M3744,951v79.3c0,0,77.5-9.3,77-79.3"/>
			<path fill="none" stroke="#000000" stroke-miterlimit="10" d="M4128,951v79.3c0,0-80-16.8-77.5-79.3"/>
		</g>
	</a>
	<a id="Guidance2" xlink:href="#myMaps" >
		<g>
			<rect x="4331.5" y="567" fill="#FFFFFF" width="266.5" height="374.5"/>
			<path fill="none" stroke="#000000" stroke-miterlimit="10" d="M4331.5,733.5h92.5c0,0-9.5-86-92.5-82.5"/>
		</g>
	</a>
	<a id="TestingRoom" xlink:href="#myMaps" >
		<g>
			<polygon fill="#FFFFFF" points="4156.5,63.5 4156.5,558 4591.7,558 			"/>
			<path fill="none" stroke="#000000" stroke-miterlimit="10" d="M4176,558v-74.5c0,0,77.5,13,77,74.5"/>
		</g>
	</a>
	<a id="TestingRoom_1_" xlink:href="#myMaps" >
		<g>
			<polygon id="MaleCR2B" fill="#FFFFFF" points="3706.5,310.5 3916,310.5 3916,388.5 4020,388.5 4020,558.3 3706.5,558.3 			"/>
			<path fill="none" stroke="#000000" stroke-miterlimit="10" d="M4012,388.5V444c0,0-57,2.5-58-55.5"/>
		</g>
	</a>
	<a id="FemaleCR2B" xlink:href="#myMaps" >
		<g>
			<polygon fill="#FFFFFF" points="3916,301.8 3706.5,301.8 3706.5,52.5 4020.3,52.5 4020.3,237.3 3916,237.3 			"/>
			<path fill="none" stroke="#000000" stroke-miterlimit="10" d="M4012,237.3v-60.1c0,0-53.5-4.1-58,60.1"/>
		</g>
	</a>
</g>
<g id="Doors">
	<line id="Library_1_" fill="none" stroke="#000000" stroke-miterlimit="10" x1="518" y1="1495" x2="451.5" y2="1413.7"/>
	<line id="TechLab_1_" fill="none" stroke="#000000" stroke-miterlimit="10" x1="588.5" y1="1401.8" x2="555.5" y2="1378.2"/>
	<line id="TechLab_2_" fill="none" stroke="#000000" stroke-miterlimit="10" x1="582" y1="1055.2" x2="556.3" y2="1043"/>
	<line id="TechLab_3_" fill="none" stroke="#000000" stroke-miterlimit="10" x1="581.3" y1="991.3" x2="555.9" y2="968.9"/>
	<line id="TechLab_4_" fill="none" stroke="#000000" stroke-miterlimit="10" x1="568.8" y1="767.1" x2="557.4" y2="753.9"/>
	<line id="RM204A_1_" fill="none" stroke="#000000" stroke-miterlimit="10" x1="582.3" y1="700.8" x2="557.2" y2="670.4"/>
	<line id="RM204A_2_" fill="none" stroke="#000000" stroke-miterlimit="10" x1="578.7" y1="469.4" x2="556.4" y2="453.6"/>
	<line id="RM205A_1_" fill="none" stroke="#000000" stroke-miterlimit="10" x1="309.8" y1="952.3" x2="334.3" y2="968.9"/>
	<line id="RM205A_2_" fill="none" stroke="#000000" stroke-miterlimit="10" x1="308.6" y1="738.5" x2="334.3" y2="754"/>
	<line id="RM206A_1_" fill="none" stroke="#000000" stroke-miterlimit="10" x1="307.7" y1="648.4" x2="333.3" y2="670.5"/>
	<line id="RM206A_2_" fill="none" stroke="#000000" stroke-miterlimit="10" x1="313.2" y1="430.8" x2="332.6" y2="453.5"/>
	<line id="UtilityRoom2_1_" fill="none" stroke="#000000" stroke-miterlimit="10" x1="226.8" y1="344.2" x2="254" y2="369.8"/>
	<line id="Bookstore_1_" fill="none" stroke="#000000" stroke-miterlimit="10" x1="1245.5" y1="1071" x2="1274.8" y2="1030.8"/>
	
		<line id="BesideBookstore_1_" fill="none" stroke="#000000" stroke-miterlimit="10" x1="1362.5" y1="977.7" x2="1396.1" y2="952.1"/>
	<line id="RM211B_1_" fill="none" stroke="#000000" stroke-miterlimit="10" x1="1508" y1="1003.8" x2="1546.1" y2="953.1"/>
	<line id="RM211B_2_" fill="none" stroke="#000000" stroke-miterlimit="10" x1="1825.2" y1="996.3" x2="1853.1" y2="952.5"/>
	<line id="RM210B_1_" fill="none" stroke="#000000" stroke-miterlimit="10" x1="1569.6" y1="508.1" x2="1546.1" y2="556.3"/>
	<line id="RM210B_2_" fill="none" stroke="#000000" stroke-miterlimit="10" x1="1886.7" y1="516.5" x2="1853.1" y2="556.7"/>
	<line id="RM209B_1_" fill="none" stroke="#000000" stroke-miterlimit="10" x1="1932" y1="1000.5" x2="1969.5" y2="952.1"/>
	<line id="RM209B_2_" fill="none" stroke="#000000" stroke-miterlimit="10" x1="2272" y1="999" x2="2305.1" y2="952.4"/>
	<line id="RM208B_1_" fill="none" stroke="#000000" stroke-miterlimit="10" x1="1991.6" y1="513.7" x2="1969.5" y2="558.3"/>
	<line id="RM208B_2_" fill="none" stroke="#000000" stroke-miterlimit="10" x1="2334.7" y1="511.5" x2="2305.1" y2="556.7"/>
	<line id="RM207B_1_" fill="none" stroke="#000000" stroke-miterlimit="10" x1="2381" y1="999" x2="2431.1" y2="951.9"/>
	<line id="RM207B_2_" fill="none" stroke="#000000" stroke-miterlimit="10" x1="2717.3" y1="990.6" x2="2743.1" y2="951.8"/>
	<line id="RM206B_1_" fill="none" stroke="#000000" stroke-miterlimit="10" x1="2446.3" y1="517" x2="2431.1" y2="557.4"/>
	<line id="RM206B_2_" fill="none" stroke="#000000" stroke-miterlimit="10" x1="2785.3" y1="515" x2="2743.3" y2="558.3"/>
	<line id="RM205B_1_" fill="none" stroke="#000000" stroke-miterlimit="10" x1="2893" y1="996.9" x2="2867.8" y2="952.4"/>
	<line id="RM205B_2_" fill="none" stroke="#000000" stroke-miterlimit="10" x1="3232" y1="990.9" x2="3197.8" y2="951.4"/>
	<line id="RM204B_2_" fill="none" stroke="#000000" stroke-miterlimit="10" x1="2892.4" y1="515" x2="2867.8" y2="557.9"/>
	<line id="RM204B_1_" fill="none" stroke="#000000" stroke-miterlimit="10" x1="3232.7" y1="509.7" x2="3197.8" y2="557.6"/>
	<line id="RM203B_2_" fill="none" stroke="#000000" stroke-miterlimit="10" x1="3340.8" y1="990.9" x2="3314.4" y2="951.8"/>
	<line id="RM203B_1_" fill="none" stroke="#000000" stroke-miterlimit="10" x1="3650" y1="983.6" x2="3629.3" y2="951"/>
	<line id="RM202B_2_" fill="none" stroke="#000000" stroke-miterlimit="10" x1="3344.9" y1="521.5" x2="3314.4" y2="557.3"/>
	<line id="RM202B_1_" fill="none" stroke="#000000" stroke-miterlimit="10" x1="3682.3" y1="517.5" x2="3629.3" y2="556.9"/>
	<line id="RM201B_2_" fill="none" stroke="#000000" stroke-miterlimit="10" x1="3799.7" y1="1004.2" x2="3776.5" y2="951.2"/>
	<line id="RM201B_1_" fill="none" stroke="#000000" stroke-miterlimit="10" x1="4128" y1="1002.7" x2="4091.1" y2="951.8"/>
	<line id="FemaleCR2B_1_" fill="none" stroke="#000000" stroke-miterlimit="10" x1="4012" y1="207.2" x2="3982.8" y2="236.2"/>
	<line id="MaleCR2B_1_" fill="none" stroke="#000000" stroke-miterlimit="10" x1="3964" y1="422.3" x2="3982.8" y2="389.7"/>
	<line id="TestingRoom_2_" fill="none" stroke="#000000" stroke-miterlimit="10" x1="4233.7" y1="511.8" x2="4209.6" y2="556.6"/>
	<line id="Guidance2_1_" fill="none" stroke="#000000" stroke-miterlimit="10" x1="4370.3" y1="733.5" x2="4335" y2="723.5"/>
	<line id="OldAcadOffice_1_" fill="none" stroke="#000000" stroke-miterlimit="10" x1="69.3" y1="1117.3" x2="96.2" y2="1141.5"/>
</g>
<g id="Paths">
	<line fill="none" stroke="#000000" stroke-miterlimit="10" x1="451.5" y1="1378.2" x2="451.5" y2="1208.9"/>
	<line fill="none" stroke="#000000" stroke-miterlimit="10" x1="451.5" y1="1208.9" x2="123.3" y2="1208.9"/>
	<line fill="none" stroke="#000000" stroke-miterlimit="10" x1="123.3" y1="1208.9" x2="123.3" y2="1141.5"/>
	<line fill="none" stroke="#000000" stroke-miterlimit="10" x1="123.3" y1="1141.5" x2="96" y2="1141.5"/>
	<line fill="none" stroke="#000000" stroke-miterlimit="10" x1="123.3" y1="1141.5" x2="123.3" y2="1082.9"/>
	<line fill="none" stroke="#000000" stroke-miterlimit="10" x1="123.3" y1="1082.9" x2="156.7" y2="1082.9"/>
	<line fill="none" stroke="#000000" stroke-miterlimit="10" x1="451.5" y1="1378.2" x2="555.5" y2="1378.2"/>
	<line fill="none" stroke="#000000" stroke-miterlimit="10" x1="451.5" y1="1413.7" x2="451.5" y2="1378.2"/>
	<line fill="none" stroke="#000000" stroke-miterlimit="10" x1="451.5" y1="1067" x2="451.5" y2="1043"/>
	<line fill="none" stroke="#000000" stroke-miterlimit="10" x1="451.5" y1="1067" x2="313.1" y2="1067"/>
	<line fill="none" stroke="#000000" stroke-miterlimit="10" x1="451.5" y1="1208.9" x2="451.5" y2="1067"/>
	<line fill="none" stroke="#000000" stroke-miterlimit="10" x1="451.5" y1="1043" x2="556.3" y2="1043"/>
	<line fill="none" stroke="#000000" stroke-miterlimit="10" x1="451.5" y1="1043" x2="451.5" y2="968.9"/>
	<line fill="none" stroke="#000000" stroke-miterlimit="10" x1="451.5" y1="968.9" x2="334.3" y2="968.9"/>
	<line fill="none" stroke="#000000" stroke-miterlimit="10" x1="451.5" y1="968.9" x2="555.9" y2="968.9"/>
	<line fill="none" stroke="#000000" stroke-miterlimit="10" x1="451.5" y1="968.9" x2="451.5" y2="754"/>
	<line fill="none" stroke="#000000" stroke-miterlimit="10" x1="451.5" y1="754" x2="334.3" y2="754"/>
	<line fill="none" stroke="#000000" stroke-miterlimit="10" x1="451.5" y1="753.9" x2="557.4" y2="753.9"/>
	<line fill="none" stroke="#000000" stroke-miterlimit="10" x1="451.5" y1="754" x2="451.5" y2="670.5"/>
	<line fill="none" stroke="#000000" stroke-miterlimit="10" x1="451.5" y1="670.5" x2="333.3" y2="670.5"/>
	<line fill="none" stroke="#000000" stroke-miterlimit="10" x1="451.5" y1="670.4" x2="557.2" y2="670.4"/>
	<line fill="none" stroke="#000000" stroke-miterlimit="10" x1="451.5" y1="670.5" x2="451.5" y2="453.6"/>
	<line fill="none" stroke="#000000" stroke-miterlimit="10" x1="451.5" y1="453.5" x2="332.6" y2="453.5"/>
	<line fill="none" stroke="#000000" stroke-miterlimit="10" x1="451.5" y1="453.6" x2="556.4" y2="453.6"/>
	<line fill="none" stroke="#000000" stroke-miterlimit="10" x1="451.5" y1="453.6" x2="451.5" y2="369.8"/>
	<line fill="none" stroke="#000000" stroke-miterlimit="10" x1="451.5" y1="369.8" x2="254" y2="369.8"/>
	<line fill="none" stroke="#000000" stroke-miterlimit="10" x1="451.5" y1="369.8" x2="451.5" y2="253.5"/>
	<line fill="none" stroke="#000000" stroke-miterlimit="10" x1="451.5" y1="123" x2="839.1" y2="123"/>
	<line fill="none" stroke="#000000" stroke-miterlimit="10" x1="451.5" y1="253.5" x2="451.5" y2="123"/>
	<line fill="none" stroke="#000000" stroke-miterlimit="10" x1="451.5" y1="118.5" x2="581.9" y2="118.5"/>
	<line fill="none" stroke="#000000" stroke-miterlimit="10" x1="839.1" y1="123" x2="1274.8" y2="123"/>
	<line fill="none" stroke="#000000" stroke-miterlimit="10" x1="1274.8" y1="1030.8" x2="1274.8" y2="723.5"/>
	<line fill="none" stroke="#000000" stroke-miterlimit="10" x1="1396.1" y1="952.1" x2="1396.1" y2="723.5"/>
	<line fill="none" stroke="#000000" stroke-miterlimit="10" x1="1274.8" y1="723.5" x2="1274.8" y2="256"/>
	<line fill="none" stroke="#000000" stroke-miterlimit="10" x1="1274.8" y1="723.5" x2="1396.1" y2="723.5"/>
	<line fill="none" stroke="#000000" stroke-miterlimit="10" x1="1396.1" y1="723.5" x2="1546.1" y2="723.5"/>
	<line fill="none" stroke="#000000" stroke-miterlimit="10" x1="1546.1" y1="723.5" x2="1546.1" y2="953.1"/>
	<line fill="none" stroke="#000000" stroke-miterlimit="10" x1="1546.1" y1="723.5" x2="1546.1" y2="556.3"/>
	<line fill="none" stroke="#000000" stroke-miterlimit="10" x1="1546.1" y1="723.5" x2="1853.1" y2="723.5"/>
	<line fill="none" stroke="#000000" stroke-miterlimit="10" x1="1853.1" y1="723.5" x2="1853.1" y2="556.7"/>
	<line fill="none" stroke="#000000" stroke-miterlimit="10" x1="1853.1" y1="723.5" x2="1853.1" y2="952.5"/>
	<line fill="none" stroke="#000000" stroke-miterlimit="10" x1="1853.1" y1="723.5" x2="1969.5" y2="723.5"/>
	<line fill="none" stroke="#000000" stroke-miterlimit="10" x1="1969.5" y1="723.5" x2="1969.5" y2="952.1"/>
	<line fill="none" stroke="#000000" stroke-miterlimit="10" x1="1969.5" y1="723.5" x2="1969.5" y2="558.3"/>
	<line fill="none" stroke="#000000" stroke-miterlimit="10" x1="1969.5" y1="723.5" x2="2305.1" y2="723.5"/>
	<line fill="none" stroke="#000000" stroke-miterlimit="10" x1="2305.1" y1="723.5" x2="2431.1" y2="723.5"/>
	<line fill="none" stroke="#000000" stroke-miterlimit="10" x1="2431.1" y1="723.5" x2="2743.1" y2="723.5"/>
	<line fill="none" stroke="#000000" stroke-miterlimit="10" x1="2743.1" y1="723.5" x2="2867.8" y2="723.5"/>
	<line fill="none" stroke="#000000" stroke-miterlimit="10" x1="2867.8" y1="723.5" x2="3197.8" y2="723.5"/>
	<line fill="none" stroke="#000000" stroke-miterlimit="10" x1="3197.8" y1="723.5" x2="3314.4" y2="723.5"/>
	<line fill="none" stroke="#000000" stroke-miterlimit="10" x1="3314.4" y1="723.5" x2="3629.3" y2="723.5"/>
	<line fill="none" stroke="#000000" stroke-miterlimit="10" x1="3629.3" y1="723.5" x2="3776.5" y2="723.5"/>
	<line fill="none" stroke="#000000" stroke-miterlimit="10" x1="3776.5" y1="723.5" x2="4091.1" y2="723.5"/>
	<line fill="none" stroke="#000000" stroke-miterlimit="10" x1="4091.1" y1="723.5" x2="4091.1" y2="322.1"/>
	<line fill="none" stroke="#000000" stroke-miterlimit="10" x1="4091.1" y1="322.1" x2="3982.8" y2="322.1"/>
	<line fill="none" stroke="#000000" stroke-miterlimit="10" x1="3982.8" y1="322.1" x2="3982.8" y2="389.7"/>
	<line fill="none" stroke="#000000" stroke-miterlimit="10" x1="3982.8" y1="322.1" x2="3982.8" y2="236.2"/>
	<line fill="none" stroke="#000000" stroke-miterlimit="10" x1="4091.1" y1="723.5" x2="4209.6" y2="723.5"/>
	<line fill="none" stroke="#000000" stroke-miterlimit="10" x1="4243.1" y1="723.5" x2="4335" y2="723.5"/>
	<line fill="none" stroke="#000000" stroke-miterlimit="10" x1="4091.1" y1="723.5" x2="4091.1" y2="951.8"/>
	<line fill="none" stroke="#000000" stroke-miterlimit="10" x1="4243.1" y1="723.5" x2="4243.1" y2="1115.7"/>
	<line fill="none" stroke="#000000" stroke-miterlimit="10" x1="4243.1" y1="1115.7" x2="4587" y2="1115.7"/>
	<line fill="none" stroke="#000000" stroke-miterlimit="10" x1="4243.1" y1="1115.7" x2="4243.1" y2="1252.9"/>
	<line fill="none" stroke="#000000" stroke-miterlimit="10" x1="4243.1" y1="1252.9" x2="4372.9" y2="1252.9"/>
	<line fill="none" stroke="#000000" stroke-miterlimit="10" x1="3776.5" y1="723.5" x2="3776.5" y2="951.2"/>
	<line fill="none" stroke="#000000" stroke-miterlimit="10" x1="3629.3" y1="723.5" x2="3629.3" y2="556.9"/>
	<line fill="none" stroke="#000000" stroke-miterlimit="10" x1="3197.8" y1="723.5" x2="3197.8" y2="951.4"/>
	<line fill="none" stroke="#000000" stroke-miterlimit="10" x1="3197.8" y1="723.5" x2="3197.8" y2="557.6"/>
	<line fill="none" stroke="#000000" stroke-miterlimit="10" x1="3314.4" y1="723.5" x2="3314.4" y2="557.3"/>
	<line fill="none" stroke="#000000" stroke-miterlimit="10" x1="3314.4" y1="723.5" x2="3314.4" y2="951.8"/>
	<line fill="none" stroke="#000000" stroke-miterlimit="10" x1="2867.8" y1="723.5" x2="2867.8" y2="557.9"/>
	<line fill="none" stroke="#000000" stroke-miterlimit="10" x1="2867.8" y1="723.5" x2="2867.8" y2="952.4"/>
	<line fill="none" stroke="#000000" stroke-miterlimit="10" x1="2743.1" y1="723.5" x2="2743.1" y2="558.3"/>
	<line fill="none" stroke="#000000" stroke-miterlimit="10" x1="2743.1" y1="723.5" x2="2743.1" y2="951.8"/>
	<line fill="none" stroke="#000000" stroke-miterlimit="10" x1="2431.1" y1="723.5" x2="2431.1" y2="557.4"/>
	<line fill="none" stroke="#000000" stroke-miterlimit="10" x1="2431.1" y1="723.5" x2="2431.1" y2="951.9"/>
	<line fill="none" stroke="#000000" stroke-miterlimit="10" x1="2305.1" y1="723.5" x2="2305.1" y2="556.7"/>
	<line fill="none" stroke="#000000" stroke-miterlimit="10" x1="2305.1" y1="723.5" x2="2305.1" y2="952.4"/>
	<line fill="none" stroke="#000000" stroke-miterlimit="10" x1="4209.6" y1="556.6" x2="4209.6" y2="723.5"/>
	<line fill="none" stroke="#000000" stroke-miterlimit="10" x1="4209.6" y1="723.5" x2="4243.1" y2="723.5"/>
	<line fill="none" stroke="#000000" stroke-miterlimit="10" x1="1274.8" y1="256" x2="1274.8" y2="127.7"/>
	<line fill="none" stroke="#000000" stroke-miterlimit="10" x1="1274.8" y1="127.7" x2="1218.8" y2="127.7"/>
	<line fill="none" stroke="#000000" stroke-miterlimit="10" x1="1274.8" y1="123" x2="1274.8" y2="127.7"/>
	<line fill="none" stroke="#000000" stroke-miterlimit="10" x1="451.5" y1="123" x2="451.5" y2="118.5"/>
	<line fill="none" stroke="#000000" stroke-miterlimit="10" x1="3629.3" y1="723.5" x2="3629.3" y2="951"/>
	<line fill="none" stroke="#000000" stroke-miterlimit="10" x1="4587" y1="1115.7" x2="4587" y2="1246.8"/>
	<line fill="none" stroke="#000000" stroke-miterlimit="10" x1="4560.4" y1="1246.8" x2="4587" y2="1246.8"/>
	<line fill="none" stroke="#000000" stroke-miterlimit="10" x1="451.5" y1="253.5" x2="583.3" y2="253.5"/>
	<line fill="none" stroke="#000000" stroke-miterlimit="10" x1="1274.8" y1="256" x2="1195.4" y2="256"/>
</g>
<g id="Portals">
	<line id="Stair.1.floor1" fill="none" stroke="#000000" stroke-miterlimit="10" x1="300.5" y1="1079" x2="313.1" y2="1067"/>
	<line id="Stair.5.floor3" fill="none" stroke="#000000" stroke-miterlimit="10" x1="169.5" y1="1073.4" x2="156.7" y2="1082.9"/>
	<line id="Stair.2.floor1" fill="none" stroke="#000000" stroke-miterlimit="10" x1="594.5" y1="107.3" x2="581.9" y2="118.5"/>
	<line id="Stair.6.floor3" fill="none" stroke="#000000" stroke-miterlimit="10" x1="583.3" y1="253.5" x2="594.9" y2="266.9"/>
	<line id="Stair.7.floor3" fill="none" stroke="#000000" stroke-miterlimit="10" x1="1195.4" y1="256" x2="1183" y2="245.5"/>
	<line id="Stair.8.floor3" fill="none" stroke="#000000" stroke-miterlimit="10" x1="4560.4" y1="1246.8" x2="4546" y2="1252.9"/>
	<line id="Stair.4.floor1" fill="none" stroke="#000000" stroke-miterlimit="10" x1="4388" y1="1240.2" x2="4372.9" y2="1252.9"/>
	<line id="Stair.3.floor1" fill="none" stroke="#000000" stroke-miterlimit="10" x1="1199.5" y1="120.7" x2="1218.8" y2="127.7"/>
</g>
<g id="RoomNames">
	<text transform="matrix(1 0 0 1 154 1652.8301)" font-family="'ArialMT'" font-size="56.1198px">LIBRARY</text>
	<text transform="matrix(1 0 0 1 599.0001 577.5)" font-family="'ArialMT'" font-size="56.1198px">RM 204A</text>
	<text transform="matrix(1 0 0 1 594.4998 1126.5)" font-family="'ArialMT'" font-size="56.1198px">TECH LAB</text>
	<text transform="matrix(1 0 0 1 1274.9998 1240.0776)" font-family="'ArialMT'" font-size="56.1198px">BOOK</text>
	<text transform="matrix(1 0 0 1 1274.9998 1307.3777)" font-family="'ArialMT'" font-size="56.1198px">STORE</text>
	<text transform="matrix(1 0 0 1 1584.4998 1249.833)" font-family="'ArialMT'" font-size="56.1198px">RM 211B</text>
	<text transform="matrix(1 0 0 1 1588.9998 319.8334)" font-family="'ArialMT'" font-size="56.1198px">RM 210B</text>
	<text transform="matrix(1 0 0 1 2042.2202 1252.9999)" font-family="'ArialMT'" font-size="56.1198px">RM 209B</text>
	<text transform="matrix(1 0 0 1 2042.2205 309.0276)" font-family="'ArialMT'" font-size="56.1198px">RM 208B</text>
	<text transform="matrix(1 0 0 1 2484.2493 1240.0781)" font-family="'ArialMT'" font-size="56.1198px">RM 207B</text>
	<text transform="matrix(1 0 0 1 2484.249 306.0004)" font-family="'ArialMT'" font-size="56.1198px">RM 206B</text>
	<text transform="matrix(1 0 0 1 2950.7991 1226.6829)" font-family="'ArialMT'" font-size="56.1198px">RM 205B</text>
	<text transform="matrix(1 0 0 1 3397.8438 1226.6833)" font-family="'ArialMT'" font-size="56.1198px">RM 203B</text>
	<text transform="matrix(1 0 0 1 3825.5 1240.0774)" font-family="'ArialMT'" font-size="56.1198px">RM 201B </text>
	<text transform="matrix(1 0 0 1 4367.3379 833.5313)" font-family="'ArialMT'" font-size="43.4522px">GUIDANCE</text>
	<text transform="matrix(1 0 0 1 4201.166 390.4167)" font-family="'ArialMT'" font-size="56.1198px">TESTING</text>
	<text transform="matrix(1 0 0 1 4201.166 457.7167)" font-family="'ArialMT'" font-size="56.1198px">ROOM</text>
	<text transform="matrix(1 0 0 1 2929.8318 303.2214)" font-family="'ArialMT'" font-size="56.1198px">RM 204B</text>
	<text transform="matrix(1 0 0 1 3378.3049 310.5)" font-family="'ArialMT'" font-size="56.1198px">RM 202B</text>
	<text transform="matrix(1 0 0 1 3728.6621 177.125)" font-family="'ArialMT'" font-size="56.1198px">FEMALE CR</text>
	<text transform="matrix(1 0 0 1 3743.6636 490.3584)" font-family="'ArialMT'" font-size="56.1198px">MALE CR</text>
	<text transform="matrix(1 0 0 1 71.5833 881.8687)" font-family="'ArialMT'" font-size="56.1198px">RM 205A</text>
	<text transform="matrix(1 0 0 1 69.3333 610.3333)" font-family="'ArialMT'" font-size="56.1198px">RM 206A</text>
	<text transform="matrix(1 0 0 1 38.9697 376.8615)" font-family="'ArialMT'" font-size="26.1183px">UTILITY ROOM 3</text>
	<text transform="matrix(1 0 0 1 74.3031 261.5281)" font-family="'ArialMT'" font-size="26.1183px">MALE CR</text>
	<text transform="matrix(1 0 0 1 69.333 129.5281)" font-family="'ArialMT'" font-size="26.1183px">FEMALE CR</text>
</g>
</svg>
