<?xml version="1.0" encoding="utf-8"?>
<!-- Generator: Adobe Illustrator 22.0.0, SVG Export Plug-In . SVG Version: 6.00 Build 0)  -->
<svg version="1.1" id="Layer_1" xmlns="http://www.w3.org/2000/svg" xmlns:xlink="http://www.w3.org/1999/xlink" x="0px" y="0px"
	 viewBox="0 0 612 282" enable-background="new 0 0 612 282" xml:space="preserve" height="100%" width="100%">
<g id="Base">
	<polyline fill="none" stroke="#000000" stroke-width="5" stroke-miterlimit="10" points="44.8,108.7 44.8,103.2 44.8,106.1 
		2.6,106.1 2.6,101.8 2.6,110 2.6,140.3 	"/>
	<polyline fill="none" stroke="#000000" stroke-width="5" stroke-miterlimit="10" points="2.6,101.8 2.6,71.6 2.6,67.4 44.8,67.4 
		44.8,68.1 44.8,67.4 2.6,67.4 2.6,54 34.2,54 34.2,56.8 34.2,52.5 34.2,54 2.6,54 2.6,35.8 34.3,35.8 34.3,42.4 34.3,29.8 
		34.3,35.8 2.6,35.8 2.6,18.2 34.3,18.2 34.3,19.9 34.3,18.2 37.9,18.2 60.8,18.2 165.8,18.2 191.2,18.3 205.6,18.3 196.1,18.3 
		196.1,86.1 198.4,86.1 	"/>
	<line fill="none" stroke="#000000" stroke-width="5" stroke-miterlimit="10" x1="44.8" y1="136.4" x2="44.8" y2="115.9"/>
	<polyline fill="none" stroke="#000000" stroke-width="5" stroke-miterlimit="10" points="72.9,197.6 72.9,198.2 69,198.2 
		115.1,198.2 115.1,191.6 115.1,202.7 115.1,250.6 115.1,253.8 113.5,253.8 75.2,253.7 72.9,253.7 72.9,264.3 68.6,264.3 4.7,264.3 
		2.6,264.3 2.6,179.9 13.2,179.9 13.2,166.3 13.2,179.9 44.8,179.9 44.8,198.2 49.1,198.2 44.8,198.2 44.8,179.9 2.6,179.9 
		2.6,140.3 2.6,144.8 13.2,144.8 13.2,159.1 13.2,144.8 44.8,144.8 44.8,143.5 	"/>
	<line fill="none" stroke="#000000" stroke-width="5" stroke-miterlimit="10" x1="72.9" y1="190.4" x2="72.9" y2="153.2"/>
	<line fill="none" stroke="#000000" stroke-width="5" stroke-miterlimit="10" x1="72.9" y1="146.2" x2="72.9" y2="143.5"/>
	<line fill="none" stroke="#000000" stroke-width="5" stroke-miterlimit="10" x1="72.9" y1="136.4" x2="72.9" y2="113.8"/>
	<polyline fill="none" stroke="#000000" stroke-width="5" stroke-miterlimit="10" points="72.9,106.8 72.9,105 72.9,106.1 
		115.1,106.1 115.1,101.6 115.1,110 	"/>
	<polyline fill="none" stroke="#000000" stroke-width="5" stroke-miterlimit="10" points="72.9,68.1 72.9,65.4 72.9,67.5 
		115.1,67.5 115.1,71.3 115.1,101.6 115.1,191.6 	"/>
	<polyline fill="none" stroke="#000000" stroke-width="5" stroke-miterlimit="10" points="72.9,65.4 72.9,56.2 72.9,54.1 
		162.5,54.1 162.5,92.5 162.5,130.6 162.5,146.9 163.7,146.9 162.5,146.9 162.5,204.8 201.9,204.8 196,204.8 196,137 196,147 
		174,147 178.5,147 178.5,137 179.4,137 	"/>
	<polyline fill="none" stroke="#000000" stroke-width="5" stroke-miterlimit="10" points="254.6,86.1 250.3,86.1 252.4,86.1 
		252.4,18.3 261.2,18.3 247.3,18.3 205.6,18.3 	"/>
	<polyline fill="none" stroke="#000000" stroke-width="5" stroke-miterlimit="10" points="302.9,18.3 319.7,18.3 311.6,18.3 
		311.6,86.1 309.7,86.1 313.9,86.1 	"/>
	<polyline fill="none" stroke="#000000" stroke-width="5" stroke-miterlimit="10" points="368.9,86.1 373.3,86.1 371,86.1 371,18.3 
		378.1,18.3 361.4,18.3 	"/>
	<polyline fill="none" stroke="#000000" stroke-width="5" stroke-miterlimit="10" points="428.2,86.1 432.7,86.1 430.3,86.1 
		430.3,18.3 419.8,18.3 438.3,18.3 	"/>
	<polyline fill="none" stroke="#000000" stroke-width="5" stroke-miterlimit="10" points="487.6,86.1 532.1,86.1 532.1,62.4 
		531.1,62.4 	"/>
	<polyline fill="none" stroke="#000000" stroke-width="5" stroke-miterlimit="10" points="489.6,86.1 489.6,52.3 518.4,52.3 
		518.4,62.4 522.6,62.4 518.4,62.4 518.4,43.7 522.2,43.7 518.4,43.7 518.4,52.3 489.6,52.3 489.6,18.2 480,18.2 532.1,18.2 
		532.1,43.7 530.9,43.7 532.1,43.7 532.1,18.2 535.8,18.2 	"/>
	<polyline fill="none" stroke="#000000" stroke-width="5" stroke-miterlimit="10" points="546.4,18.2 549,18.2 549,86.1 551.2,86.1 
		549,86.1 549,18.2 556.7,27.4 	"/>
	<polyline fill="none" stroke="#000000" stroke-width="5" stroke-miterlimit="10" points="604.3,81.7 608.2,86.1 562.8,86.1 
		572.2,86.1 572.2,97.7 572.2,86.1 608.2,86.1 608.7,86.6 608.7,108.8 	"/>
	<polyline fill="none" stroke="#000000" stroke-width="5" stroke-miterlimit="10" points="608.6,133.2 608.6,136.9 572.2,136.9 
		572.2,109.2 	"/>
	<polyline fill="none" stroke="#000000" stroke-width="5" stroke-miterlimit="10" points="609.4,198.8 609.4,204.8 572.4,204.8 
		554.3,204.9 541,204.9 549.1,204.9 549.1,136.9 547,136.9 	"/>
	<line fill="none" stroke="#000000" stroke-width="5" stroke-miterlimit="10" x1="535.4" y1="137" x2="505.9" y2="137"/>
	<polyline fill="none" stroke="#000000" stroke-width="5" stroke-miterlimit="10" points="494.3,137 483.5,137 489.6,137 
		489.6,204.8 499.4,204.8 480,204.8 438.4,204.8 	"/>
	<line fill="none" stroke="#000000" stroke-width="5" stroke-miterlimit="10" x1="472" y1="137" x2="444.1" y2="137"/>
	<polyline fill="none" stroke="#000000" stroke-width="5" stroke-miterlimit="10" points="432.6,137 428.2,137 430.3,137 
		430.3,204.8 438.4,204.8 418.9,204.8 377.2,204.7 	"/>
	<line fill="none" stroke="#000000" stroke-width="5" stroke-miterlimit="10" x1="416.7" y1="137" x2="384.7" y2="137"/>
	<polyline fill="none" stroke="#000000" stroke-width="5" stroke-miterlimit="10" points="309.7,137 313.9,137 311.6,137 
		311.6,204.8 301.9,204.8 318.8,204.8 360.5,204.7 377.2,204.7 371,204.7 371,137 368.9,137 373.3,137 	"/>
	<line fill="none" stroke="#000000" stroke-width="5" stroke-miterlimit="10" x1="325.5" y1="137" x2="357.3" y2="137"/>
	<line fill="none" stroke="#000000" stroke-width="5" stroke-miterlimit="10" x1="298.1" y1="137" x2="266.2" y2="137"/>
	<line fill="none" stroke="#000000" stroke-width="5" stroke-miterlimit="10" x1="238.7" y1="137" x2="210.1" y2="137"/>
	<polyline fill="none" stroke="#000000" stroke-width="5" stroke-miterlimit="10" points="261.2,18.3 302.9,18.3 361.4,18.3 
		549,18.3 604.8,82.3 	"/>
	<g id="Stairs">
		<rect x="20.4" y="146.4" fill="none" stroke="#000000" stroke-miterlimit="10" width="21.3" height="31.5"/>
		<polyline fill="none" stroke="#000000" stroke-miterlimit="10" points="39.7,146.4 39.7,177.9 37.8,177.9 37.8,146.4 35.8,146.4 
			35.8,177.9 33.7,177.9 33.7,146.4 31.9,146.4 31.9,177.9 30,177.9 30,146.4 28.2,146.4 28.2,177.9 26.2,177.9 26.2,146.4 
			24.3,146.4 24.3,177.9 22.4,177.9 22.4,146.4 		"/>
		<path fill="none" stroke="#000000" stroke-miterlimit="10" d="M18.7,177.5l-0.4,0.3c0,0-0.9-0.1,0.2-0.8h26.7l0.5,0.4
			c0,0,0.1,0.9-0.6,0L18.7,177.5z"/>
		<path fill="none" stroke="#000000" stroke-miterlimit="10" d="M17,146.9l-0.4-0.4c0,0-0.9,0,0.2,0.8h26.8l0.5-0.5
			c0,0,0.1-0.8-0.6,0.1H17z"/>
		<rect x="19.4" y="161.2" fill="none" stroke="#000000" stroke-miterlimit="10" width="23.3" height="1.9"/>
		<rect x="19.1" y="160.7" fill="none" stroke="#000000" stroke-miterlimit="10" width="24" height="2.8"/>
		<rect x="76.8" y="20.6" fill="none" stroke="#000000" stroke-miterlimit="10" width="21.2" height="31.4"/>
		<polyline fill="none" stroke="#000000" stroke-miterlimit="10" points="95.9,20.6 95.9,52 94.2,52 94.2,20.6 92.1,20.6 92.1,52 
			90.1,52 90.1,20.6 88.3,20.6 88.3,52 86.2,52 86.2,20.6 84.3,20.6 84.3,52 82.3,52 82.3,20.6 80.6,20.6 80.6,52 78.6,52 
			78.6,20.6 		"/>
		<path fill="none" stroke="#000000" stroke-miterlimit="10" d="M74.8,21.4l-0.5-0.5c0,0,0-0.6,0.6,0.1h26.4l0.3-0.4
			c0,0,0.9-0.1-0.2,0.8H74.8L74.8,21.4z"/>
		<path fill="none" stroke="#000000" stroke-miterlimit="10" d="M73.2,51.6L72.8,52c0,0-0.8-0.3,0.3-0.8h26.6l0.5,0.4
			c0,0,0.1,1-0.5,0H73.2z"/>
		<rect x="125.1" y="18.7" fill="none" stroke="#000000" stroke-miterlimit="10" width="33.5" height="34"/>
		<polyline fill="none" stroke="#000000" stroke-miterlimit="10" points="156.4,18.7 156.4,52.6 154.1,52.6 154.1,18.7 151.9,18.7 
			151.9,52.6 149.7,52.6 149.7,18.7 147.6,18.7 147.6,52.6 145.3,52.6 145.3,18.7 143.1,18.7 143.1,52.6 140.8,52.6 140.8,18.7 
			138.5,18.7 138.5,52.6 136.3,52.6 136.3,18.7 134.1,18.7 134.1,52.6 131.7,52.6 131.7,18.7 129.5,18.7 129.5,52.6 127.3,52.6 
			127.3,18.7 		"/>
		<path fill="none" stroke="#000000" stroke-miterlimit="10" d="M122.8,51.8l-0.7,0.5c0,0-0.2,0.8,0.7,0h40.1l0.4,0.4
			c0,0,1-0.2-0.3-0.9H122.8L122.8,51.8z"/>
		<rect x="123.9" y="34.7" fill="none" stroke="#000000" stroke-miterlimit="10" width="35.9" height="2.2"/>
		<rect x="123.3" y="34" fill="none" stroke="#000000" stroke-miterlimit="10" width="37" height="3.3"/>
		<path fill="none" stroke="#000000" stroke-miterlimit="10" d="M121,19.1l-0.4-0.4c0,0-1.3-0.2,0.2,1h40.3l0.5-0.6c0,0,0-1.1-0.6,0
			H121z"/>
		<rect x="578.1" y="143.8" fill="none" stroke="#000000" stroke-miterlimit="10" width="25.5" height="55"/>
		<polyline fill="none" stroke="#000000" stroke-miterlimit="10" points="601,143.8 601,198.8 598.8,198.8 598.8,143.8 596.6,143.8 
			596.6,198.8 594.2,198.8 594.2,143.8 591.9,143.8 591.9,198.8 589.5,198.8 589.5,143.8 587.4,143.8 587.4,198.8 584.8,198.8 
			584.8,143.8 582.9,143.8 582.9,198.8 580.3,198.8 580.3,143.8 		"/>
		<path fill="none" stroke="#000000" stroke-miterlimit="10" d="M575.8,197.8l-0.6,0.6c0,0,0,0.9,0.8-0.1h31.7l0.4,0.4
			c0,0,1-0.1-0.3-1L575.8,197.8L575.8,197.8z"/>
		<rect x="576.9" y="170.1" fill="none" stroke="#000000" stroke-miterlimit="10" width="27.7" height="2.2"/>
		<rect x="576.5" y="169.7" fill="none" stroke="#000000" stroke-miterlimit="10" width="28.7" height="3"/>
		<path fill="none" stroke="#000000" stroke-miterlimit="10" d="M573.9,144.2l-0.4-0.3c0,0-0.8-0.3,0.2,0.9h32.1l0.7-0.7
			c0,0,0-0.9-0.9,0.2L573.9,144.2z"/>
		<rect x="75.8" y="35.6" fill="none" stroke="#000000" stroke-miterlimit="10" width="23.1" height="1.7"/>
		<rect x="75.3" y="35" fill="none" stroke="#000000" stroke-miterlimit="10" width="24.1" height="2.8"/>
	</g>
	<line fill="none" stroke="#000000" stroke-miterlimit="10" x1="608.6" y1="133.5" x2="608.7" y2="108.2"/>
	<rect x="44.2" y="75.3" width="0.6" height="21.4"/>
	<rect x="72.9" y="74.7" width="0.5" height="23.9"/>
	<rect x="189.1" y="136.5" width="10.3" height="0.5"/>
	<path fill="none" stroke="#000000" stroke-width="5" stroke-miterlimit="10" d="M201.9,204.8"/>
	<polyline fill="none" stroke="#000000" stroke-width="5" stroke-miterlimit="10" points="201.9,204.8 243.5,204.8 260.2,204.8 
		252.4,204.8 252.4,137 250.3,137 254.5,137 	"/>
	<line fill="none" stroke="#000000" stroke-width="5" stroke-miterlimit="10" x1="541" y1="204.9" x2="499.4" y2="204.8"/>
	<rect x="260.2" y="204.5" width="41.7" height="0.6"/>
	<rect x="33.7" y="63.6" width="0.7" height="3.8"/>
	<rect x="608.6" y="136.9" width="0.6" height="6.3"/>
	<rect x="443.6" y="85.6" width="33.1" height="1"/>
	<rect x="384.5" y="85.6" width="32.9" height="1"/>
	<rect x="325.1" y="85.7" width="32.9" height="1"/>
	<rect x="265.7" y="85.7" width="32.9" height="1"/>
	<rect x="210" y="85.7" width="29.5" height="1"/>
</g>
<g id="Rooms">
	<a id="Library" xlink:href="#myMaps" >
		<g>
			<polygon fill="#FFFFFF" points="3,180.3 44.3,180.3 44.3,198.7 114.5,198.7 114.5,253.4 72.5,253.4 72.5,263.9 3,263.9 			"/>
			<path fill="none" stroke="#000000" stroke-miterlimit="10" d="M68.5,198.7v17.2c0,0-19.4-2.8-19.4-17.2"/>
		</g>
	</a>
	<a id="OldAcadOffice" xlink:href="#myMaps" >
		<g>
			<rect x="3.1" y="145.2" fill="#FFFFFF" width="9.7" height="34.3"/>
			<path fill="none" stroke="#000000" stroke-miterlimit="10" d="M12.7,159.5H6.2c0,0,2.4,5.8,6.5,6.1"/>
		</g>
	</a>
	<a id="RM205A" xlink:href="#myMaps" >
		<g>
			<rect x="3.2" y="106.6" fill="#FFFFFF" width="41" height="37.5"/>
			<path fill="none" stroke="#000000" stroke-miterlimit="10" d="M44.2,142.9h-5.8c0,0,0.1-6.2,5.8-5.9"/>
			<path fill="none" stroke="#000000" stroke-miterlimit="10" d="M44.2,109.4h-5.8c0,0,0.1,5.7,5.8,6"/>
		</g>
	</a>
	<a id="RM206A" xlink:href="#myMaps" >
		<g>
			<rect x="3.1" y="68" fill="#FFFFFF" width="41.1" height="37.6"/>
			<path fill="none" stroke="#000000" stroke-miterlimit="10" d="M44.2,102.5h-5.8c0,0-0.4-5.9,5.8-5.8"/>
			<path fill="none" stroke="#000000" stroke-miterlimit="10" d="M44.2,68.8h-5.8c0,0,0.4,5.8,5.8,6"/>
		</g>
	</a>
	<a id="UtilityRoom2" xlink:href="#myMaps" >
		<g>
			<rect x="3.1" y="54.5" fill="#FFFFFF" width="30.5" height="12.3"/>
			<path fill="none" stroke="#000000" stroke-miterlimit="10" d="M33.6,57.3H27c0,0,0.5,5.6,6.6,6.3"/>
		</g>
	</a>
	<a id="MaleCR2A" xlink:href="#myMaps" >
		<g>
			<rect x="3.1" y="36.3" fill="#FFFFFF" width="30.5" height="17.2"/>
		</g>
	</a>
	<a id="FemaleCR2A" xlink:href="#myMaps" >
		<g>
			<rect x="3.1" y="18.9" fill="#FFFFFF" width="30.5" height="16.4"/>
		</g>
	</a>
	<a id="TechLab" xlink:href="#myMaps" >
		<g>
			<rect x="73.5" y="106.6" fill="#FFFFFF" width="41.1" height="91"/>
			<path fill="none" stroke="#000000" stroke-miterlimit="10" d="M73.5,197.2h7.7c0,0-1-6.4-7.7-6.2"/>
			<path fill="none" stroke="#000000" stroke-miterlimit="10" d="M73.5,146.7h5.8c0,0-1.1,6.2-5.8,6"/>
			<path fill="none" stroke="#000000" stroke-miterlimit="10" d="M73.5,142.9h5.8c0,0-0.2-5.9-5.8-6"/>
			<path fill="none" stroke="#000000" stroke-miterlimit="10" d="M73.5,107.4h5.8c0,0,0.2,6.1-5.8,6"/>
		</g>
	</a>
	<a id="RM204A" xlink:href="#myMaps" >
		<g>
			<rect x="73.5" y="68" fill="#FFFFFF" width="41.1" height="37.6"/>
			<path fill="none" stroke="#000000" stroke-miterlimit="10" d="M73.5,104.5h5.8c0,0,0-5.2-5.8-5.9"/>
			<path fill="none" stroke="#000000" stroke-miterlimit="10" d="M73.5,68.9h5.8c0,0-0.6,6-5.8,5.8"/>
		</g>
	</a>
	<a id="Bookstore" xlink:href="#myMaps" >
		<g>
			<rect x="163.2" y="148" fill="#FFFFFF" width="32.5" height="55.5"/>
			<path fill="none" stroke="#000000" stroke-miterlimit="10" d="M164.7,148v9.2c0,0,8.1-1.1,8.7-9.2"/>
		</g>
	</a>
	<a id="BesideBookstore" xlink:href="#myMaps" >
		<g>
			<rect x="179" y="137.5" fill="#FFFFFF" width="16.5" height="8.9"/>
			<path fill="none" stroke="#000000" stroke-miterlimit="10" d="M180.2,137.5v6.2c0,0,8.7,0.7,8.9-6.2"/>
		</g>
	</a>
	<a id="RM211B" xlink:href="#myMaps" >
		<g>
			<rect x="196.8" y="137.5" fill="#FFFFFF" width="54.9" height="66"/>
			<path fill="none" stroke="#000000" stroke-miterlimit="10" d="M199.4,137.5v10.2c0,0,10.1-1.9,10.1-10.2"/>
			<path fill="none" stroke="#000000" stroke-miterlimit="10" d="M249.7,137.5v10.2c0,0-10.7-1.4-10.2-10.2"/>
		</g>
	</a>
	<a id="RM210B" xlink:href="#myMaps" >
		<g>
			<rect x="196.9" y="19.1" fill="#FFFFFF" width="54.6" height="66.6"/>
			<path fill="none" stroke="#000000" stroke-miterlimit="10" d="M249.5,85.6V75.3c0,0-10.2,0.7-10.1,10.3"/>
			<path fill="none" stroke="#000000" stroke-miterlimit="10" d="M199.4,85.6V75.3c0,0,10.8,0.8,10.5,10.3"/>
		</g>
	</a>
	<a id="RM209B" xlink:href="#myMaps" >
		<g>
			<rect x="253.7" y="137.5" fill="#FFFFFF" width="57" height="66"/>
			<path fill="none" stroke="#000000" stroke-miterlimit="10" d="M255.5,137.5v10.2c0,0,10.8-0.6,10.3-10.2"/>
			<path fill="none" stroke="#000000" stroke-miterlimit="10" d="M308.8,137.5v10.2c0,0-10.3,0-10.3-10.2"/>
		</g>
	</a>
	<a id="RM208B" xlink:href="#myMaps" >
		<g>
			<rect x="253.5" y="19.1" fill="#FFFFFF" width="57.3" height="66.6"/>
			<path fill="none" stroke="#000000" stroke-miterlimit="10" d="M308.7,85.6V75.3c0,0-10.2,2.5-10.2,10.2"/>
			<path fill="none" stroke="#000000" stroke-miterlimit="10" d="M255.3,85.6V75.3c0,0,10.5,2.2,10.3,10.3"/>
		</g>
	</a>
	<a id="RM207B" xlink:href="#myMaps" >
		<g>
			<rect x="312.5" y="137.5" fill="#FFFFFF" width="57.8" height="66.5"/>
			<path fill="none" stroke="#000000" stroke-miterlimit="10" d="M314.9,137.5v10.2c0,0,10.7-0.6,10.2-10.2"/>
			<path fill="none" stroke="#000000" stroke-miterlimit="10" d="M368.2,137.5v10.2c0,0-10.1-0.6-10.2-10.2"/>
		</g>
	</a>
	<a id="RM206B" xlink:href="#myMaps" >
		<g>
			<rect x="312.7" y="19.1" fill="#FFFFFF" width="57" height="66.6"/>
			<path fill="none" stroke="#000000" stroke-miterlimit="10" d="M368.3,85.6V75.3c0,0-10.6,1.4-10.2,10.3"/>
			<path fill="none" stroke="#000000" stroke-miterlimit="10" d="M314.7,85.6V75.3c0,0,10.8,1.6,10.4,10.3"/>
		</g>
	</a>
	<a id="RM205B" xlink:href="#myMaps" >
		<g>
			<rect x="371.8" y="137.5" fill="#FFFFFF" width="57.9" height="66.5"/>
			<path fill="none" stroke="#000000" stroke-miterlimit="10" d="M374.3,137.5v10.2c0,0,10.2-0.9,10.4-10.2"/>
			<path fill="none" stroke="#000000" stroke-miterlimit="10" d="M427.4,137.5v10.2c0,0-10.4-1-10-10.2"/>
		</g>
	</a>
	<a id="RM204B" xlink:href="#myMaps" >
		<g>
			<rect x="371.9" y="19.1" fill="#FFFFFF" width="58" height="66.6"/>
			<path fill="none" stroke="#000000" stroke-miterlimit="10" d="M427.5,85.6V75.3c0,0-10.5,1.4-10.1,10.3"/>
			<path fill="none" stroke="#000000" stroke-miterlimit="10" d="M374.1,85.6V75.3c0,0,10.3,1.5,10.4,10.3"/>
		</g>
	</a>
	<a id="RM203B" xlink:href="#myMaps" >
		<g>
			<rect x="431" y="137.5" fill="#FFFFFF" width="57.9" height="66.5"/>
			<path fill="none" stroke="#000000" stroke-miterlimit="10" d="M433.6,137.5v10.2c0,0,10-2.2,10.1-10.2"/>
			<path fill="none" stroke="#000000" stroke-miterlimit="10" d="M482.7,137.5V148c0,0-10-0.7-10.1-10.5"/>
		</g>
	</a>
	<a id="RM202B" xlink:href="#myMaps" >
		<g>
			<rect x="431.5" y="19.1" fill="#FFFFFF" width="57.1" height="66.6"/>
			<path fill="none" stroke="#000000" stroke-miterlimit="10" d="M486.9,85.6V75.3c0,0-10,3-10.3,10.3"/>
			<path fill="none" stroke="#000000" stroke-miterlimit="10" d="M433,85.6V75.3c0,0,10.9,1.6,10.6,10.3"/>
		</g>
	</a>
	<a id="RM201B" xlink:href="#myMaps" >
		<g>
			<rect x="490.3" y="137.5" fill="#FFFFFF" width="58.1" height="66.5"/>
			<path fill="none" stroke="#000000" stroke-miterlimit="10" d="M495.1,137.5V148c0,0,10.2-1.2,10.2-10.5"/>
			<path fill="none" stroke="#000000" stroke-miterlimit="10" d="M545.9,137.5V148c0,0-10.6-2.2-10.2-10.5"/>
		</g>
	</a>
	<a id="Guidance2" xlink:href="#myMaps" >
		<g>
			<rect x="572.8" y="86.8" fill="#FFFFFF" width="35.2" height="49.5"/>
			<path fill="none" stroke="#000000" stroke-miterlimit="10" d="M572.8,108.8H585c0,0-1.3-11.4-12.2-10.9"/>
		</g>
	</a>
	<a id="TestingRoom" xlink:href="#myMaps" >
		<g>
			<polygon fill="#FFFFFF" points="549.6,20.2 549.6,85.6 607.2,85.6 			"/>
			<path fill="none" stroke="#000000" stroke-miterlimit="10" d="M552.2,85.6v-9.9c0,0,10.2,1.7,10.2,9.9"/>
		</g>
	</a>
	<a id="TestingRoom_1_" xlink:href="#myMaps" >
		<g>
			<polygon id="MaleCR2B" fill="#FFFFFF" points="490.1,52.8 517.8,52.8 517.8,63.2 531.6,63.2 531.6,85.6 490.1,85.6 			"/>
			<path fill="none" stroke="#000000" stroke-miterlimit="10" d="M530.5,63.2v7.3c0,0-7.5,0.3-7.7-7.3"/>
		</g>
	</a>
	<a id="FemaleCR2B" xlink:href="#myMaps" >
		<g>
			<polygon fill="#FFFFFF" points="517.8,51.7 490.1,51.7 490.1,18.7 531.6,18.7 531.6,43.2 517.8,43.2 			"/>
			<path fill="none" stroke="#000000" stroke-miterlimit="10" d="M530.5,43.2v-7.9c0,0-7.1-0.5-7.7,7.9"/>
		</g>
	</a>
</g>
<g id="Doors">
	<line id="Library_1_" fill="none" stroke="#000000" stroke-miterlimit="10" x1="68.5" y1="209.5" x2="59.7" y2="198.7"/>
	<line id="TechLab_1_" fill="none" stroke="#000000" stroke-miterlimit="10" x1="77.8" y1="197.2" x2="73.5" y2="194"/>
	<line id="TechLab_2_" fill="none" stroke="#000000" stroke-miterlimit="10" x1="77" y1="151.3" x2="73.6" y2="149.7"/>
	<line id="TechLab_3_" fill="none" stroke="#000000" stroke-miterlimit="10" x1="76.9" y1="142.9" x2="73.5" y2="139.9"/>
	<line id="TechLab_4_" fill="none" stroke="#000000" stroke-miterlimit="10" x1="75.2" y1="113.2" x2="73.7" y2="111.5"/>
	<line id="RM204A_1_" fill="none" stroke="#000000" stroke-miterlimit="10" x1="77" y1="104.5" x2="73.7" y2="100.4"/>
	<line id="RM204A_2_" fill="none" stroke="#000000" stroke-miterlimit="10" x1="76.5" y1="73.9" x2="73.6" y2="71.8"/>
	<line id="RM205A_1_" fill="none" stroke="#000000" stroke-miterlimit="10" x1="41" y1="137.7" x2="44.2" y2="139.9"/>
	<line id="RM205A_2_" fill="none" stroke="#000000" stroke-miterlimit="10" x1="40.8" y1="109.4" x2="44.2" y2="111.5"/>
	<line id="RM206A_1_" fill="none" stroke="#000000" stroke-miterlimit="10" x1="40.7" y1="97.5" x2="44.1" y2="100.4"/>
	<line id="RM206A_2_" fill="none" stroke="#000000" stroke-miterlimit="10" x1="41.4" y1="68.8" x2="44" y2="71.8"/>
	<line id="UtilityRoom2_1_" fill="none" stroke="#000000" stroke-miterlimit="10" x1="30" y1="57.3" x2="33.6" y2="60.7"/>
	<line id="Bookstore_1_" fill="none" stroke="#000000" stroke-miterlimit="10" x1="164.7" y1="153.4" x2="168.6" y2="148.1"/>
	<line id="BesideBookstore_1_" fill="none" stroke="#000000" stroke-miterlimit="10" x1="180.2" y1="141.1" x2="184.6" y2="137.7"/>
	<line id="RM211B_1_" fill="none" stroke="#000000" stroke-miterlimit="10" x1="199.4" y1="144.5" x2="204.5" y2="137.8"/>
	<line id="RM211B_2_" fill="none" stroke="#000000" stroke-miterlimit="10" x1="241.4" y1="143.5" x2="245.1" y2="137.7"/>
	<line id="RM210B_1_" fill="none" stroke="#000000" stroke-miterlimit="10" x1="207.6" y1="79" x2="204.5" y2="85.3"/>
	<line id="RM210B_2_" fill="none" stroke="#000000" stroke-miterlimit="10" x1="249.5" y1="80.1" x2="245.1" y2="85.4"/>
	<line id="RM209B_1_" fill="none" stroke="#000000" stroke-miterlimit="10" x1="255.5" y1="144.1" x2="260.4" y2="137.7"/>
	<line id="RM209B_2_" fill="none" stroke="#000000" stroke-miterlimit="10" x1="300.4" y1="143.9" x2="304.8" y2="137.7"/>
	<line id="RM208B_1_" fill="none" stroke="#000000" stroke-miterlimit="10" x1="263.4" y1="79.7" x2="260.4" y2="85.6"/>
	<line id="RM208B_2_" fill="none" stroke="#000000" stroke-miterlimit="10" x1="308.7" y1="79.4" x2="304.8" y2="85.4"/>
	<line id="RM207B_1_" fill="none" stroke="#000000" stroke-miterlimit="10" x1="314.9" y1="143.9" x2="321.5" y2="137.7"/>
	<line id="RM207B_2_" fill="none" stroke="#000000" stroke-miterlimit="10" x1="359.3" y1="142.8" x2="362.7" y2="137.6"/>
	<line id="RM206B_1_" fill="none" stroke="#000000" stroke-miterlimit="10" x1="323.5" y1="80.1" x2="321.5" y2="85.5"/>
	<line id="RM206B_2_" fill="none" stroke="#000000" stroke-miterlimit="10" x1="368.3" y1="79.9" x2="362.8" y2="85.6"/>
	<line id="RM205B_1_" fill="none" stroke="#000000" stroke-miterlimit="10" x1="382.6" y1="143.6" x2="379.2" y2="137.7"/>
	<line id="RM205B_2_" fill="none" stroke="#000000" stroke-miterlimit="10" x1="427.4" y1="142.8" x2="422.9" y2="137.6"/>
	<line id="RM204B_2_" fill="none" stroke="#000000" stroke-miterlimit="10" x1="382.5" y1="79.9" x2="379.2" y2="85.6"/>
	<line id="RM204B_1_" fill="none" stroke="#000000" stroke-miterlimit="10" x1="427.5" y1="79.2" x2="422.9" y2="85.5"/>
	<line id="RM203B_2_" fill="none" stroke="#000000" stroke-miterlimit="10" x1="441.8" y1="142.8" x2="438.3" y2="137.6"/>
	<line id="RM203B_1_" fill="none" stroke="#000000" stroke-miterlimit="10" x1="482.7" y1="141.9" x2="479.9" y2="137.5"/>
	<line id="RM202B_2_" fill="none" stroke="#000000" stroke-miterlimit="10" x1="442.3" y1="80.7" x2="438.3" y2="85.5"/>
	<line id="RM202B_1_" fill="none" stroke="#000000" stroke-miterlimit="10" x1="486.9" y1="80.2" x2="479.9" y2="85.4"/>
	<line id="RM201B_2_" fill="none" stroke="#000000" stroke-miterlimit="10" x1="502.5" y1="144.6" x2="499.4" y2="137.6"/>
	<line id="RM201B_1_" fill="none" stroke="#000000" stroke-miterlimit="10" x1="545.9" y1="144.4" x2="541" y2="137.6"/>
	<line id="FemaleCR2B_1_" fill="none" stroke="#000000" stroke-miterlimit="10" x1="530.5" y1="39.2" x2="526.7" y2="43"/>
	<line id="MaleCR2B_1_" fill="none" stroke="#000000" stroke-miterlimit="10" x1="524.2" y1="67.6" x2="526.7" y2="63.3"/>
	<line id="TestingRoom_2_" fill="none" stroke="#000000" stroke-miterlimit="10" x1="559.9" y1="79.5" x2="556.7" y2="85.4"/>
	<line id="Guidance2_1_" fill="none" stroke="#000000" stroke-miterlimit="10" x1="577.9" y1="108.8" x2="573.3" y2="107.5"/>
	<line id="OldAcadOffice_1_" fill="none" stroke="#000000" stroke-miterlimit="10" x1="9.2" y1="159.5" x2="12.7" y2="162.7"/>
</g>
<g id="Paths">
	<line fill="none" stroke="#000000" stroke-miterlimit="10" x1="59.7" y1="194" x2="59.7" y2="171.6"/>
	<line fill="none" stroke="#000000" stroke-miterlimit="10" x1="59.7" y1="171.6" x2="16.3" y2="171.6"/>
	<line fill="none" stroke="#000000" stroke-miterlimit="10" x1="16.3" y1="171.6" x2="16.3" y2="162.7"/>
	<line fill="none" stroke="#000000" stroke-miterlimit="10" x1="16.3" y1="162.7" x2="12.7" y2="162.7"/>
	<line fill="none" stroke="#000000" stroke-miterlimit="10" x1="16.3" y1="162.7" x2="16.3" y2="155"/>
	<line fill="none" stroke="#000000" stroke-miterlimit="10" x1="16.3" y1="155" x2="20.7" y2="155"/>
	<line fill="none" stroke="#000000" stroke-miterlimit="10" x1="59.7" y1="194" x2="73.5" y2="194"/>
	<line fill="none" stroke="#000000" stroke-miterlimit="10" x1="59.7" y1="198.7" x2="59.7" y2="194"/>
	<line id="PTechLab.PLibrary" fill="none" stroke="#000000" stroke-miterlimit="10" x1="59.7" y1="152.9" x2="59.7" y2="149.7"/>
	<line fill="none" stroke="#000000" stroke-miterlimit="10" x1="59.7" y1="152.9" x2="41.4" y2="152.9"/>
	<line fill="none" stroke="#000000" stroke-miterlimit="10" x1="59.7" y1="171.6" x2="59.7" y2="152.9"/>
	<line fill="none" stroke="#000000" stroke-miterlimit="10" x1="59.7" y1="149.7" x2="73.6" y2="149.7"/>
	<line fill="none" stroke="#000000" stroke-miterlimit="10" x1="59.7" y1="149.7" x2="59.7" y2="139.9"/>
	<line fill="none" stroke="#000000" stroke-miterlimit="10" x1="59.7" y1="139.9" x2="44.2" y2="139.9"/>
	<line fill="none" stroke="#000000" stroke-miterlimit="10" x1="59.7" y1="139.9" x2="73.5" y2="139.9"/>
	<line id="P205A.PTechLab" fill="none" stroke="#000000" stroke-miterlimit="10" x1="59.7" y1="139.9" x2="59.7" y2="111.5"/>
	<line fill="none" stroke="#000000" stroke-miterlimit="10" x1="59.7" y1="111.5" x2="44.2" y2="111.5"/>
	<line fill="none" stroke="#000000" stroke-miterlimit="10" x1="59.7" y1="111.5" x2="73.7" y2="111.5"/>
	<line fill="none" stroke="#000000" stroke-miterlimit="10" x1="59.7" y1="111.5" x2="59.7" y2="100.4"/>
	<line fill="none" stroke="#000000" stroke-miterlimit="10" x1="59.7" y1="100.4" x2="44.1" y2="100.4"/>
	<line fill="none" stroke="#000000" stroke-miterlimit="10" x1="59.7" y1="100.4" x2="73.7" y2="100.4"/>
	<line id="P206A.P204A" fill="none" stroke="#000000" stroke-miterlimit="10" x1="59.7" y1="100.4" x2="59.7" y2="71.8"/>
	<line fill="none" stroke="#000000" stroke-miterlimit="10" x1="59.7" y1="71.8" x2="44" y2="71.8"/>
	<line fill="none" stroke="#000000" stroke-miterlimit="10" x1="59.7" y1="71.8" x2="73.6" y2="71.8"/>
	<line id="PUtilityRoom2" fill="none" stroke="#000000" stroke-miterlimit="10" x1="59.7" y1="71.8" x2="59.7" y2="60.7"/>
	<line fill="none" stroke="#000000" stroke-miterlimit="10" x1="59.7" y1="60.7" x2="33.6" y2="60.7"/>
	<line fill="none" stroke="#000000" stroke-miterlimit="10" x1="59.7" y1="60.7" x2="59.7" y2="45.3"/>
	<line fill="none" stroke="#000000" stroke-miterlimit="10" x1="59.7" y1="28" x2="111" y2="28"/>
	<line fill="none" stroke="#000000" stroke-miterlimit="10" x1="59.7" y1="45.3" x2="59.7" y2="28"/>
	<line fill="none" stroke="#000000" stroke-miterlimit="10" x1="59.7" y1="27.5" x2="76.9" y2="27.5"/>
	<line fill="none" stroke="#000000" stroke-miterlimit="10" x1="111" y1="28" x2="168.6" y2="28"/>
	<line fill="none" stroke="#000000" stroke-miterlimit="10" x1="168.6" y1="148.1" x2="168.6" y2="107.5"/>
	<line fill="none" stroke="#000000" stroke-miterlimit="10" x1="184.6" y1="137.7" x2="184.6" y2="107.5"/>
	<line fill="none" stroke="#000000" stroke-miterlimit="10" x1="168.6" y1="107.5" x2="168.6" y2="45.6"/>
	<line id="PBookStore" fill="none" stroke="#000000" stroke-miterlimit="10" x1="168.6" y1="107.5" x2="184.6" y2="107.5"/>
	<line fill="none" stroke="#000000" stroke-miterlimit="10" x1="184.6" y1="107.5" x2="204.5" y2="107.5"/>
	<line fill="none" stroke="#000000" stroke-miterlimit="10" x1="204.5" y1="107.5" x2="204.5" y2="137.8"/>
	<line fill="none" stroke="#000000" stroke-miterlimit="10" x1="204.5" y1="107.5" x2="204.5" y2="85.3"/>
	<line id="P210B.P211B" fill="none" stroke="#000000" stroke-miterlimit="10" x1="204.5" y1="107.5" x2="245.1" y2="107.5"/>
	<line fill="none" stroke="#000000" stroke-miterlimit="10" x1="245.1" y1="107.5" x2="245.1" y2="85.4"/>
	<line fill="none" stroke="#000000" stroke-miterlimit="10" x1="245.1" y1="107.5" x2="245.1" y2="137.7"/>
	<line fill="none" stroke="#000000" stroke-miterlimit="10" x1="245.1" y1="107.5" x2="260.4" y2="107.5"/>
	<line fill="none" stroke="#000000" stroke-miterlimit="10" x1="260.4" y1="107.5" x2="260.4" y2="137.7"/>
	<line fill="none" stroke="#000000" stroke-miterlimit="10" x1="260.4" y1="107.5" x2="260.4" y2="85.6"/>
	<line id="P208B.P209B" fill="none" stroke="#000000" stroke-miterlimit="10" x1="260.4" y1="107.5" x2="304.8" y2="107.5"/>
	<line fill="none" stroke="#000000" stroke-miterlimit="10" x1="304.8" y1="107.5" x2="321.5" y2="107.5"/>
	<line id="P206B.P207B" fill="none" stroke="#000000" stroke-miterlimit="10" x1="321.5" y1="107.5" x2="362.7" y2="107.5"/>
	<line fill="none" stroke="#000000" stroke-miterlimit="10" x1="362.7" y1="107.5" x2="379.2" y2="107.5"/>
	<line id="P204B.P205B" fill="none" stroke="#000000" stroke-miterlimit="10" x1="379.2" y1="107.5" x2="422.9" y2="107.5"/>
	<line fill="none" stroke="#000000" stroke-miterlimit="10" x1="422.9" y1="107.5" x2="438.3" y2="107.5"/>
	<line id="P202B.P203B" fill="none" stroke="#000000" stroke-miterlimit="10" x1="438.3" y1="107.5" x2="479.9" y2="107.5"/>
	<line fill="none" stroke="#000000" stroke-miterlimit="10" x1="479.9" y1="107.5" x2="499.4" y2="107.5"/>
	
		<line id="P201B.PMaleCRB2.PFemaleCRB2" fill="none" stroke="#000000" stroke-miterlimit="10" x1="499.4" y1="107.5" x2="541" y2="107.5"/>
	<line fill="none" stroke="#000000" stroke-miterlimit="10" x1="541" y1="107.5" x2="541" y2="54.4"/>
	<line fill="none" stroke="#000000" stroke-miterlimit="10" x1="541" y1="54.4" x2="526.7" y2="54.4"/>
	<line fill="none" stroke="#000000" stroke-miterlimit="10" x1="526.7" y1="54.4" x2="526.7" y2="63.3"/>
	<line fill="none" stroke="#000000" stroke-miterlimit="10" x1="526.7" y1="54.4" x2="526.7" y2="43"/>
	
		<line id="PTestingRoom.PGuidance" fill="none" stroke="#000000" stroke-miterlimit="10" x1="541" y1="107.5" x2="556.7" y2="107.5"/>
	<line fill="none" stroke="#000000" stroke-miterlimit="10" x1="561.1" y1="107.5" x2="573.3" y2="107.5"/>
	<line fill="none" stroke="#000000" stroke-miterlimit="10" x1="541" y1="107.5" x2="541" y2="137.6"/>
	<line fill="none" stroke="#000000" stroke-miterlimit="10" x1="561.1" y1="107.5" x2="561.1" y2="159.3"/>
	<line id="PGuidance" fill="none" stroke="#000000" stroke-miterlimit="10" x1="561.1" y1="159.3" x2="606.6" y2="159.3"/>
	<line fill="none" stroke="#000000" stroke-miterlimit="10" x1="561.1" y1="159.3" x2="561.1" y2="177.5"/>
	<line fill="none" stroke="#000000" stroke-miterlimit="10" x1="561.1" y1="177.5" x2="578.3" y2="177.5"/>
	<line fill="none" stroke="#000000" stroke-miterlimit="10" x1="499.4" y1="107.5" x2="499.4" y2="137.6"/>
	<line fill="none" stroke="#000000" stroke-miterlimit="10" x1="479.9" y1="107.5" x2="479.9" y2="85.4"/>
	<line fill="none" stroke="#000000" stroke-miterlimit="10" x1="422.9" y1="107.5" x2="422.9" y2="137.6"/>
	<line fill="none" stroke="#000000" stroke-miterlimit="10" x1="422.9" y1="107.5" x2="422.9" y2="85.5"/>
	<line fill="none" stroke="#000000" stroke-miterlimit="10" x1="438.3" y1="107.5" x2="438.3" y2="85.5"/>
	<line fill="none" stroke="#000000" stroke-miterlimit="10" x1="438.3" y1="107.5" x2="438.3" y2="137.6"/>
	<line fill="none" stroke="#000000" stroke-miterlimit="10" x1="379.2" y1="107.5" x2="379.2" y2="85.6"/>
	<line fill="none" stroke="#000000" stroke-miterlimit="10" x1="379.2" y1="107.5" x2="379.2" y2="137.7"/>
	<line fill="none" stroke="#000000" stroke-miterlimit="10" x1="362.7" y1="107.5" x2="362.7" y2="85.6"/>
	<line fill="none" stroke="#000000" stroke-miterlimit="10" x1="362.7" y1="107.5" x2="362.7" y2="137.6"/>
	<line fill="none" stroke="#000000" stroke-miterlimit="10" x1="321.5" y1="107.5" x2="321.5" y2="85.5"/>
	<line fill="none" stroke="#000000" stroke-miterlimit="10" x1="321.5" y1="107.5" x2="321.5" y2="137.7"/>
	<line fill="none" stroke="#000000" stroke-miterlimit="10" x1="304.8" y1="107.5" x2="304.8" y2="85.4"/>
	<line fill="none" stroke="#000000" stroke-miterlimit="10" x1="304.8" y1="107.5" x2="304.8" y2="137.7"/>
	<line fill="none" stroke="#000000" stroke-miterlimit="10" x1="556.7" y1="85.4" x2="556.7" y2="107.5"/>
	<line fill="none" stroke="#000000" stroke-miterlimit="10" x1="556.7" y1="107.5" x2="561.1" y2="107.5"/>
	<line fill="none" stroke="#000000" stroke-miterlimit="10" x1="168.6" y1="45.6" x2="168.6" y2="28"/>
	<line fill="none" stroke="#000000" stroke-miterlimit="10" x1="168.6" y1="26.5" x2="160.4" y2="26.5"/>
	<line fill="none" stroke="#000000" stroke-miterlimit="10" x1="168.6" y1="26.5" x2="168.6" y2="28"/>
	<line fill="none" stroke="#000000" stroke-miterlimit="10" x1="59.7" y1="28" x2="59.7" y2="27.5"/>
	<line fill="none" stroke="#000000" stroke-miterlimit="10" x1="479.9" y1="107.5" x2="479.9" y2="137.5"/>
	<line fill="none" stroke="#000000" stroke-miterlimit="10" x1="606.6" y1="159.3" x2="606.6" y2="176.7"/>
	<line fill="none" stroke="#000000" stroke-miterlimit="10" x1="603.1" y1="176.7" x2="606.6" y2="176.7"/>
	<line fill="none" stroke="#000000" stroke-miterlimit="10" x1="59.7" y1="45.3" x2="77.1" y2="45.3"/>
	<line fill="none" stroke="#000000" stroke-miterlimit="10" x1="168.6" y1="45.6" x2="158.1" y2="45.6"/>
</g>
<g id="Portals">
	<line id="Stair.1.floor1" fill="none" stroke="#000000" stroke-miterlimit="10" x1="39.7" y1="154.5" x2="41.4" y2="152.9"/>
	<line id="Stair.5.floor3" fill="none" stroke="#000000" stroke-miterlimit="10" x1="22.4" y1="153.7" x2="20.7" y2="155"/>
	<line id="Stair.2.floor1" fill="none" stroke="#000000" stroke-miterlimit="10" x1="78.6" y1="26" x2="76.9" y2="27.5"/>
	<line id="Stair.6.floor3" fill="none" stroke="#000000" stroke-miterlimit="10" x1="77.1" y1="45.3" x2="78.7" y2="47.1"/>
	<line id="Stair.7.floor3" fill="none" stroke="#000000" stroke-miterlimit="10" x1="158.1" y1="45.6" x2="156.4" y2="44.2"/>
	<line id="Stair.8.floor3" fill="none" stroke="#000000" stroke-miterlimit="10" x1="603.1" y1="176.7" x2="601.2" y2="177.5"/>
	<line id="Stair.4.floor1" fill="none" stroke="#000000" stroke-miterlimit="10" x1="580.3" y1="175.8" x2="578.3" y2="177.5"/>
	<line id="Stair.3.floor1" fill="none" stroke="#000000" stroke-miterlimit="10" x1="158.1" y1="26" x2="160.4" y2="26.5"/>
</g>
<g id="RoomNames">
	<text transform="matrix(1 0 0 1 20.3652 230.3633)" font-family="'ArialMT'" font-size="7.4212px">LIBRARY</text>
	<text transform="matrix(1 0 0 1 79.2109 88.1626)" font-family="'ArialMT'" font-size="7.4212px">RM 204A</text>
	<text transform="matrix(1 0 0 1 78.6162 160.7617)" font-family="'ArialMT'" font-size="7.4212px">TECH LAB</text>
	<text transform="matrix(1 0 0 1 168.6045 175.7813)" font-family="'ArialMT'" font-size="7.4212px">BOOK</text>
	<text transform="matrix(1 0 0 1 168.6045 184.6807)" font-family="'ArialMT'" font-size="7.4212px">STORE</text>
	<text transform="matrix(1 0 0 1 209.5322 177.0713)" font-family="'ArialMT'" font-size="7.4212px">RM 211B</text>
	<text transform="matrix(1 0 0 1 210.127 54.0889)" font-family="'ArialMT'" font-size="7.4212px">RM 210B</text>
	<text transform="matrix(1 0 0 1 270.0605 177.4902)" font-family="'ArialMT'" font-size="7.4212px">RM 209B</text>
	<text transform="matrix(1 0 0 1 270.0605 52.6602)" font-family="'ArialMT'" font-size="7.4212px">RM 208B</text>
	<text transform="matrix(1 0 0 1 328.5137 175.7813)" font-family="'ArialMT'" font-size="7.4212px">RM 207B</text>
	<text transform="matrix(1 0 0 1 328.5137 52.2598)" font-family="'ArialMT'" font-size="7.4212px">RM 206B</text>
	<text transform="matrix(1 0 0 1 390.209 174.0098)" font-family="'ArialMT'" font-size="7.4212px">RM 205B</text>
	<text transform="matrix(1 0 0 1 449.3262 174.0098)" font-family="'ArialMT'" font-size="7.4212px">RM 203B</text>
	<text transform="matrix(1 0 0 1 505.8789 175.7813)" font-family="'ArialMT'" font-size="7.4212px">RM 201B </text>
	<text transform="matrix(1 0 0 1 577.5303 122.0195)" font-family="'ArialMT'" font-size="5.7461px">GUIDANCE</text>
	<text transform="matrix(1 0 0 1 555.5557 63.4229)" font-family="'ArialMT'" font-size="7.4212px">TESTING</text>
	<text transform="matrix(1 0 0 1 555.5557 72.3228)" font-family="'ArialMT'" font-size="7.4212px">ROOM</text>
	<text transform="matrix(1 0 0 1 387.4365 51.8921)" font-family="'ArialMT'" font-size="7.4212px">RM 204B</text>
	<text transform="matrix(1 0 0 1 446.7422 52.855)" font-family="'ArialMT'" font-size="7.4212px">RM 202B</text>
	<text transform="matrix(1 0 0 1 493.0732 35.2173)" font-family="'ArialMT'" font-size="7.4212px">FEMALE CR</text>
	<text transform="matrix(1 0 0 1 495.0566 76.6392)" font-family="'ArialMT'" font-size="7.4212px">MALE CR</text>
	<text transform="matrix(1 0 0 1 9.4658 128.4116)" font-family="'ArialMT'" font-size="7.4212px">RM 205A</text>
	<text transform="matrix(1 0 0 1 9.1689 92.5044)" font-family="'ArialMT'" font-size="7.4212px">RM 206A</text>
	<text transform="matrix(1 0 0 1 5.1533 61.6304)" font-family="'ArialMT'" font-size="3.4538px">UTILITY ROOM 3</text>
	<text transform="matrix(1 0 0 1 9.8262 46.3789)" font-family="'ArialMT'" font-size="3.4538px">MALE CR</text>
	<text transform="matrix(1 0 0 1 9.1689 28.9233)" font-family="'ArialMT'" font-size="3.4538px">FEMALE CR</text>
</g>
</svg>
