<?xml version="1.0" encoding="utf-8"?>
<!-- Generator: Adobe Illustrator 22.0.0, SVG Export Plug-In . SVG Version: 6.00 Build 0)  -->
<svg version="1.1" id="Layer_1" xmlns="http://www.w3.org/2000/svg" xmlns:xlink="http://www.w3.org/1999/xlink" x="0px" y="0px"
	 viewBox="0 0 4628 1977" enable-background="new 0 0 4628 1977" xml:space="preserve" height="100%" width="100%">
<g id="Base">
	<polygon points="45,1824.5 57.8,1824.5 57.8,1830 39.5,1830 39.5,928.3 45,928.3 45,958.8 344.8,958.8 344.8,951.3 350,951.3 
		350,964 121,964 121,1065.5 115.5,1065.5 115.5,964.3 45.3,964.3 45.3,1213.5 116.3,1213.5 116.3,1117 121.3,1117 121.3,1213.3 
		350,1213.3 350,1345.5 379.8,1345.5 379.8,1352.3 343.8,1352.3 343.8,1219 45.5,1219 	"/>
	<rect x="344.5" y="738.2" width="5.2" height="162.3"/>
	<polygon points="39.3,709.7 44.2,709.7 44.2,683.5 344.5,683.5 344.5,686.7 349.7,686.7 349.7,673.2 344.5,673.2 344.5,679.3 
		43.8,679.3 43.8,649.3 39.3,649.3 	"/>
	<polygon points="547.3,1825.2 518.7,1825.2 518.7,1830 553.2,1830 553.2,1753.5 567.2,1753.5 567.2,1748 547.5,1748 	"/>
	<polygon points="852.3,1748.5 844.3,1748.5 844.3,1753.8 858,1753.8 858,1728.2 852.2,1728.2 	"/>
	<polygon points="521.8,1345.5 521.8,1351.7 852.5,1351.7 852.5,1381.7 856.8,1381.7 856.8,1300.5 852,1300.5 852,1346.2 
		552.5,1346.2 552.5,1314.2 547.5,1314.2 547.5,1346 	"/>
	<rect x="547.8" y="1022.5" width="5.5" height="240.5"/>
	<polygon points="547.8,952 547.8,972.5 553.3,972.5 553.3,964.3 852.3,964.3 852.3,1015 856.8,1015 856.8,928 852.3,928 852.3,959 
		553.3,959 553.3,952 	"/>
	<rect x="547.8" y="738.2" width="5.5" height="162.3"/>
	<polygon points="547.8,686.3 553.3,686.3 553.3,683.7 852.8,683.7 852.8,709 856.8,709 856.8,648.3 852.3,648.3 852.3,678.7 
		553.3,678.7 553.3,673.3 547.8,673.3 	"/>
	<rect x="547.8" y="457.3" width="5.1" height="165.5"/>
	<polygon points="852.5,428.8 858,428.8 858,398.5 552.9,398.5 552.9,388.3 547.8,388.3 547.8,406.5 552.9,406.5 552.9,403.5 
		852.5,403.5 	"/>
	<polygon points="547.8,302 547.8,312.5 553,312.5 553,307.3 852,307.3 852,302 	"/>
	<rect x="475.5" y="41.5" width="380.8" height="6.3"/>
	<path d="M307,42v6h-33v7.5h-5.8v-7.8H45.5v121h222V128h6.8v91.5h-6.8v-44.8h-222v126.8c0,0,222.3,0.5,222.3,0s0-10,0-10h5.5v33H268
		V307H45.5v90.5H268v-21.8h5.8v21.8h76v8.5H344v-2.3H45.5V432h-6.3V42H307z"/>
	<rect x="343.5" y="457.3" width="6.2" height="165"/>
	<polyline points="57.8,1830 60.6,1830 60.6,1827.8 62.9,1827.8 62.9,1824.5 57.8,1824.5 	"/>
	<circle cx="287.6" cy="1825.9" r="2"/>
	<circle cx="287.6" cy="1829" r="2"/>
	<polygon points="515.9,1827.2 512.5,1827.2 512.5,1830 518.7,1830 518.7,1825.2 515.6,1825.2 	"/>
	<polygon points="567.2,1748.8 839,1748.8 839,1750.8 839,1752.9 567.2,1752.9 	"/>
	<rect x="839" y="1749.3" width="5.3" height="3.3"/>
	<rect x="852.2" y="1387.5" width="5.8" height="340.7"/>
	<rect x="852.5" y="1381.7" width="4.3" height="5.8"/>
	<rect x="852" y="1295.5" width="4.8" height="5"/>
	<circle cx="853.8" cy="1157.5" r="1.6"/>
	<circle cx="856.6" cy="1157.5" r="1.6"/>
	<polygon points="852.3,1015 852.3,1017.6 854.8,1017.6 854.8,1020.8 856.8,1020.8 856.8,1015 	"/>
	<rect x="852.3" y="923.2" width="4.4" height="4.8"/>
	<circle cx="853.8" cy="819" r="1.5"/>
	<circle cx="856.1" cy="819" r="1.5"/>
	<rect x="853.2" y="709" width="3.6" height="5.3"/>
	<rect x="852.3" y="642.3" width="4.5" height="6.1"/>
	<circle cx="853.6" cy="538.8" r="1.3"/>
	<circle cx="856" cy="538.8" r="1.3"/>
	<line fill="none" x1="856.4" y1="537.4" x2="856.4" y2="434.3"/>
	<polygon points="852.5,428.8 852.5,432.2 855.2,432.2 855.2,434.3 858,434.3 858,428.8 	"/>
	<polygon points="39.5,928.3 39.5,923.5 42.8,923.5 42.8,925.9 45.1,925.9 45.1,928.3 	"/>
	<circle cx="41" cy="818.9" r="1.5"/>
	<circle cx="43.6" cy="818.9" r="1.5"/>
	<polygon points="39.3,709.7 39.3,713 42,713 42,715.1 44.3,715.1 44.3,709.7 	"/>
	<polygon points="39.3,649.3 39.3,644.3 41.9,644.3 41.9,646.8 43.8,646.8 43.8,649.3 	"/>
	<polyline fill="none" stroke="#000000" stroke-miterlimit="10" points="40.5,644.3 40.4,540.9 43.8,540.9 43.4,436.5 	"/>
	<circle cx="40.4" cy="540.9" r="1.7"/>
	<circle cx="43.8" cy="540.9" r="1.7"/>
	<polygon points="39.8,432 39.8,434.5 42.1,434.5 42.1,436.5 44.5,436.5 44.5,432 	"/>
	<rect x="307" y="42" width="6.9" height="5.4"/>
	<rect x="313.9" y="42.5" width="161.7" height="4.6"/>
	<polygon points="547.8,388.3 547.8,383.2 550.4,383.2 550.4,385.3 552.8,385.3 552.8,388.3 	"/>
	<circle cx="549.1" cy="350" r="1.9"/>
	<circle cx="552.8" cy="350" r="1.9"/>
	<polygon points="547.8,312.5 547.8,314.6 549.8,314.6 549.8,317.6 552.8,317.6 552.8,312.5 	"/>
	<polygon points="854.7,302 1202.7,302 1202.7,593.3 1195.3,593.3 1195.3,307 855.3,307 	"/>
	<polygon points="1196.3,593.3 1196.3,598.1 1197.5,598.1 1197.5,601.6 1200.3,601.6 1200.3,597.5 1201.9,597.5 1201.9,593.3 	"/>
	<line fill="none" x1="1199.1" y1="601.6" x2="1199.1" y2="877.6"/>
	<polygon points="1195.4,884.3 1195.4,881.3 1197.4,881.3 1197.4,877.6 1201,877.6 1201,880.9 1202.9,880.9 1202.9,884.3 	"/>
	<polygon points="1195.4,884.3 1195.4,1468.1 1508.7,1468.1 1508.7,1461.7 1466.7,1461.7 1466.7,952.3 1482.5,952.3 1482.5,945 
		1414.8,945 1414.8,952 1460,952 1460,1022.3 1337.5,1022.3 1337.5,945.7 1331,945.7 1331,1022.2 1296,1022.2 1296,1028.5 
		1460.3,1028.5 1460.3,1461.7 1202.2,1461.7 1202.2,884.3 	"/>
	<polygon points="1508.7,1462.1 1511.5,1462.1 1511.5,1463.4 1514.6,1463.4 1514.6,1466.3 1511.3,1466.3 1511.3,1467.3 
		1508.7,1467.3 	"/>
	<polygon points="1820.6,1462.4 1817.7,1462.4 1817.7,1467 1821,1467 1821,1467.7 1824.5,1467.7 1824.5,1461.8 1820.5,1461.8 	"/>
	<polygon points="1824.5,1461.8 1888.6,1461.8 1888.6,952.3 1865.3,952.3 1865.3,945.6 1919,945.6 1919,952.4 1894.8,952.4 
		1894.8,1461.8 1952.9,1461.8 1952.9,1467.5 1824.5,1467.5 	"/>
	<rect x="1952.9" y="1462.2" width="3.6" height="4.7"/>
	<polygon points="2265,1463.5 2262.5,1463.5 2262.5,1465.4 2265,1465.4 2265,1467.6 2269.6,1467.6 2269.6,1461.7 2265,1461.7 	"/>
	<polygon points="2269.6,1461.7 2340.6,1461.7 2340.6,951.8 2327.4,951.8 2327.4,945.9 2360.2,945.9 2360.2,951.7 2346.3,951.7 
		2346.3,1461.7 2397.9,1461.7 2397.9,1467.6 2269.6,1467.6 	"/>
	<rect x="2397.9" y="1462.4" width="309.8" height="4.7"/>
	<rect x="2707.2" y="1463" width="6.6" height="3.3"/>
	<polygon points="2713.8,1461.5 2713.8,1467.7 2842.3,1467.7 2842.3,1461.5 2797.7,1461.5 2797.7,952.2 2811.5,952.2 2811.5,945.2 
		2779,945.2 2779,952.1 2791.7,952.1 2791.7,1461.6 	"/>
	<polygon points="3158.8,1461.2 3158.8,1468.2 3306,1468.2 3306,1461.2 3248.3,1461.2 3248.3,952.3 3262.5,952.3 3262.5,945.5 
		3229.3,945.5 3229.3,952.2 3241.8,952.2 3241.8,1461.2 	"/>
	<polygon points="3693,1460.7 3622.7,1460.7 3622.7,1467.7 3771.3,1467.7 3771.3,1460.7 3700,1460.7 3700,952 3731.7,952 
		3731.7,944.7 3649.7,944.7 3649.7,952.5 3693.5,952.5 	"/>
	<polygon points="4145,1461 4086.3,1461 4086.3,1467.2 4188.3,1467.2 4188.3,1461 4151,1461 4151,945.2 4132,945.2 4132,951.3 
		4145.2,951.3 	"/>
	<rect x="3819.5" y="944.7" width="225" height="7.6"/>
	<rect x="3350.5" y="944.7" width="212" height="7.6"/>
	<rect x="2897.5" y="944.7" width="244.8" height="7.6"/>
	<rect x="2447.5" y="944.7" width="244.2" height="7.6"/>
	<rect x="2007.5" y="944.7" width="232.8" height="7.6"/>
	<rect x="1567.5" y="944.7" width="210.5" height="7.6"/>
	<rect x="2842.3" y="1463.3" width="310.2" height="3"/>
	<rect x="3152.5" y="1462.8" width="6.3" height="3.9"/>
	<rect x="3306" y="1462.5" width="311.9" height="3.9"/>
	<rect x="3617.9" y="1461.9" width="4.8" height="4.4"/>
	<rect x="3771.3" y="1462.3" width="308.8" height="3.6"/>
	<rect x="4080.9" y="1462.5" width="5.5" height="3.6"/>
	<rect x="4188.3" y="1462.9" width="129.6" height="3.4"/>
	<rect x="4317.9" y="1462.3" width="6.6" height="4.1"/>
	<polygon points="4324.5,1461.4 4324.5,1467.5 4610.6,1467.5 4610.6,1418.4 4604.5,1418.4 4604.5,1461.5 	"/>
	<polygon points="4606,1418.4 4606,1411 4609.6,1411 4609.6,1418.2 	"/>
	<rect x="4604.5" y="952" width="6.3" height="49.3"/>
	<rect x="4606.3" y="1001.3" width="3" height="409.7"/>
	<polygon points="4597.8,919.8 4604.5,919.8 4604.5,952 4320.9,952 4320.9,738 4327.8,738 4327.8,945.3 4597.3,945.3 	"/>
	<rect x="4599.1" y="912.7" width="4.2" height="7.2"/>
	<polygon points="4598.3,734.7 4604.5,734.7 4604.5,564.5 4570.8,526.2 4565.7,530.8 4590.8,559.7 4252.8,559.7 4252.8,565.8 
		4321.2,565.8 4321.2,650.5 4327.3,650.5 4327.3,566 4597.8,566 	"/>
	<rect x="4599.3" y="734.7" width="4.3" height="178"/>
	<path d="M4570,526.9l-2.7-3.2l-3.8,3.8l2.7,2.8C4566.2,530.4,4570,526.6,4570,526.9z"/>
	<polygon points="4209.6,113.8 4204.7,118.3 4150.8,57 4150.8,559.3 4165.5,559.3 4165.5,565 4144.5,565 4144.5,49.3 4128.3,49.3 
		4128.3,43.3 4144.3,43.3 4144.3,39 	"/>
	<polygon points="4208.6,114.7 4212.4,119.1 4211.3,120.1 4209,122.2 4205.8,117.3 	"/>
	<rect x="4047.8" y="44.8" width="80.5" height="3.6"/>
	<polygon points="4048.1,43.3 4048.1,49.8 4022.3,49.8 4022.3,243 4009.3,243 4009.3,236 4016.5,236 4016.5,50 3700,50 3700,300.8 
		3912.5,300.8 3912.5,236.3 3944.8,236.3 3944.8,243 3918.8,243 3918.8,378.8 3946.8,378.8 3946.8,384.8 3912.5,384.8 3912.5,307.8 
		3700,307.8 3700,559 4016,559 4016,384.8 4011,384.8 4011,378.5 4022.5,378.5 4022.5,565 3681.8,565 3681.8,559 3693.8,559 
		3693.8,49.8 3623,49.8 3623,43.3 	"/>
	<rect x="3351" y="559.2" width="242.5" height="5.8"/>
	<rect x="2917" y="559.2" width="224.3" height="5.8"/>
	<rect x="2449" y="559.2" width="211.5" height="5.8"/>
	<rect x="1999" y="559.2" width="240.3" height="5.8"/>
	<rect x="1570" y="559.2" width="218" height="5.8"/>
	<polygon points="3306,42.7 3306,49.7 3249,49.7 3249,559.2 3262.7,559.2 3262.7,565 3230,565 3230,559.2 3242.3,559.2 3242.3,49.7 
		3165.3,49.7 3165.3,42.7 	"/>
	<polygon points="2848.7,42.7 2848.7,50 2797.3,50 2797.3,559.2 2829,559.2 2829,565 2747,565 2747,559.2 2791.3,559.2 2791.3,49.7 
		2720.7,49.7 2720.7,42.7 	"/>
	<polygon points="2404.1,43.5 2404.1,49.3 2346.5,49.3 2346.5,559.2 2360.8,559.2 2360.8,565 2327.5,565 2327.5,559.2 2340.5,559.2 
		2340.5,49.3 2275.8,49.3 2275.8,43.5 	"/>
	<polygon points="1959.6,43.3 1959.6,49.6 1895.2,49.6 1895.2,559.2 1909.8,559.2 1909.8,565 1876.5,565 1876.5,559.2 1888.7,559.2 
		1888.7,49.3 1853.3,49.3 1853.3,43.3 	"/>
	<polygon points="1468,49.5 1537.2,49.5 1537.2,43.2 1441.2,43.2 1441.2,49.5 1461.5,49.5 1461.5,565 1482.5,565 1482.5,559.2 
		1467.7,559.2 	"/>
	<rect x="858" y="43.3" width="389.4" height="6.6"/>
	<rect x="3616.7" y="44.9" width="6.3" height="2.8"/>
	<rect x="3306" y="44.2" width="310.7" height="3.9"/>
	<rect x="3159.4" y="44.6" width="5.9" height="3.6"/>
	<rect x="2848.7" y="44.5" width="311.1" height="4.6"/>
	<rect x="2714.3" y="44.1" width="6.3" height="4.6"/>
	<rect x="2404.1" y="44.6" width="310.7" height="3.9"/>
	<rect x="2270.3" y="44.9" width="5.4" height="3.4"/>
	<rect x="1959.6" y="44.9" width="309.9" height="3.1"/>
	<rect x="1846.4" y="44.7" width="7" height="3.7"/>
	<rect x="1537.2" y="44.8" width="310.6" height="3.3"/>
	<rect x="1247.4" y="44.6" width="193.7" height="4.1"/>
	<rect x="1247.4" y="45.3" display="none" width="7.3" height="3"/>
	<rect x="1202.2" y="1021.7" display="none" width="16.7" height="7.2"/>
	<g id="Stairs">
		<rect x="171.5" y="1090" fill="none" stroke="#000000" stroke-miterlimit="10" width="153" height="111.5"/>
		<polyline fill="none" stroke="#000000" stroke-miterlimit="10" points="311,1090 311,1201.5 296,1201.5 296,1090 282,1090 
			282,1201.5 269,1201.5 269,1090 255,1090 255,1201.5 240,1201.5 240,1090 227.5,1090 227.5,1201.5 214,1201.5 214,1090 198,1090 
			198,1201.5 185.5,1201.5 185.5,1090 		"/>
		<rect x="171.5" y="971.5" fill="none" stroke="#000000" stroke-miterlimit="10" width="153" height="111.5"/>
		<polyline fill="none" stroke="#000000" stroke-miterlimit="10" points="311,971.5 311,1083 296,1083 296,971.5 282,971.5 
			282,1083 269,1083 269,971.5 255,971.5 255,1083 240,1083 240,971.5 227.5,971.5 227.5,1083 214,1083 214,971.5 198,971.5 
			198,1083 185.5,1083 185.5,971.5 		"/>
		<rect x="160" y="1078.5" fill="none" stroke="#000000" stroke-miterlimit="10" width="174.5" height="18.5"/>
		<path fill="none" stroke="#000000" stroke-miterlimit="10" d="M156.5,1195l-3.1,4.1c0,0-1.3,5.5,4.9,0h191.5l2.3,2.4
			c0,0,5.6-1.3-1.5-5.6L156.5,1195z"/>
		<path fill="none" stroke="#000000" stroke-miterlimit="10" d="M145.4,979.2l-3.4-3.3c0,0-0.4-5.4,4.5,0l191.5,0.3l2.8-2
			c0,0,5.1,1-1.9,4.9L145.4,979.2L145.4,979.2z"/>
		<rect x="577.5" y="62.6" fill="none" stroke="#000000" stroke-miterlimit="10" width="153" height="111.5"/>
		<polyline fill="none" stroke="#000000" stroke-miterlimit="10" points="717,174.1 717,62.6 702,62.6 702,174.1 688,174.1 
			688,62.6 675,62.6 675,174.1 661,174.1 661,62.6 646,62.6 646,174.1 633.5,174.1 633.5,62.6 620,62.6 620,174.1 604,174.1 
			604,62.6 591.5,62.6 591.5,174.1 		"/>
		<rect x="577.5" y="181.1" fill="none" stroke="#000000" stroke-miterlimit="10" width="153" height="111.5"/>
		<polyline fill="none" stroke="#000000" stroke-miterlimit="10" points="717,292.6 717,181.1 702,181.1 702,292.6 688,292.6 
			688,181.1 675,181.1 675,292.6 661,292.6 661,181.1 646,181.1 646,292.6 633.5,292.6 633.5,181.1 620,181.1 620,292.6 604,292.6 
			604,181.1 591.5,181.1 591.5,292.6 		"/>
		<rect x="566" y="167.1" fill="none" stroke="#000000" stroke-miterlimit="10" width="174.5" height="18.5"/>
		<path fill="none" stroke="#000000" stroke-miterlimit="10" d="M562.5,69.1l-3.1-4.1c0,0-1.3-5.5,4.9,0h191.5l2.3-2.4
			c0,0,5.6,1.3-1.5,5.6L562.5,69.1z"/>
		<path fill="none" stroke="#000000" stroke-miterlimit="10" d="M551.4,284.9l-3.4,3.3c0,0-0.4,5.4,4.5,0l191.5-0.3l2.8,2
			c0,0,5.1-1-1.9-4.9H551.4V284.9L551.4,284.9z"/>
		<rect x="163.5" y="1083" fill="none" stroke="#000000" stroke-miterlimit="10" width="166.5" height="11"/>
		<rect x="569.5" y="170.1" fill="none" stroke="#000000" stroke-miterlimit="10" width="166.5" height="11"/>
		<rect x="922.7" y="181.1" fill="none" stroke="#000000" stroke-miterlimit="10" width="256.7" height="123"/>
		<polyline fill="none" stroke="#000000" stroke-miterlimit="10" points="1162.3,181.1 1162.3,304.1 1145.7,304.1 1145.7,181.1 
			1128.3,181.1 1128.3,304.1 1111.7,304.1 1111.7,181.1 1095.3,181.1 1095.3,304.1 1077.3,304.1 1077.3,181.1 1060,181.1 
			1060,304.1 1043.3,304.1 1043.3,181.1 1027,181.1 1027,304.1 1010,304.1 1010,181.1 993,181.1 993,304.1 977,304.1 977,181.1 
			959,181.1 959,304.1 941.7,304.1 941.7,181.1 		"/>
		<rect x="922.7" y="49.8" fill="none" stroke="#000000" stroke-miterlimit="10" width="256.7" height="123"/>
		<polyline fill="none" stroke="#000000" stroke-miterlimit="10" points="1162.3,49.8 1162.3,172.8 1145.7,172.8 1145.7,49.8 
			1128.3,49.8 1128.3,172.8 1111.7,172.8 1111.7,49.8 1095.3,49.8 1095.3,172.8 1077.3,172.8 1077.3,49.8 1060,49.8 1060,172.8 
			1043.3,172.8 1043.3,49.8 1027,49.8 1027,172.8 1010,172.8 1010,49.8 993,49.8 993,172.8 977,172.8 977,49.8 959,49.8 959,172.8 
			941.7,172.8 941.7,49.8 		"/>
		<rect x="914.7" y="170.3" fill="none" stroke="#000000" stroke-miterlimit="10" width="274.3" height="15"/>
		<rect x="912" y="167.7" fill="none" stroke="#000000" stroke-miterlimit="10" width="277" height="21.3"/>
		<path fill="none" stroke="#000000" stroke-miterlimit="10" d="M893,52.6l-2-1.9c0,0-6.8-3.1-2,3.6l2.6,1.9h305.5l5-4.3
			c0,0,0.5-6.1-5,1.1L893,52.6z"/>
		<rect x="4368.7" y="1214.3" fill="none" stroke="#000000" stroke-miterlimit="10" width="194" height="204"/>
		<polyline fill="none" stroke="#000000" stroke-miterlimit="10" points="4544.7,1214.3 4544.7,1418.4 4526,1418.4 4526,1214.3 
			4508,1214.3 4508,1418.4 4491.3,1418.4 4491.3,1214.3 4474.7,1214.3 4474.7,1418.4 4456.5,1418.4 4456.5,1214.3 4438.5,1214.3 
			4438.5,1418.4 4421.5,1418.4 4421.5,1214.3 4405,1214.3 4405,1418.4 4387.5,1418.4 4387.5,1214.3 		"/>
		<rect x="4368.7" y="1001.8" fill="none" stroke="#000000" stroke-miterlimit="10" width="194" height="204"/>
		<polyline fill="none" stroke="#000000" stroke-miterlimit="10" points="4544.7,1001.8 4544.7,1205.9 4526,1205.9 4526,1001.8 
			4508,1001.8 4508,1205.9 4491.3,1205.9 4491.3,1001.8 4474.7,1001.8 4474.7,1205.9 4456.5,1205.9 4456.5,1001.8 4438.5,1001.8 
			4438.5,1205.9 4421.5,1205.9 4421.5,1001.8 4405,1001.8 4405,1205.9 4387.5,1205.9 4387.5,1001.8 		"/>
		<rect x="4360.7" y="1201.6" fill="none" stroke="#000000" stroke-miterlimit="10" width="210" height="17.1"/>
		<rect x="4356.3" y="1198.3" fill="none" stroke="#000000" stroke-miterlimit="10" width="217.7" height="22.7"/>
		<path fill="none" stroke="#000000" stroke-miterlimit="10" d="M4351.3,1411.4l-4.9,4.3c0,0-0.1,7.1,6.6,0h240.3l3.5,3.2
			c0,0,6.6-1.9-1.8-7.4L4351.3,1411.4L4351.3,1411.4z"/>
		<path fill="none" stroke="#000000" stroke-miterlimit="10" d="M4337,1004.3l-2-2.5c0,0-7.3-2.2,0,6.2h243.5l5.3-4.3
			c0,0,0.7-6.3-5,1.1L4337,1004.3z"/>
	</g>
	<polyline fill="none" stroke="#000000" stroke-miterlimit="10" points="62.9,1825.9 287.6,1825.9 287.6,1829 512.5,1829 	"/>
	<polyline fill="none" stroke="#000000" stroke-miterlimit="10" points="854.4,1295.5 854.4,1157.5 856.6,1157.5 856.6,1020.8 	"/>
	<polyline fill="none" stroke="#000000" stroke-miterlimit="10" points="854.5,923.2 853.8,819.1 856.1,819.1 855,714.3 	"/>
	<polyline fill="none" stroke="#000000" stroke-miterlimit="10" points="854.7,642.3 853.6,538.8 856,538.8 856.4,434.3 	"/>
	<polyline fill="none" stroke="#000000" stroke-miterlimit="10" points="549.1,383.2 549.1,350 552.8,350 552,317.6 	"/>
	<polygon points="4566.4,524.6 4564.8,526.2 4209.9,121.4 4211.6,119.8 	"/>
	<rect x="1514.6" y="1463.4" width="303.1" height="2.8"/>
	<rect x="1956.5" y="1463.4" width="306" height="2.8"/>
	<polyline fill="none" stroke="#000000" stroke-miterlimit="10" points="41,923.5 41,818.9 43.6,818.9 43.3,715.1 	"/>
</g>
<g id="Rooms">
	<a id="Faculty" xlink:href="#" >
		<g>
			<polygon fill="#FFFFFF" points="46.2,1219.6 342.9,1219.6 342.9,1353.1 851.6,1353.1 851.6,1746.3 546.3,1746.3 546.3,1822.5 
				46.2,1822.5 			"/>
			<path fill="#FFFFFF" stroke="#000000" stroke-miterlimit="10" d="M383.3,1353.1v73.3c0,0,69.4-7.5,69.4-69.4
				c0,0-0.1,69.4,61.9,69.4v-73.3"/>
		</g>
	</a>
	<a id="rm.301a_3_" xlink:href="#" >
		<g>
			<rect x="553.8" y="965.1" fill="#FFFFFF" width="297.4" height="379.5"/>
			<path fill="#FFFFFF" stroke="#000000" stroke-miterlimit="10" d="M553.8,1309H610c0,0-13.3-42.7-56.2-42.7"/>
			<path fill="#FFFFFF" stroke="#000000" stroke-miterlimit="10" d="M553.8,975.8H610c0,0-5.1,46.5-56.2,45.3"/>
		</g>
	</a>
	<a id="rm.302a_2_" xlink:href="#" >
		<g>
			<rect x="554.3" y="684.3" fill="#FFFFFF" width="297.9" height="273.4"/>
			<path fill="#FFFFFF" stroke="#000000" stroke-miterlimit="10" d="M554.3,689.9H610c0,0-3.5,45.4-55.8,44.8"/>
			<path fill="#FFFFFF" stroke="#000000" stroke-miterlimit="10" d="M554.3,950.3H610c0,0-2-47.2-55.8-49.1"/>
		</g>
	</a>
	<a id="rm.303a_3_" xlink:href="#" >
		<g>
			<rect x="553.8" y="404.8" fill="#FFFFFF" width="297.6" height="272.9"/>
			<path fill="#FFFFFF" stroke="#000000" stroke-miterlimit="10" d="M553.8,671.5H610c0,0-4-46-56.3-45.5"/>
			<path fill="#FFFFFF" stroke="#000000" stroke-miterlimit="10" d="M553.8,408.8H610c0,0,4.3,45.9-56.3,45.9"/>
		</g>
	</a>
	<a id="PhysicsLab" xlink:href="#" >
		<g>
			<rect x="46.7" y="685.1" fill="#FFFFFF" width="296.3" height="272.8"/>
			<path fill="#FFFFFF" stroke="#000000" stroke-miterlimit="10" d="M343,947h-54c0,0,12-42.7,54-40.7"/>
			<path fill="#FFFFFF" stroke="#000000" stroke-miterlimit="10" d="M343,691.7h-54c0,0,3.3,43.8,54,44.1"/>
		</g>
	</a>
	<a id="BiochemLab_3_" xlink:href="#" >
		<g>
			<rect x="45.9" y="405.1" fill="#FFFFFF" width="297.1" height="273.2"/>
			<path fill="#FFFFFF" stroke="#000000" stroke-miterlimit="10" d="M343.1,670.1H289c0,0-4.8-46.6,54-45"/>
			<path fill="#FFFFFF" stroke="#000000" stroke-miterlimit="10" d="M343.1,409.1h-54.2c0,0-6,43.4,54.2,45.4"/>
		</g>
	</a>
	<a id="UtilityRoom3" xlink:href="#" >
		<g>
			<rect x="46.9" y="307.8" fill="#FFFFFF" width="219.9" height="89.2"/>
			<path fill="#FFFFFF" stroke="#000000" stroke-miterlimit="10" d="M266.9,325.3h-52c0,0,5.3,49.5,52,48.5"/>
		</g>
	</a>
	<a id="MaleCR_3_" xlink:href="#" >
		<g>
			<rect x="47.1" y="176.2" fill="#FFFFFF" width="219.3" height="124.5"/>
			<path fill="#FFFFFF" stroke="#000000" stroke-miterlimit="10" d="M266.4,287.3h-68c0,0,5.1-62,68-63.7"/>
		</g>
	</a>
	<a id="FemaleCR" xlink:href="#" >
		<g>
			<rect x="46.6" y="49.1" fill="#FFFFFF" width="220.8" height="118.9"/>
			<path fill="#FFFFFF" stroke="#000000" stroke-miterlimit="10" d="M267.3,57h-69c0,0,1,66.6,69,69.1"/>
		</g>
	</a>
	<a id="rm.301b" xlink:href="#" >
		<g>
			<rect x="3700.8" y="952.6" fill="#FFFFFF" width="443.6" height="507.8"/>
			<path fill="#FFFFFF" stroke="#000000" stroke-miterlimit="10" d="M3738,952.6v66.7c0,0,76.3-15.4,78.2-66.7"/>
			<path fill="#FFFFFF" stroke="#000000" stroke-miterlimit="10" d="M4127,952.6v66.7c0,0-80.7-6.8-78.3-66.7"/>
		</g>
	</a>
	<a id="rm.302b" xlink:href="#" >
		<g>
			<rect x="3249.6" y="50.4" fill="#FFFFFF" width="443.2" height="508.1"/>
			<path fill="#FFFFFF" stroke="#000000" stroke-miterlimit="10" d="M3677.3,558.5V491c0,0-77.8,8.5-79.8,67.5"/>
			<path fill="#FFFFFF" stroke="#000000" stroke-miterlimit="10" d="M3268,558.5V491c0,0,79.8,16,79.8,67.5"/>
		</g>
	</a>
	<a id="rm.303b" xlink:href="#" >
		<g>
			<rect x="3249.3" y="952.9" fill="#FFFFFF" width="443.1" height="507.1"/>
			<path fill="#FFFFFF" stroke="#000000" stroke-miterlimit="10" d="M3267.2,952.9v66.4c0,0,79.3-5.5,79.6-66.4"/>
			<path fill="#FFFFFF" stroke="#000000" stroke-miterlimit="10" d="M3645,952.6v66.7c0,0-82.8-35.8-78.5-66.4"/>
		</g>
	</a>
	<a id="rm.304b_1_" xlink:href="#" >
		<g>
			<rect x="2798.6" y="50.9" fill="#FFFFFF" width="442.4" height="507.6"/>
			<path fill="#FFFFFF" stroke="#000000" stroke-miterlimit="10" d="M3225.5,558.5V491c0,0-76.8,6-79.5,67.5"/>
			<path fill="#FFFFFF" stroke="#000000" stroke-miterlimit="10" d="M2835.5,558.5V491c0,0,79.5,14.5,78.5,67.5"/>
		</g>
	</a>
	<a id="rm.305b" xlink:href="#" >
		<g>
			<rect x="2798.7" y="953.3" fill="#FFFFFF" width="442" height="506"/>
			<path fill="#FFFFFF" stroke="#000000" stroke-miterlimit="10" d="M2815.8,953.3v66c0,0,78.8-7.3,80.5-66"/>
			<path fill="#FFFFFF" stroke="#000000" stroke-miterlimit="10" d="M3224.5,953.3v66c0,0-82.3-11-78.3-66"/>
		</g>
	</a>
	<a id="rm.306b_1_" xlink:href="#" >
		<g>
			<rect x="2350" y="55.7" fill="#FFFFFF" width="438.5" height="500.8"/>
			<path fill="#FFFFFF" stroke="#000000" stroke-miterlimit="10" d="M2740.7,556.5V491c0,0-75.7,18.7-76.7,65.5"/>
			<path fill="#FFFFFF" stroke="#000000" stroke-miterlimit="10" d="M2365.7,556.5V491c0,0,80.2,16.5,79.5,65.5"/>
		</g>
	</a>
	<a id="rm.307b" xlink:href="#" >
		<g>
			<rect x="2347.8" y="953.3" fill="#FFFFFF" width="441.9" height="506"/>
			<path fill="#FFFFFF" stroke="#000000" stroke-miterlimit="10" d="M2366.8,953.3v66c0,0,81.3-5.2,78.5-66"/>
			<path fill="#FFFFFF" stroke="#000000" stroke-miterlimit="10" d="M2773.2,953.3v66c0,0-77-13-77.4-66"/>
		</g>
	</a>
	<a id="rm.308b_1_" xlink:href="#" >
		<g>
			<rect x="1897" y="55.7" fill="#FFFFFF" width="440.8" height="500.8"/>
			<path fill="#FFFFFF" stroke="#000000" stroke-miterlimit="10" d="M2320.5,556.5V491c0,0-76,10-78,65.5"/>
			<path fill="#FFFFFF" stroke="#000000" stroke-miterlimit="10" d="M1915,556.5V491c0,0,75.5,12.5,77.5,65.5"/>
		</g>
	</a>
	<a id="rm.309b" xlink:href="#" >
		<g>
			<rect x="1896.7" y="953.3" fill="#FFFFFF" width="440.8" height="506"/>
			<path fill="#FFFFFF" stroke="#000000" stroke-miterlimit="10" d="M1924.7,953.3v66c0,0,74.7-9,78.7-66"/>
			<path fill="#FFFFFF" stroke="#000000" stroke-miterlimit="10" d="M2322.8,953.3v66c0,0-77.4-3.7-78.8-66"/>
		</g>
	</a>
	<a id="rm.310b_1_" xlink:href="#" >
		<g>
			<rect x="1472" y="52.3" fill="#FFFFFF" width="413.3" height="504.2"/>
			<path fill="#FFFFFF" stroke="#000000" stroke-miterlimit="10" d="M1870.3,556.5V491c0,0-73.3,15-78.5,65.5"/>
			<path fill="#FFFFFF" stroke="#000000" stroke-miterlimit="10" d="M1486.5,556.5V491c0,0,79,14.5,79.5,65.5"/>
		</g>
	</a>
	<a id="rm.311b" xlink:href="#" >
		<g>
			<rect x="1467.6" y="953.2" fill="#FFFFFF" width="419.8" height="506.2"/>
			<path fill="#FFFFFF" stroke="#000000" stroke-miterlimit="10" d="M1488,953.2v66.2c0,0,73.7-17.3,77.5-66.2"/>
			<path fill="#FFFFFF" stroke="#000000" stroke-miterlimit="10" d="M1859,953.2v66.2c0,0-76-10.5-77.5-66.2"/>
		</g>
	</a>
	<a id="StockRoom_1_" xlink:href="#" >
		<g>
			<rect x="1203.3" y="1028.8" fill="#FFFFFF" width="254.8" height="427.4"/>
			<path fill="#FFFFFF" stroke="#000000" stroke-miterlimit="10" d="M1222.3,1028.8v77.2c0,0,67.7-14,70-77.2"/>
		</g>
	</a>
	<a id="besideStockroom" xlink:href="#" >
		<g>
			<rect x="1338.2" y="953.2" fill="#FFFFFF" width="119.8" height="68.1"/>
			<path fill="#FFFFFF" stroke="#000000" stroke-miterlimit="10" d="M1343.5,953.2v41.3c0,0,66.3,0.6,68.8-41.3"/>
		</g>
	</a>
	<a id="OSARoom" xlink:href="#" >
		<g>
			<rect x="4328.5" y="568" fill="#FFFFFF" width="267.2" height="374.3"/>
			<path fill="#FFFFFF" stroke="#000000" stroke-miterlimit="10" d="M4328.5,734.7h108.2c0,0-9.7-74.3-108.2-81"/>
		</g>
	</a>
	<a id="SACRoom" xlink:href="#" >
		<g>
			<polygon fill="#FFFFFF" points="4151.4,59.1 4151.4,557.7 4587.7,557.7 			"/>
			<path fill="#FFFFFF" stroke="#000000" stroke-miterlimit="10" d="M4171.5,557.7V486c0,0,76,21.8,78,71.7"/>
		</g>
	</a>
	<a id="MaleCR_2_" xlink:href="#" >
		<g>
			<polygon fill="#FFFFFF" points="3702,309.7 3702,557.3 4014.3,557.3 4014.3,385.7 3911,385.7 3911,309.7 			"/>
			<path fill="#FFFFFF" stroke="#000000" stroke-miterlimit="10" d="M4008.2,385.7v47.8c0,0-57.5-4.8-58.5-47.8"/>
		</g>
	</a>
	<a id="FemaleCR_2_" xlink:href="#" >
		<g>
			<polygon fill="#FFFFFF" points="3702.1,299.5 3911.1,299.5 3911.1,235 4015.5,235 4015.5,51 3700.9,51 3700.9,299.5 			"/>
			<path fill="#FFFFFF" stroke="#000000" stroke-miterlimit="10" d="M4006.7,235v-50.7c0,0-56.3,9.3-58.3,50.7"/>
		</g>
	</a>
</g>
<g id="Paths">
	<line fill="none" stroke="#000000" stroke-miterlimit="10" x1="463.5" y1="1353.1" x2="463.5" y2="1292.5"/>
	<line fill="none" stroke="#000000" stroke-miterlimit="10" x1="463.5" y1="1292.5" x2="553.8" y2="1292.5"/>
	<line fill="none" stroke="#000000" stroke-miterlimit="10" x1="463.5" y1="1292.5" x2="463.5" y2="1009"/>
	<line fill="none" stroke="#000000" stroke-miterlimit="10" x1="463.5" y1="1009" x2="553.8" y2="1009"/>
	<line fill="none" stroke="#000000" stroke-miterlimit="10" x1="463.5" y1="1009" x2="463.5" y2="926.6"/>
	<line fill="none" stroke="#000000" stroke-miterlimit="10" x1="463.5" y1="926.6" x2="343" y2="926.6"/>
	<line fill="none" stroke="#000000" stroke-miterlimit="10" x1="463.5" y1="926.6" x2="554.3" y2="926.6"/>
	<line fill="none" stroke="#000000" stroke-miterlimit="10" x1="463.5" y1="926.6" x2="463.5" y2="704"/>
	<line fill="none" stroke="#000000" stroke-miterlimit="10" x1="463.5" y1="704" x2="463.5" y2="647.6"/>
	<line fill="none" stroke="#000000" stroke-miterlimit="10" x1="463.5" y1="647.6" x2="463.5" y2="428.8"/>
	<line fill="none" stroke="#000000" stroke-miterlimit="10" x1="463.5" y1="428.8" x2="463.5" y2="343"/>
	<line fill="none" stroke="#000000" stroke-miterlimit="10" x1="463.5" y1="343" x2="463.5" y2="255.5"/>
	<line fill="none" stroke="#000000" stroke-miterlimit="10" x1="463.5" y1="255.5" x2="463.5" y2="130.3"/>
	<line fill="none" stroke="#000000" stroke-miterlimit="10" x1="463.5" y1="91.6" x2="267.3" y2="91.6"/>
	<line fill="none" stroke="#000000" stroke-miterlimit="10" x1="463.5" y1="255.5" x2="266.4" y2="255.5"/>
	<line fill="none" stroke="#000000" stroke-miterlimit="10" x1="463.5" y1="343" x2="266.9" y2="343"/>
	<line fill="none" stroke="#000000" stroke-miterlimit="10" x1="463.5" y1="428.8" x2="343.1" y2="428.8"/>
	<line fill="none" stroke="#000000" stroke-miterlimit="10" x1="463.5" y1="428.8" x2="553.8" y2="428.8"/>
	<line fill="none" stroke="#000000" stroke-miterlimit="10" x1="463.5" y1="647.6" x2="553.8" y2="647.6"/>
	<line fill="none" stroke="#000000" stroke-miterlimit="10" x1="463.5" y1="647.6" x2="343.1" y2="647.6"/>
	<line fill="none" stroke="#000000" stroke-miterlimit="10" x1="463.5" y1="704" x2="554.3" y2="704"/>
	<line fill="none" stroke="#000000" stroke-miterlimit="10" x1="463.5" y1="704" x2="343" y2="704"/>
	<line fill="none" stroke="#000000" stroke-miterlimit="10" x1="4371.2" y1="1340.3" x2="4256.4" y2="1340.3"/>
	<line fill="none" stroke="#000000" stroke-miterlimit="10" x1="4256.4" y1="1340.3" x2="4256.4" y2="1103.9"/>
	<line fill="none" stroke="#000000" stroke-miterlimit="10" x1="4256.4" y1="1103.9" x2="4594.3" y2="1103.9"/>
	<line fill="none" stroke="#000000" stroke-miterlimit="10" x1="4256.4" y1="1103.9" x2="4256.4" y2="702"/>
	<line fill="none" stroke="#000000" stroke-miterlimit="10" x1="4256.4" y1="702" x2="4209.6" y2="702"/>
	<line fill="none" stroke="#000000" stroke-miterlimit="10" x1="4256.4" y1="702" x2="4328.5" y2="702"/>
	<line fill="none" stroke="#000000" stroke-miterlimit="10" x1="4209.6" y1="702" x2="4209.6" y2="557.7"/>
	<line fill="none" stroke="#000000" stroke-miterlimit="10" x1="4209.6" y1="702" x2="4086.3" y2="702"/>
	<line fill="none" stroke="#000000" stroke-miterlimit="10" x1="4086.3" y1="702" x2="4086.3" y2="308.4"/>
	<line fill="none" stroke="#000000" stroke-miterlimit="10" x1="4086.3" y1="308.4" x2="3978.9" y2="308.4"/>
	<line fill="none" stroke="#000000" stroke-miterlimit="10" x1="3978.9" y1="308.4" x2="3978.9" y2="385.7"/>
	<line fill="none" stroke="#000000" stroke-miterlimit="10" x1="3978.9" y1="308.4" x2="3978.9" y2="235"/>
	<line fill="none" stroke="#000000" stroke-miterlimit="10" x1="4086.3" y1="702" x2="4086.3" y2="952.6"/>
	<line fill="none" stroke="#000000" stroke-miterlimit="10" x1="4086.3" y1="702" x2="3777.1" y2="702"/>
	<line fill="none" stroke="#000000" stroke-miterlimit="10" x1="3622.7" y1="702" x2="3307.9" y2="702"/>
	<line fill="none" stroke="#000000" stroke-miterlimit="10" x1="3307.9" y1="702" x2="3185.8" y2="702"/>
	<line fill="none" stroke="#000000" stroke-miterlimit="10" x1="3185.8" y1="702" x2="2874.8" y2="702"/>
	<line fill="none" stroke="#000000" stroke-miterlimit="10" x1="2874.8" y1="702" x2="2720.7" y2="702"/>
	<line fill="none" stroke="#000000" stroke-miterlimit="10" x1="2720.7" y1="702" x2="2406.1" y2="702"/>
	<line fill="none" stroke="#000000" stroke-miterlimit="10" x1="2406.1" y1="702" x2="2290.6" y2="702"/>
	<line fill="none" stroke="#000000" stroke-miterlimit="10" x1="3622.7" y1="702" x2="3622.7" y2="558.5"/>
	<line fill="none" stroke="#000000" stroke-miterlimit="10" x1="3622.7" y1="702" x2="3622.7" y2="952.9"/>
	<line fill="none" stroke="#000000" stroke-miterlimit="10" x1="3307.9" y1="702" x2="3307.9" y2="558.5"/>
	<line fill="none" stroke="#000000" stroke-miterlimit="10" x1="3307.9" y1="702" x2="3307.9" y2="952.9"/>
	<line fill="none" stroke="#000000" stroke-miterlimit="10" x1="3185.8" y1="702" x2="3185.8" y2="558.5"/>
	<line fill="none" stroke="#000000" stroke-miterlimit="10" x1="3185.8" y1="702" x2="3185.8" y2="953.3"/>
	<line fill="none" stroke="#000000" stroke-miterlimit="10" x1="2874.8" y1="702" x2="2874.8" y2="558.5"/>
	<line fill="none" stroke="#000000" stroke-miterlimit="10" x1="2874.8" y1="702" x2="2874.8" y2="953.3"/>
	<line fill="none" stroke="#000000" stroke-miterlimit="10" x1="2720.7" y1="702" x2="2720.7" y2="556.5"/>
	<line fill="none" stroke="#000000" stroke-miterlimit="10" x1="2720.7" y1="702" x2="2720.7" y2="953.3"/>
	<line fill="none" stroke="#000000" stroke-miterlimit="10" x1="2406.1" y1="702" x2="2406.1" y2="556.5"/>
	<line fill="none" stroke="#000000" stroke-miterlimit="10" x1="2406.1" y1="702" x2="2406.1" y2="953.3"/>
	<line fill="none" stroke="#000000" stroke-miterlimit="10" x1="2290.6" y1="702" x2="2290.6" y2="556.5"/>
	<line fill="none" stroke="#000000" stroke-miterlimit="10" x1="2290.6" y1="702" x2="2290.6" y2="953.3"/>
	<line fill="none" stroke="#000000" stroke-miterlimit="10" x1="2290.6" y1="702" x2="1959.6" y2="702"/>
	<line fill="none" stroke="#000000" stroke-miterlimit="10" x1="1959.6" y1="702" x2="1959.6" y2="953.3"/>
	<line fill="none" stroke="#000000" stroke-miterlimit="10" x1="1959.6" y1="702" x2="1959.6" y2="556.5"/>
	<line fill="none" stroke="#000000" stroke-miterlimit="10" x1="1833" y1="702" x2="1526.3" y2="702"/>
	<line fill="none" stroke="#000000" stroke-miterlimit="10" x1="1526.3" y1="702" x2="1526.3" y2="556.5"/>
	<line fill="none" stroke="#000000" stroke-miterlimit="10" x1="1526.3" y1="702" x2="1526.3" y2="953.2"/>
	<line fill="none" stroke="#000000" stroke-miterlimit="10" x1="1526.3" y1="702" x2="1374" y2="702"/>
	<line fill="none" stroke="#000000" stroke-miterlimit="10" x1="1374" y1="702" x2="1374" y2="953.2"/>
	<line fill="none" stroke="#000000" stroke-miterlimit="10" x1="1374" y1="702" x2="1262" y2="702"/>
	<line fill="none" stroke="#000000" stroke-miterlimit="10" x1="1262" y1="702" x2="1262" y2="1028.8"/>
	<line fill="none" stroke="#000000" stroke-miterlimit="10" x1="1262" y1="702" x2="1262" y2="255.5"/>
	<line fill="none" stroke="#000000" stroke-miterlimit="10" x1="1833" y1="702" x2="1833" y2="556.5"/>
	<line fill="none" stroke="#000000" stroke-miterlimit="10" x1="1833" y1="702" x2="1833" y2="953.2"/>
	<line fill="none" stroke="#000000" stroke-miterlimit="10" x1="1833" y1="702" x2="1959.6" y2="702"/>
	<line fill="none" stroke="#000000" stroke-miterlimit="10" x1="826.5" y1="255.5" x2="826.5" y2="91.6"/>
	<line fill="none" stroke="#000000" stroke-miterlimit="10" x1="826.5" y1="255.5" x2="924.7" y2="255.5"/>
	<line fill="none" stroke="#000000" stroke-miterlimit="10" x1="3777.1" y1="702" x2="3777.1" y2="952.6"/>
	<line fill="none" stroke="#000000" stroke-miterlimit="10" x1="3622.7" y1="702" x2="3777.1" y2="702"/>
	<line fill="none" stroke="#000000" stroke-miterlimit="10" x1="463.5" y1="91.6" x2="826.5" y2="91.6"/>
	<line fill="none" stroke="#000000" stroke-miterlimit="10" x1="826.5" y1="91.6" x2="1262" y2="91.6"/>
	<line fill="none" stroke="#000000" stroke-miterlimit="10" x1="1262" y1="255.5" x2="1262" y2="219.3"/>
	<line fill="none" stroke="#000000" stroke-miterlimit="10" x1="1262" y1="219.3" x2="1177.6" y2="219.3"/>
	<line fill="none" stroke="#000000" stroke-miterlimit="10" x1="1262" y1="91.6" x2="1262" y2="219.3"/>
	<line fill="none" stroke="#000000" stroke-miterlimit="10" x1="4594.3" y1="1103.9" x2="4594.3" y2="1309"/>
	<line fill="none" stroke="#000000" stroke-miterlimit="10" x1="4594.3" y1="1309" x2="4560.3" y2="1309"/>
	<line fill="none" stroke="#000000" stroke-miterlimit="10" x1="322" y1="1009" x2="463.5" y2="1009"/>
	<line fill="none" stroke="#000000" stroke-miterlimit="10" x1="727.9" y1="255.5" x2="826.5" y2="255.5"/>
	<line fill="none" stroke="#000000" stroke-miterlimit="10" x1="463.5" y1="130.3" x2="463.5" y2="91.6"/>
</g>
<g id="Doors">
	<line id="Faculty_1_" fill="none" stroke="#000000" stroke-miterlimit="10" x1="514.7" y1="1398.5" x2="463.5" y2="1353.1"/>
	<line id="rm.301a" fill="none" stroke="#000000" stroke-miterlimit="10" x1="575.6" y1="1309" x2="553.8" y2="1292.5"/>
	<line id="rm.301a_1_" fill="none" stroke="#000000" stroke-miterlimit="10" x1="571.5" y1="1019.3" x2="553.8" y2="1009"/>
	<line id="rm.302a_1_" fill="none" stroke="#000000" stroke-miterlimit="10" x1="580.5" y1="950.3" x2="554.3" y2="926.6"/>
	<line id="rm.302a" fill="none" stroke="#000000" stroke-miterlimit="10" x1="581.5" y1="729.7" x2="554.3" y2="704"/>
	<line id="rm.303a" fill="none" stroke="#000000" stroke-miterlimit="10" x1="585.5" y1="671.5" x2="553.8" y2="647.6"/>
	<line id="rm.303a_1_" fill="none" stroke="#000000" stroke-miterlimit="10" x1="587.6" y1="447.8" x2="553.8" y2="428.8"/>
	<line id="PhysicsLab_1_" fill="none" stroke="#000000" stroke-miterlimit="10" x1="309.8" y1="916.4" x2="343" y2="926.6"/>
	<line id="PhysicsLab_2_" fill="none" stroke="#000000" stroke-miterlimit="10" x1="321.2" y1="691.7" x2="343" y2="704"/>
	<line id="BiochemLab_1_" fill="none" stroke="#000000" stroke-miterlimit="10" x1="316" y1="628.7" x2="343.1" y2="647.6"/>
	<line id="BiochemLab" fill="none" stroke="#000000" stroke-miterlimit="10" x1="322.1" y1="409.1" x2="343.1" y2="428.8"/>
	<line id="UtilityRoom3_1_" fill="none" stroke="#000000" stroke-miterlimit="10" x1="235.5" y1="325.3" x2="266.9" y2="343"/>
	<line id="MaleCR_1_" fill="none" stroke="#000000" stroke-miterlimit="10" x1="227.2" y1="235.7" x2="266.4" y2="255.5"/>
	<line id="FemaleCR_1_" fill="none" stroke="#000000" stroke-miterlimit="10" x1="233.7" y1="57" x2="267.3" y2="91.6"/>
	<line id="StockRoom" fill="none" stroke="#000000" stroke-miterlimit="10" x1="1222.3" y1="1073.5" x2="1262" y2="1028.8"/>
	<line fill="none" stroke="#000000" stroke-miterlimit="10" x1="1343.5" y1="981.8" x2="1374" y2="953.2"/>
	<line id="rm.311b_2_" fill="none" stroke="#000000" stroke-miterlimit="10" x1="1488" y1="991.8" x2="1526.3" y2="953.2"/>
	<line id="rm.311b_1_" fill="none" stroke="#000000" stroke-miterlimit="10" x1="1800.4" y1="993.4" x2="1833" y2="953.2"/>
	<line id="rm.309b_1_" fill="none" stroke="#000000" stroke-miterlimit="10" x1="1924.7" y1="993.4" x2="1959.6" y2="953.3"/>
	<line id="rm.309b_2_" fill="none" stroke="#000000" stroke-miterlimit="10" x1="2262" y1="995.5" x2="2290.6" y2="953.3"/>
	<line id="rm.307b_1_" fill="none" stroke="#000000" stroke-miterlimit="10" x1="2366.8" y1="995.5" x2="2406.1" y2="953.3"/>
	<line id="rm.307b_2_" fill="none" stroke="#000000" stroke-miterlimit="10" x1="2707.5" y1="985.4" x2="2720.7" y2="953.3"/>
	<line id="rm.305b_3_" fill="none" stroke="#000000" stroke-miterlimit="10" x1="2815.8" y1="988.5" x2="2874.8" y2="953.3"/>
	<line id="rm.305b_4_" fill="none" stroke="#000000" stroke-miterlimit="10" x1="3158.2" y1="988.5" x2="3185.8" y2="953.3"/>
	<line id="rm.303b_1_" fill="none" stroke="#000000" stroke-miterlimit="10" x1="3267.2" y1="988.5" x2="3307.9" y2="952.9"/>
	<line id="rm.303b_2_" fill="none" stroke="#000000" stroke-miterlimit="10" x1="3590.9" y1="988.5" x2="3622.7" y2="952.9"/>
	<line id="rm.301b_1_" fill="none" stroke="#000000" stroke-miterlimit="10" x1="3738" y1="988.5" x2="3777.1" y2="952.6"/>
	<line id="rm.301b_2_" fill="none" stroke="#000000" stroke-miterlimit="10" x1="4060.1" y1="988.5" x2="4086.3" y2="952.6"/>
	<line id="OSARoom_1_" fill="none" stroke="#000000" stroke-miterlimit="10" x1="4368.3" y1="734.7" x2="4328.5" y2="702"/>
	<line id="SACRoom_1_" fill="none" stroke="#000000" stroke-miterlimit="10" x1="4237" y1="526.2" x2="4209.6" y2="557.7"/>
	<line id="MaleCR" fill="none" stroke="#000000" stroke-miterlimit="10" x1="3965.6" y1="417.4" x2="3978.9" y2="385.7"/>
	<line id="FemaleCR_3_" fill="none" stroke="#000000" stroke-miterlimit="10" x1="4006.7" y1="206.1" x2="3978.9" y2="235"/>
	<line id="rm.302b_1_" fill="none" stroke="#000000" stroke-miterlimit="10" x1="3677.3" y1="515.8" x2="3622.7" y2="558.5"/>
	<line id="rm.302b_2_" fill="none" stroke="#000000" stroke-miterlimit="10" x1="3324.2" y1="515.8" x2="3307.9" y2="558.5"/>
	<line id="rm.304b" fill="none" stroke="#000000" stroke-miterlimit="10" x1="3225.5" y1="515.8" x2="3185.8" y2="558.5"/>
	<line id="rm.304b_2_" fill="none" stroke="#000000" stroke-miterlimit="10" x1="2892" y1="515.8" x2="2874.8" y2="558.5"/>
	<line id="rm.306b" fill="none" stroke="#000000" stroke-miterlimit="10" x1="2740.7" y1="515.8" x2="2720.7" y2="556.5"/>
	<line id="rm.306b_2_" fill="none" stroke="#000000" stroke-miterlimit="10" x1="2422.3" y1="515.8" x2="2406.1" y2="556.5"/>
	<line id="rm.308b" fill="none" stroke="#000000" stroke-miterlimit="10" x1="2320.5" y1="515.8" x2="2290.6" y2="556.5"/>
	<line id="rm.308b_2_" fill="none" stroke="#000000" stroke-miterlimit="10" x1="1971.3" y1="515.8" x2="1959.6" y2="556.5"/>
	<line id="rm.310b" fill="none" stroke="#000000" stroke-miterlimit="10" x1="1870.3" y1="515.8" x2="1833" y2="556.5"/>
	<line id="rm.310b_2_" fill="none" stroke="#000000" stroke-miterlimit="10" x1="1543.8" y1="515.8" x2="1526.3" y2="556.5"/>
</g>
<g id="Portals">
	<line id="Stair.5.floor2" fill="none" stroke="#000000" stroke-miterlimit="10" x1="311" y1="1018.4" x2="322" y2="1009"/>
	<line fill="none" stroke="#000000" stroke-miterlimit="10" x1="4560.3" y1="1309" x2="4544.7" y2="1324.1"/>
	<line id="Stair.8.floor2" fill="none" stroke="#000000" stroke-miterlimit="10" x1="4387.5" y1="1328.3" x2="4371.2" y2="1340.3"/>
	<line id="Stair.7.floor2" fill="none" stroke="#000000" stroke-miterlimit="10" x1="941.7" y1="242.6" x2="924.7" y2="255.5"/>
	<line fill="none" stroke="#000000" stroke-miterlimit="10" x1="1162.3" y1="233.4" x2="1177.6" y2="219.3"/>
	<line id="Stair.6.floor2" fill="none" stroke="#000000" stroke-miterlimit="10" x1="727.9" y1="255.5" x2="717.8" y2="245"/>
</g>
<g id="RoomNames">
	<text transform="matrix(1 0 0 1 214.8335 1612.0596)" font-family="'ArialMT'" font-size="50px">FACULTY</text>
	<text transform="matrix(1 0 0 1 1262.0002 1242.5565)" font-family="'ArialMT'" font-size="50px">STOCK</text>
	<text transform="matrix(1 0 0 1 1262.0002 1302.5565)" font-family="'ArialMT'" font-size="50px">ROOM</text>
	<text transform="matrix(1 0 0 1 1621.2944 1227.5835)" font-family="'ArialMT'" font-size="50px">311B</text>
	<text transform="matrix(1 0 0 1 1621.2947 284.9371)" font-family="'ArialMT'" font-size="50px">310B</text>
	<text transform="matrix(1 0 0 1 2065.2725 284.9373)" font-family="'ArialMT'" font-size="50px">308B</text>
	<text transform="matrix(1 0 0 1 2514.4365 284.9373)" font-family="'ArialMT'" font-size="50px">306B</text>
	<text transform="matrix(1 0 0 1 2971.4302 279.1976)" font-family="'ArialMT'" font-size="50px">304B</text>
	<text transform="matrix(1 0 0 1 3417.2324 279.1978)" font-family="'ArialMT'" font-size="50px">302B</text>
	<text transform="matrix(1 0 0 1 3736.7168 473.4878)" font-family="'ArialMT'" font-size="50px">FEMALE CR</text>
	<text transform="matrix(1 0 0 1 4387.9795 809.9783)" font-family="'ArialMT'" font-size="50px">OSA</text>
	<text transform="matrix(1 0 0 1 4387.9795 869.9783)" font-family="'ArialMT'" font-size="50px">OFFICE</text>
	<text transform="matrix(1 0 0 1 4195.0313 473.488)" font-family="'ArialMT'" font-size="50px">SAC ROOM</text>
	<text transform="matrix(1 0 0 1 3747.2158 152.5044)" font-family="'ArialMT'" font-size="50px">MALE CR</text>
	<text transform="matrix(1 0 0 1 2071.3394 1227.5837)" font-family="'ArialMT'" font-size="50px">309B</text>
	<text transform="matrix(1 0 0 1 2514.437 1219.5831)" font-family="'ArialMT'" font-size="50px">307B</text>
	<text transform="matrix(1 0 0 1 2971.4297 1227.5834)" font-family="'ArialMT'" font-size="50px">305B</text>
	<text transform="matrix(1 0 0 1 3411.4741 1227.5831)" font-family="'ArialMT'" font-size="50px">303B</text>
	<text transform="matrix(1 0 0 1 3863.5215 1227.5835)" font-family="'ArialMT'" font-size="50px">301B</text>
	<text transform="matrix(0 -1 1 0 708.7344 1201.5703)" font-family="'ArialMT'" font-size="50px">301A</text>
	<text transform="matrix(0 -1 1 0 153.27 900.5)" font-family="'ArialMT'" font-size="50px">PHYSICS</text>
	<text transform="matrix(0 -1 1 0 213.27 900.5)" font-family="'ArialMT'" font-size="50px">LAB</text>
	<text transform="matrix(0 -1 1 0 171.5 638.1758)" font-family="'ArialMT'" font-size="50px">BIOCHEM</text>
	<text transform="matrix(0 -1 1 0 231.5 638.1758)" font-family="'ArialMT'" font-size="50px">LAB</text>
	<text transform="matrix(1 0 0 1 90.999 342.9998)" font-family="'ArialMT'" font-size="50.1496px">UTILITY</text>
	<text transform="matrix(1 0 0 1 90.999 376.7998)" font-family="'ArialMT'" font-size="50.1496px">ROOM3</text>
	<text transform="matrix(1 0 0 1 65.0002 230.856)" font-family="'ArialMT'" font-size="50.8789px">MALE CR</text>
	<text transform="matrix(1 0 0 1 55.0002 138.856)" font-family="'ArialMT'" font-size="50.8789px">FEMALE CR</text>
	<text transform="matrix(0 -1 1 0 708.7344 871.8438)" font-family="'ArialMT'" font-size="50px">302A</text>
	<text transform="matrix(0 -1 1 0 702.875 591.1875)" font-family="'ArialMT'" font-size="50px">303A</text>
</g>
</svg>
