<?xml version="1.0" encoding="utf-8"?>
<!-- Generator: Adobe Illustrator 22.0.0, SVG Export Plug-In . SVG Version: 6.00 Build 0)  -->
<svg version="1.1" id="Layer_1" xmlns="http://www.w3.org/2000/svg" xmlns:xlink="http://www.w3.org/1999/xlink" x="0px" y="0px"
	 viewBox="0 0 612 249.3" enable-background="new 0 0 612 249.3" xml:space="preserve" height="100%" width="100%">
<g id="Base">
	<polygon points="6,244.6 7.6,244.6 7.6,245.3 5.2,245.3 5.2,126 6,126 6,130.1 45.6,130.1 45.6,129.1 46.3,129.1 46.3,130.8 
		16,130.8 16,144.2 15.3,144.2 15.3,130.8 6,130.8 6,163.8 15.4,163.8 15.4,151 16,151 16,163.7 46.3,163.7 46.3,181.2 50.2,181.2 
		50.2,182.1 45.5,182.1 45.5,164.5 6,164.5 	"/>
	<rect x="45.6" y="100.9" width="0.7" height="21.5"/>
	<polygon points="5.2,97.1 5.8,97.1 5.8,93.7 45.6,93.7 45.6,94.1 46.2,94.1 46.2,92.3 45.6,92.3 45.6,93.1 5.8,93.1 5.8,89.1 
		5.2,89.1 	"/>
	<polygon points="72.4,244.6 68.6,244.6 68.6,245.3 73.2,245.3 73.2,235.2 75,235.2 75,234.4 72.4,234.4 	"/>
	<polygon points="112.7,234.5 111.6,234.5 111.6,235.2 113.5,235.2 113.5,231.8 112.7,231.8 	"/>
	<polygon points="69,181.2 69,182 112.7,182 112.7,186 113.3,186 113.3,175.3 112.7,175.3 112.7,181.3 73.1,181.3 73.1,177.1 
		72.4,177.1 72.4,181.3 	"/>
	<rect x="72.4" y="138.5" width="0.7" height="31.8"/>
	<polygon points="72.4,129.2 72.4,131.9 73.2,131.9 73.2,130.8 112.7,130.8 112.7,137.5 113.3,137.5 113.3,126 112.7,126 
		112.7,130.1 73.2,130.1 73.2,129.2 	"/>
	<rect x="72.4" y="100.9" width="0.7" height="21.5"/>
	<polygon points="72.4,94 73.2,94 73.2,93.7 112.8,93.7 112.8,97 113.3,97 113.3,89 112.7,89 112.7,93 73.2,93 73.2,92.3 72.4,92.3 
			"/>
	<rect x="72.4" y="63.8" width="0.7" height="21.9"/>
	<polygon points="112.7,60 113.5,60 113.5,56 73.1,56 73.1,54.6 72.4,54.6 72.4,57 73.1,57 73.1,56.6 112.7,56.6 	"/>
	<polygon points="72.4,43.2 72.4,44.6 73.1,44.6 73.1,43.9 112.7,43.9 112.7,43.2 	"/>
	<rect x="62.9" y="8.8" width="50.4" height="0.8"/>
	<path d="M40.6,8.8v0.8h-4.4v1h-0.8v-1H6v16h29.4v-5.4h0.9v12.1h-0.9v-5.9H6v16.8c0,0,29.4,0.1,29.4,0s0-1.3,0-1.3h0.7v4.4h-0.7V44
		H6v12h29.4v-3h0.8v2.9h10.1V57h-0.8v-0.3H6v3.7H5.2V8.8L40.6,8.8L40.6,8.8z"/>
	<rect x="45.4" y="63.8" width="0.8" height="21.8"/>
	<polyline points="7.6,245.3 8,245.3 8,245 8.3,245 8.3,244.6 7.6,244.6 	"/>
	<circle cx="38" cy="244.7" r="0.3"/>
	<circle cx="38" cy="245.1" r="0.3"/>
	<polygon points="68.2,244.9 67.8,244.9 67.8,245.3 68.6,245.3 68.6,244.6 68.2,244.6 	"/>
	<polygon points="75,234.5 110.9,234.5 110.9,234.8 110.9,235.1 75,235.1 	"/>
	<rect x="110.9" y="234.6" width="0.7" height="0.4"/>
	<rect x="112.7" y="186.8" width="0.8" height="45.1"/>
	<rect x="112.7" y="186" width="0.6" height="0.8"/>
	<rect x="112.7" y="174.6" width="0.6" height="0.7"/>
	<circle cx="112.9" cy="156.3" r="0.2"/>
	<circle cx="113.3" cy="156.3" r="0.2"/>
	<polygon points="112.7,137.5 112.7,137.8 113,137.8 113,138.3 113.3,138.3 113.3,137.5 	"/>
	<rect x="112.7" y="125.4" width="0.6" height="0.6"/>
	<circle cx="112.9" cy="111.6" r="0.2"/>
	<circle cx="113.2" cy="111.6" r="0.2"/>
	<rect x="112.8" y="97" width="0.5" height="0.7"/>
	<rect x="112.7" y="88.2" width="0.6" height="0.8"/>
	<circle cx="112.9" cy="74.5" r="0.2"/>
	<circle cx="113.2" cy="74.5" r="0.2"/>
	<line fill="none" x1="113.2" y1="74.3" x2="113.2" y2="60.7"/>
	<polygon points="112.7,60 112.7,60.4 113.1,60.4 113.1,60.7 113.5,60.7 113.5,60 	"/>
	<polygon points="5.2,126 5.2,125.4 5.7,125.4 5.7,125.7 6,125.7 6,126 	"/>
	<circle cx="5.4" cy="111.6" r="0.2"/>
	<circle cx="5.8" cy="111.6" r="0.2"/>
	<polygon points="5.2,97.1 5.2,97.6 5.6,97.6 5.6,97.8 5.9,97.8 5.9,97.1 	"/>
	<polygon points="5.2,89.1 5.2,88.5 5.5,88.5 5.5,88.8 5.8,88.8 5.8,89.1 	"/>
	<polyline fill="none" stroke="#000000" stroke-miterlimit="10" points="5.4,88.5 5.3,74.8 5.8,74.8 5.7,61 	"/>
	<circle cx="5.3" cy="74.8" r="0.2"/>
	<circle cx="5.8" cy="74.8" r="0.2"/>
	<polygon points="5.3,60.4 5.3,60.7 5.6,60.7 5.6,61 5.9,61 5.9,60.4 	"/>
	<rect x="40.6" y="8.8" width="0.9" height="0.7"/>
	<rect x="41.5" y="8.9" width="21.4" height="0.6"/>
	<polygon points="72.4,54.6 72.4,54 72.8,54 72.8,54.2 73.1,54.2 73.1,54.6 	"/>
	<circle cx="72.6" cy="49.6" r="0.3"/>
	<circle cx="73.1" cy="49.6" r="0.3"/>
	<polygon points="72.4,44.6 72.4,44.9 72.7,44.9 72.7,45.3 73.1,45.3 73.1,44.6 	"/>
	<polygon points="113,43.2 159,43.2 159,81.7 158.1,81.7 158.1,43.9 113.1,43.9 	"/>
	<polygon points="158.2,81.7 158.2,82.4 158.4,82.4 158.4,82.8 158.7,82.8 158.7,82.3 158.9,82.3 158.9,81.7 	"/>
	<line fill="none" x1="158.6" y1="82.8" x2="158.6" y2="119.3"/>
	<polygon points="158.1,120.2 158.1,119.8 158.3,119.8 158.3,119.3 158.8,119.3 158.8,119.8 159.1,119.8 159.1,120.2 	"/>
	<polygon points="158.1,120.2 158.1,197.4 199.5,197.4 199.5,196.6 194,196.6 194,129.2 196,129.2 196,128.2 187.1,128.2 
		187.1,129.2 193.1,129.2 193.1,138.5 176.9,138.5 176.9,128.3 176,128.3 176,138.5 171.4,138.5 171.4,139.3 193.1,139.3 
		193.1,196.6 159,196.6 159,120.2 	"/>
	<polygon points="199.5,196.6 199.9,196.6 199.9,196.8 200.3,196.8 200.3,197.2 199.9,197.2 199.9,197.3 199.5,197.3 	"/>
	<polygon points="240.8,196.7 240.4,196.7 240.4,197.3 240.8,197.3 240.8,197.4 241.3,197.4 241.3,196.6 240.7,196.6 	"/>
	<polygon points="241.3,196.6 249.7,196.6 249.7,129.2 246.7,129.2 246.7,128.3 253.8,128.3 253.8,129.2 250.6,129.2 250.6,196.6 
		258.2,196.6 258.2,197.3 241.3,197.3 	"/>
	<rect x="258.2" y="196.6" width="0.5" height="0.6"/>
	<polygon points="299.5,196.8 299.2,196.8 299.2,197.1 299.5,197.1 299.5,197.4 300.1,197.4 300.1,196.6 299.5,196.6 	"/>
	<polygon points="300.1,196.6 309.5,196.6 309.5,129.1 307.8,129.1 307.8,128.4 312.1,128.4 312.1,129.1 310.3,129.1 310.3,196.6 
		317.1,196.6 317.1,197.4 300.1,197.4 	"/>
	<rect x="317.1" y="196.7" width="41" height="0.6"/>
	<rect x="358" y="196.7" width="0.9" height="0.4"/>
	<polygon points="358.9,196.5 358.9,197.4 375.9,197.4 375.9,196.5 370,196.5 370,129.2 371.8,129.2 371.8,128.3 367.5,128.3 
		367.5,129.2 369.2,129.2 369.2,196.6 	"/>
	<polygon points="417.7,196.5 417.7,197.4 437.2,197.4 437.2,196.5 429.6,196.5 429.6,129.2 431.4,129.2 431.4,128.3 427,128.3 
		427,129.2 428.7,129.2 428.7,196.5 	"/>
	<polygon points="488.4,196.4 479.1,196.4 479.1,197.4 498.7,197.4 498.7,196.4 489.3,196.4 489.3,129.2 493.5,129.2 493.5,128.2 
		482.6,128.2 482.6,129.2 488.4,129.2 	"/>
	<polygon points="548.1,196.5 540.4,196.5 540.4,197.3 553.9,197.3 553.9,196.5 548.9,196.5 548.9,128.3 546.4,128.3 546.4,129.1 
		548.2,129.1 	"/>
	<rect x="505.1" y="128.2" width="29.8" height="1"/>
	<rect x="443.1" y="128.2" width="28" height="1"/>
	<rect x="383.2" y="128.2" width="32.4" height="1"/>
	<rect x="323.7" y="128.2" width="32.3" height="1"/>
	<rect x="265.5" y="128.2" width="30.8" height="1"/>
	<rect x="207.3" y="128.2" width="27.8" height="1"/>
	<rect x="375.9" y="196.8" width="41" height="0.4"/>
	<rect x="416.9" y="196.7" width="0.8" height="0.5"/>
	<rect x="437.2" y="196.7" width="41.2" height="0.5"/>
	<rect x="478.4" y="196.6" width="0.6" height="0.6"/>
	<rect x="498.7" y="196.7" width="40.8" height="0.5"/>
	<rect x="539.7" y="196.7" width="0.7" height="0.5"/>
	<rect x="553.9" y="196.7" width="17.1" height="0.4"/>
	<rect x="571" y="196.7" width="0.9" height="0.5"/>
	<polygon points="571.9,196.5 571.9,197.3 609.7,197.3 609.7,190.8 608.9,190.8 608.9,196.5 	"/>
	<polygon points="609.1,190.8 609.1,189.9 609.6,189.9 609.6,190.8 	"/>
	<rect x="608.9" y="129.2" width="0.8" height="6.5"/>
	<rect x="609.1" y="135.7" width="0.4" height="54.2"/>
	<polygon points="608,124.9 608.9,124.9 608.9,129.2 571.4,129.2 571.4,100.9 572.3,100.9 572.3,128.3 607.9,128.3 	"/>
	<rect x="608.2" y="124" width="0.6" height="1"/>
	<polygon points="608.1,100.4 608.9,100.4 608.9,77.9 604.4,72.9 603.8,73.5 607.1,77.3 562.4,77.3 562.4,78.1 571.4,78.1 
		571.4,89.3 572.2,89.3 572.2,78.1 608,78.1 	"/>
	<rect x="608.2" y="100.4" width="0.6" height="23.5"/>
	<path d="M604.3,73l-0.4-0.4l-0.5,0.5l0.4,0.4C603.8,73.4,604.3,72.9,604.3,73z"/>
	<polygon points="556.7,18.3 556,18.9 548.9,10.8 548.9,77.2 550.8,77.2 550.8,78 548.1,78 548.1,9.8 545.9,9.8 545.9,9 548,9 
		548,8.4 	"/>
	<polygon points="556.5,18.4 557,19 556.9,19.2 556.6,19.4 556.2,18.8 	"/>
	<rect x="535.3" y="9.2" width="10.6" height="0.5"/>
	<polygon points="535.3,9 535.3,9.9 531.9,9.9 531.9,35.4 530.2,35.4 530.2,34.5 531.1,34.5 531.1,9.9 489.3,9.9 489.3,43.1 
		517.4,43.1 517.4,34.5 521.7,34.5 521.7,35.4 518.2,35.4 518.2,53.4 521.9,53.4 521.9,54.2 517.4,54.2 517.4,44 489.3,44 
		489.3,77.2 531.1,77.2 531.1,54.2 530.4,54.2 530.4,53.3 531.9,53.3 531.9,78 486.9,78 486.9,77.2 488.5,77.2 488.5,9.9 479.1,9.9 
		479.1,9 	"/>
	<rect x="443.1" y="77.2" width="32.1" height="0.8"/>
	<rect x="385.7" y="77.2" width="29.7" height="0.8"/>
	<rect x="323.9" y="77.2" width="28" height="0.8"/>
	<rect x="264.3" y="77.2" width="31.8" height="0.8"/>
	<rect x="207.6" y="77.2" width="28.8" height="0.8"/>
	<polygon points="437.2,8.9 437.2,9.9 429.6,9.9 429.6,77.2 431.5,77.2 431.5,78 427.1,78 427.1,77.2 428.8,77.2 428.8,9.9 
		418.6,9.9 418.6,8.9 	"/>
	<polygon points="376.7,8.9 376.7,9.9 369.9,9.9 369.9,77.2 374.1,77.2 374.1,78 363.3,78 363.3,77.2 369.1,77.2 369.1,9.9 
		359.8,9.9 359.8,8.9 	"/>
	<polygon points="317.9,9 317.9,9.8 310.3,9.8 310.3,77.2 312.2,77.2 312.2,78 307.8,78 307.8,77.2 309.5,77.2 309.5,9.8 300.9,9.8 
		300.9,9 	"/>
	<polygon points="259.1,9 259.1,9.8 250.6,9.8 250.6,77.2 252.5,77.2 252.5,78 248.1,78 248.1,77.2 249.8,77.2 249.8,9.8 245.1,9.8 
		245.1,9 	"/>
	<polygon points="194.1,9.8 203.3,9.8 203.3,9 190.6,9 190.6,9.8 193.3,9.8 193.3,78 196,78 196,77.2 194.1,77.2 	"/>
	<rect x="113.5" y="9" width="51.5" height="0.9"/>
	<rect x="478.3" y="9.2" width="0.8" height="0.4"/>
	<rect x="437.2" y="9.1" width="41.1" height="0.5"/>
	<rect x="417.8" y="9.2" width="0.8" height="0.5"/>
	<rect x="376.7" y="9.2" width="41.1" height="0.6"/>
	<rect x="358.9" y="9.1" width="0.8" height="0.6"/>
	<rect x="317.9" y="9.2" width="41.1" height="0.5"/>
	<rect x="300.2" y="9.2" width="0.7" height="0.4"/>
	<rect x="259.1" y="9.2" width="41" height="0.4"/>
	<rect x="244.2" y="9.2" width="0.9" height="0.5"/>
	<rect x="203.3" y="9.2" width="41.1" height="0.4"/>
	<rect x="165" y="9.2" width="25.6" height="0.5"/>
	<rect x="165" y="9.3" display="none" width="1" height="0.4"/>
	<rect x="159" y="138.4" display="none" width="2.2" height="1"/>
	<g id="Stairs">
		<rect x="22.7" y="147.4" fill="none" stroke="#000000" stroke-miterlimit="10" width="20.2" height="14.7"/>
		<polyline fill="none" stroke="#000000" stroke-miterlimit="10" points="41.1,147.4 41.1,162.2 39.1,162.2 39.1,147.4 37.3,147.4 
			37.3,162.2 35.6,162.2 35.6,147.4 33.7,147.4 33.7,162.2 31.7,162.2 31.7,147.4 30.1,147.4 30.1,162.2 28.3,162.2 28.3,147.4 
			26.2,147.4 26.2,162.2 24.5,162.2 24.5,147.4 		"/>
		<rect x="22.7" y="131.8" fill="none" stroke="#000000" stroke-miterlimit="10" width="20.2" height="14.7"/>
		<polyline fill="none" stroke="#000000" stroke-miterlimit="10" points="41.1,131.8 41.1,146.5 39.1,146.5 39.1,131.8 37.3,131.8 
			37.3,146.5 35.6,146.5 35.6,131.8 33.7,131.8 33.7,146.5 31.7,146.5 31.7,131.8 30.1,131.8 30.1,146.5 28.3,146.5 28.3,131.8 
			26.2,131.8 26.2,146.5 24.5,146.5 24.5,131.8 		"/>
		<rect x="21.2" y="145.9" fill="none" stroke="#000000" stroke-miterlimit="10" width="23.1" height="2.4"/>
		<path fill="none" stroke="#000000" stroke-miterlimit="10" d="M20.7,161.3l-0.4,0.5c0,0-0.2,0.7,0.6,0h25.3l0.3,0.3
			c0,0,0.7-0.2-0.2-0.7L20.7,161.3z"/>
		<path fill="none" stroke="#000000" stroke-miterlimit="10" d="M19.2,132.8l-0.4-0.4c0,0-0.1-0.7,0.6,0h25.3l0.4-0.3
			c0,0,0.7,0.1-0.3,0.6L19.2,132.8L19.2,132.8z"/>
		<rect x="76.4" y="11.6" fill="none" stroke="#000000" stroke-miterlimit="10" width="20.2" height="14.7"/>
		<polyline fill="none" stroke="#000000" stroke-miterlimit="10" points="94.8,26.3 94.8,11.6 92.8,11.6 92.8,26.3 91,26.3 91,11.6 
			89.3,11.6 89.3,26.3 87.4,26.3 87.4,11.6 85.4,11.6 85.4,26.3 83.8,26.3 83.8,11.6 82,11.6 82,26.3 79.9,26.3 79.9,11.6 
			78.2,11.6 78.2,26.3 		"/>
		<rect x="76.4" y="27.2" fill="none" stroke="#000000" stroke-miterlimit="10" width="20.2" height="14.7"/>
		<polyline fill="none" stroke="#000000" stroke-miterlimit="10" points="94.8,42 94.8,27.2 92.8,27.2 92.8,42 91,42 91,27.2 
			89.3,27.2 89.3,42 87.4,42 87.4,27.2 85.4,27.2 85.4,42 83.8,42 83.8,27.2 82,27.2 82,42 79.9,42 79.9,27.2 78.2,27.2 78.2,42 		
			"/>
		<rect x="74.8" y="25.4" fill="none" stroke="#000000" stroke-miterlimit="10" width="23.1" height="2.4"/>
		<path fill="none" stroke="#000000" stroke-miterlimit="10" d="M74.4,12.4L74,11.9c0,0-0.2-0.7,0.6,0h25.3l0.3-0.3
			c0,0,0.7,0.2-0.2,0.7L74.4,12.4z"/>
		<path fill="none" stroke="#000000" stroke-miterlimit="10" d="M72.9,41l-0.4,0.4c0,0-0.1,0.7,0.6,0h25.3l0.4,0.3
			c0,0,0.7-0.1-0.3-0.6L72.9,41L72.9,41L72.9,41z"/>
		<rect x="21.6" y="146.5" fill="none" stroke="#000000" stroke-miterlimit="10" width="22" height="1.5"/>
		<rect x="75.3" y="25.8" fill="none" stroke="#000000" stroke-miterlimit="10" width="22" height="1.5"/>
		<rect x="122" y="27.2" fill="none" stroke="#000000" stroke-miterlimit="10" width="33.9" height="16.3"/>
		<polyline fill="none" stroke="#000000" stroke-miterlimit="10" points="153.7,27.2 153.7,43.5 151.5,43.5 151.5,27.2 149.2,27.2 
			149.2,43.5 147,43.5 147,27.2 144.8,27.2 144.8,43.5 142.5,43.5 142.5,27.2 140.2,27.2 140.2,43.5 138,43.5 138,27.2 135.8,27.2 
			135.8,43.5 133.6,43.5 133.6,27.2 131.3,27.2 131.3,43.5 129.2,43.5 129.2,27.2 126.8,27.2 126.8,43.5 124.5,43.5 124.5,27.2 		
			"/>
		<rect x="122" y="9.9" fill="none" stroke="#000000" stroke-miterlimit="10" width="33.9" height="16.3"/>
		<polyline fill="none" stroke="#000000" stroke-miterlimit="10" points="153.7,9.9 153.7,26.1 151.5,26.1 151.5,9.9 149.2,9.9 
			149.2,26.1 147,26.1 147,9.9 144.8,9.9 144.8,26.1 142.5,26.1 142.5,9.9 140.2,9.9 140.2,26.1 138,26.1 138,9.9 135.8,9.9 
			135.8,26.1 133.6,26.1 133.6,9.9 131.3,9.9 131.3,26.1 129.2,26.1 129.2,9.9 126.8,9.9 126.8,26.1 124.5,26.1 124.5,9.9 		"/>
		<rect x="121" y="25.8" fill="none" stroke="#000000" stroke-miterlimit="10" width="36.3" height="2"/>
		<rect x="120.6" y="25.5" fill="none" stroke="#000000" stroke-miterlimit="10" width="36.6" height="2.8"/>
		<path fill="none" stroke="#000000" stroke-miterlimit="10" d="M118.1,10.2l-0.3-0.3c0,0-0.9-0.4-0.3,0.5l0.3,0.3h40.4l0.7-0.6
			c0,0,0.1-0.8-0.7,0.1H118.1z"/>
		<rect x="577.7" y="163.9" fill="none" stroke="#000000" stroke-miterlimit="10" width="25.7" height="27"/>
		<polyline fill="none" stroke="#000000" stroke-miterlimit="10" points="601,163.9 601,190.8 598.5,190.8 598.5,163.9 596.1,163.9 
			596.1,190.8 593.9,190.8 593.9,163.9 591.7,163.9 591.7,190.8 589.3,190.8 589.3,163.9 586.9,163.9 586.9,190.8 584.7,190.8 
			584.7,163.9 582.5,163.9 582.5,190.8 580.2,190.8 580.2,163.9 		"/>
		<rect x="577.7" y="135.8" fill="none" stroke="#000000" stroke-miterlimit="10" width="25.7" height="27"/>
		<polyline fill="none" stroke="#000000" stroke-miterlimit="10" points="601,135.8 601,162.7 598.5,162.7 598.5,135.8 596.1,135.8 
			596.1,162.7 593.9,162.7 593.9,135.8 591.7,135.8 591.7,162.7 589.3,162.7 589.3,135.8 586.9,135.8 586.9,162.7 584.7,162.7 
			584.7,135.8 582.5,135.8 582.5,162.7 580.2,162.7 580.2,135.8 		"/>
		<rect x="576.7" y="162.2" fill="none" stroke="#000000" stroke-miterlimit="10" width="27.8" height="2.3"/>
		<rect x="576.1" y="161.7" fill="none" stroke="#000000" stroke-miterlimit="10" width="28.8" height="3"/>
		<path fill="none" stroke="#000000" stroke-miterlimit="10" d="M575.4,189.9l-0.6,0.6c0,0,0,0.9,0.9,0h31.8l0.5,0.4
			c0,0,0.9-0.3-0.2-1H575.4L575.4,189.9z"/>
		<path fill="none" stroke="#000000" stroke-miterlimit="10" d="M573.5,136.1l-0.3-0.3c0,0-1-0.3,0,0.8h32.2l0.7-0.6
			c0,0,0.1-0.8-0.7,0.1H573.5z"/>
	</g>
	<polyline fill="none" stroke="#000000" stroke-miterlimit="10" points="8.3,244.7 38,244.7 38,245.1 67.8,245.1 	"/>
	<polyline fill="none" stroke="#000000" stroke-miterlimit="10" points="113,174.6 113,156.3 113.3,156.3 113.3,138.3 	"/>
	<polyline fill="none" stroke="#000000" stroke-miterlimit="10" points="113,125.4 112.9,111.6 113.2,111.6 113.1,97.7 	"/>
	<polyline fill="none" stroke="#000000" stroke-miterlimit="10" points="113,88.2 112.9,74.5 113.2,74.5 113.2,60.7 	"/>
	<polyline fill="none" stroke="#000000" stroke-miterlimit="10" points="72.6,54 72.6,49.6 73.1,49.6 73,45.3 	"/>
	<polygon points="603.9,72.7 603.6,72.9 556.7,19.3 556.9,19.1 	"/>
	<rect x="200.3" y="196.8" width="40.1" height="0.4"/>
	<rect x="258.7" y="196.8" width="40.5" height="0.4"/>
	<polyline fill="none" stroke="#000000" stroke-miterlimit="10" points="5.4,125.4 5.4,111.6 5.8,111.6 5.7,97.8 	"/>
</g>
<g id="Rooms">
	<a id="Faculty" xlink:href="#mapArea" >
		<g>
			<polygon fill="#FFFFFF" points="6.1,164.6 45.3,164.6 45.3,182.2 112.6,182.2 112.6,234.2 72.2,234.2 72.2,244.3 6.1,244.3 			
				"/>
			<path fill="#FFFFFF" stroke="#000000" stroke-miterlimit="10" d="M50.7,182.2v9.7c0,0,9.2-1,9.2-9.2c0,0,0,9.2,8.2,9.2v-9.7"/>
		</g>
	</a>
	<a id="rm.301a_3_" xlink:href="#mapArea" >
		<g>
			<rect x="73.2" y="130.9" fill="#FFFFFF" width="39.3" height="50.2"/>
			<path fill="#FFFFFF" stroke="#000000" stroke-miterlimit="10" d="M73.2,176.4h7.4c0,0-1.8-5.6-7.4-5.6"/>
			<path fill="#FFFFFF" stroke="#000000" stroke-miterlimit="10" d="M73.2,132.3h7.4c0,0-0.7,6.1-7.4,6"/>
		</g>
	</a>
	<a id="rm.302a_2_" xlink:href="#mapArea" >
		<g>
			<rect x="73.3" y="93.8" fill="#FFFFFF" width="39.4" height="36.2"/>
			<path fill="#FFFFFF" stroke="#000000" stroke-miterlimit="10" d="M73.3,94.5h7.4c0,0-0.5,6-7.4,5.9"/>
			<path fill="#FFFFFF" stroke="#000000" stroke-miterlimit="10" d="M73.3,128.9h7.4c0,0-0.3-6.2-7.4-6.5"/>
		</g>
	</a>
	<a id="rm.303a_3_" xlink:href="#mapArea" >
		<g>
			<rect x="73.2" y="56.8" fill="#FFFFFF" width="39.4" height="36.1"/>
			<path fill="#FFFFFF" stroke="#000000" stroke-miterlimit="10" d="M73.2,92.1h7.4c0,0-0.5-6.1-7.4-6"/>
			<path fill="#FFFFFF" stroke="#000000" stroke-miterlimit="10" d="M73.2,57.3h7.4c0,0,0.6,6.1-7.4,6.1"/>
		</g>
	</a>
	<a id="PhysicsLab" xlink:href="#mapArea" >
		<g>
			<rect x="6.2" y="93.9" fill="#FFFFFF" width="39.2" height="36.1"/>
			<path fill="#FFFFFF" stroke="#000000" stroke-miterlimit="10" d="M45.4,128.5h-7.1c0,0,1.6-5.6,7.1-5.4"/>
			<path fill="#FFFFFF" stroke="#000000" stroke-miterlimit="10" d="M45.4,94.8h-7.1c0,0,0.4,5.8,7.1,5.8"/>
		</g>
	</a>
	<a id="BiochemLab_3_" xlink:href="#mapArea" >
		<g>
			<rect x="6.1" y="56.9" fill="#FFFFFF" width="39.3" height="36.1"/>
			<path fill="#FFFFFF" stroke="#000000" stroke-miterlimit="10" d="M45.4,91.9h-7.2c0,0-0.6-6.2,7.1-6"/>
			<path fill="#FFFFFF" stroke="#000000" stroke-miterlimit="10" d="M45.4,57.4h-7.2c0,0-0.8,5.7,7.2,6"/>
		</g>
	</a>
	<a id="UtilityRoom3" xlink:href="#mapArea" >
		<g>
			<rect x="6.2" y="44" fill="#FFFFFF" width="29.1" height="11.8"/>
			<path fill="#FFFFFF" stroke="#000000" stroke-miterlimit="10" d="M35.3,46.3h-6.9c0,0,0.7,6.5,6.9,6.4"/>
		</g>
	</a>
	<a id="MaleCR_3_" xlink:href="#mapArea" >
		<g>
			<rect x="6.2" y="26.6" fill="#FFFFFF" width="29" height="16.5"/>
			<path fill="#FFFFFF" stroke="#000000" stroke-miterlimit="10" d="M35.2,41.3h-9c0,0,0.7-8.2,9-8.4"/>
		</g>
	</a>
	<a id="FemaleCR" xlink:href="#mapArea" >
		<g>
			<rect x="6.2" y="9.8" fill="#FFFFFF" width="29.2" height="15.7"/>
			<path fill="#FFFFFF" stroke="#000000" stroke-miterlimit="10" d="M35.3,10.8h-9.1c0,0,0.1,8.8,9.1,9.1"/>
		</g>
	</a>
	<a id="rm.301b" xlink:href="#mapArea" >
		<g>
			<rect x="489.4" y="129.3" fill="#FFFFFF" width="58.7" height="67.2"/>
			<path fill="#FFFFFF" stroke="#000000" stroke-miterlimit="10" d="M494.3,129.3v8.8c0,0,10.1-2,10.3-8.8"/>
			<path fill="#FFFFFF" stroke="#000000" stroke-miterlimit="10" d="M545.7,129.3v8.8c0,0-10.7-0.9-10.4-8.8"/>
		</g>
	</a>
	<a id="rm.302b" xlink:href="#mapArea" >
		<g>
			<rect x="429.7" y="9.9" fill="#FFFFFF" width="58.6" height="67.2"/>
			<path fill="#FFFFFF" stroke="#000000" stroke-miterlimit="10" d="M486.3,77.1v-8.9c0,0-10.3,1.1-10.6,8.9"/>
			<path fill="#FFFFFF" stroke="#000000" stroke-miterlimit="10" d="M432.2,77.1v-8.9c0,0,10.6,2.1,10.6,8.9"/>
		</g>
	</a>
	<a id="rm.303b" xlink:href="#mapArea" >
		<g>
			<rect x="429.7" y="129.3" fill="#FFFFFF" width="58.6" height="67.1"/>
			<path fill="#FFFFFF" stroke="#000000" stroke-miterlimit="10" d="M432,129.3v8.8c0,0,10.5-0.7,10.5-8.8"/>
			<path fill="#FFFFFF" stroke="#000000" stroke-miterlimit="10" d="M482,129.3v8.8c0,0-10.9-4.7-10.4-8.8"/>
		</g>
	</a>
	<a id="rm.304b_1_" xlink:href="#mapArea" >
		<g>
			<rect x="370.1" y="10" fill="#FFFFFF" width="58.5" height="67.1"/>
			<path fill="#FFFFFF" stroke="#000000" stroke-miterlimit="10" d="M426.5,77.1v-8.9c0,0-10.2,0.8-10.5,8.9"/>
			<path fill="#FFFFFF" stroke="#000000" stroke-miterlimit="10" d="M375,77.1v-8.9c0,0,10.5,1.9,10.4,8.9"/>
		</g>
	</a>
	<a id="rm.305b" xlink:href="#mapArea" >
		<g>
			<rect x="370.1" y="129.3" fill="#FFFFFF" width="58.4" height="66.9"/>
			<path fill="#FFFFFF" stroke="#000000" stroke-miterlimit="10" d="M372.4,129.3v8.7c0,0,10.4-1,10.6-8.7"/>
			<path fill="#FFFFFF" stroke="#000000" stroke-miterlimit="10" d="M426.4,129.3v8.7c0,0-10.9-1.5-10.4-8.7"/>
		</g>
	</a>
	<a id="rm.306b_1_" xlink:href="#mapArea" >
		<g>
			<rect x="310.8" y="10.6" fill="#FFFFFF" width="58" height="66.2"/>
			<path fill="#FFFFFF" stroke="#000000" stroke-miterlimit="10" d="M362.4,76.9v-8.7c0,0-10,2.5-10.1,8.7"/>
			<path fill="#FFFFFF" stroke="#000000" stroke-miterlimit="10" d="M312.8,76.9v-8.7c0,0,10.6,2.2,10.5,8.7"/>
		</g>
	</a>
	<a id="rm.307b" xlink:href="#mapArea" >
		<g>
			<rect x="310.5" y="129.3" fill="#FFFFFF" width="58.4" height="66.9"/>
			<path fill="#FFFFFF" stroke="#000000" stroke-miterlimit="10" d="M313,129.3v8.7c0,0,10.8-0.7,10.4-8.7"/>
			<path fill="#FFFFFF" stroke="#000000" stroke-miterlimit="10" d="M366.7,129.3v8.7c0,0-10.2-1.7-10.2-8.7"/>
		</g>
	</a>
	<a id="rm.308b_1_" xlink:href="#mapArea" >
		<g>
			<rect x="250.9" y="10.6" fill="#FFFFFF" width="58.3" height="66.2"/>
			<path fill="#FFFFFF" stroke="#000000" stroke-miterlimit="10" d="M306.9,76.9v-8.7c0,0-10.1,1.3-10.3,8.7"/>
			<path fill="#FFFFFF" stroke="#000000" stroke-miterlimit="10" d="M253.2,76.9v-8.7c0,0,10,1.7,10.2,8.7"/>
		</g>
	</a>
	<a id="rm.309b" xlink:href="#mapArea" >
		<g>
			<rect x="250.8" y="129.3" fill="#FFFFFF" width="58.3" height="66.9"/>
			<path fill="#FFFFFF" stroke="#000000" stroke-miterlimit="10" d="M254.5,129.3v8.7c0,0,9.9-1.2,10.4-8.7"/>
			<path fill="#FFFFFF" stroke="#000000" stroke-miterlimit="10" d="M307.2,129.3v8.7c0,0-10.2-0.5-10.4-8.7"/>
		</g>
	</a>
	<a id="rm.310b_1_" xlink:href="#mapArea" >
		<g>
			<rect x="194.7" y="10.2" fill="#FFFFFF" width="54.7" height="66.7"/>
			<path fill="#FFFFFF" stroke="#000000" stroke-miterlimit="10" d="M247.3,76.9v-8.7c0,0-9.7,2-10.4,8.7"/>
			<path fill="#FFFFFF" stroke="#000000" stroke-miterlimit="10" d="M196.6,76.9v-8.7c0,0,10.4,1.9,10.5,8.7"/>
		</g>
	</a>
	<a id="rm.311b" xlink:href="#mapArea" >
		<g>
			<rect x="194.1" y="129.3" fill="#FFFFFF" width="55.5" height="66.9"/>
			<path fill="#FFFFFF" stroke="#000000" stroke-miterlimit="10" d="M196.8,129.3v8.8c0,0,9.7-2.3,10.2-8.8"/>
			<path fill="#FFFFFF" stroke="#000000" stroke-miterlimit="10" d="M245.8,129.3v8.8c0,0-10.1-1.4-10.2-8.8"/>
		</g>
	</a>
	<a id="StockRoom_1_" xlink:href="#mapArea" >
		<g>
			<rect x="159.1" y="139.3" fill="#FFFFFF" width="33.7" height="56.5"/>
			<path fill="#FFFFFF" stroke="#000000" stroke-miterlimit="10" d="M161.6,139.3v10.2c0,0,9-1.9,9.3-10.2"/>
		</g>
	</a>
	<a id="besideStockroom" xlink:href="#mapArea" >
		<g>
			<rect x="177" y="129.3" fill="#FFFFFF" width="15.8" height="9"/>
			<path fill="#FFFFFF" stroke="#000000" stroke-miterlimit="10" d="M177.7,129.3v5.5c0,0,8.8,0.1,9.1-5.5"/>
		</g>
	</a>
	<a id="OSARoom" xlink:href="#mapArea" >
		<g>
			<rect x="572.4" y="78.4" fill="#FFFFFF" width="35.3" height="49.5"/>
			<path fill="#FFFFFF" stroke="#000000" stroke-miterlimit="10" d="M572.4,100.4h14.3c0,0-1.3-9.8-14.3-10.7"/>
		</g>
	</a>
	<a id="SACRoom" xlink:href="#mapArea" >
		<g>
			<polygon fill="#FFFFFF" points="549,11.1 549,77 606.7,77 			"/>
			<path fill="#FFFFFF" stroke="#000000" stroke-miterlimit="10" d="M551.6,77v-9.5c0,0,10.1,2.9,10.3,9.5"/>
		</g>
	</a>
	<a id="MaleCR_2_" xlink:href="#mapArea" >
		<g>
			<polygon fill="#FFFFFF" points="489.5,44.2 489.5,77 530.8,77 530.8,54.3 517.2,54.3 517.2,44.2 			"/>
			<path fill="#FFFFFF" stroke="#000000" stroke-miterlimit="10" d="M530,54.3v6.3c0,0-7.6-0.6-7.7-6.3"/>
		</g>
	</a>
	<a id="FemaleCR_2_" xlink:href="#mapArea" >
		<g>
			<polygon fill="#FFFFFF" points="489.6,42.9 517.2,42.9 517.2,34.4 531,34.4 531,10 489.4,10 489.4,42.9 			"/>
			<path fill="#FFFFFF" stroke="#000000" stroke-miterlimit="10" d="M529.8,34.4v-6.7c0,0-7.4,1.2-7.7,6.7"/>
		</g>
	</a>
</g>
<g id="Paths">
	<line fill="none" stroke="#000000" stroke-miterlimit="10" x1="61.3" y1="182.2" x2="61.3" y2="174.2"/>
	<line fill="none" stroke="#000000" stroke-miterlimit="10" x1="61.3" y1="174.2" x2="73.2" y2="174.2"/>
	<line fill="none" stroke="#000000" stroke-miterlimit="10" x1="61.3" y1="174.2" x2="61.3" y2="136.7"/>
	<line fill="none" stroke="#000000" stroke-miterlimit="10" x1="61.3" y1="136.7" x2="73.2" y2="136.7"/>
	<line id="P301A.PFaculty" fill="none" stroke="#000000" stroke-miterlimit="10" x1="61.3" y1="136.7" x2="61.3" y2="125.8"/>
	<line fill="none" stroke="#000000" stroke-miterlimit="10" x1="61.3" y1="125.8" x2="45.4" y2="125.8"/>
	<line fill="none" stroke="#000000" stroke-miterlimit="10" x1="61.3" y1="125.8" x2="73.3" y2="125.8"/>
	<line id="P302A.PPhysicsLab" fill="none" stroke="#000000" stroke-miterlimit="10" x1="61.3" y1="125.8" x2="61.3" y2="96.4"/>
	<line fill="none" stroke="#000000" stroke-miterlimit="10" x1="61.3" y1="96.4" x2="61.3" y2="88.9"/>
	<line id="P303A.PBiochemLAb" fill="none" stroke="#000000" stroke-miterlimit="10" x1="61.3" y1="88.9" x2="61.3" y2="60"/>
	<line id="PUtilityRoom3" fill="none" stroke="#000000" stroke-miterlimit="10" x1="61.3" y1="60" x2="61.3" y2="48.6"/>
	<line id="PMaleCRA3.PFemaleCRA3" fill="none" stroke="#000000" stroke-miterlimit="10" x1="61.3" y1="48.6" x2="61.3" y2="37.1"/>
	<line fill="none" stroke="#000000" stroke-miterlimit="10" x1="61.3" y1="37.1" x2="61.3" y2="20.5"/>
	<line fill="none" stroke="#000000" stroke-miterlimit="10" x1="61.3" y1="15.4" x2="35.3" y2="15.4"/>
	<line fill="none" stroke="#000000" stroke-miterlimit="10" x1="61.3" y1="37.1" x2="35.2" y2="37.1"/>
	<line fill="none" stroke="#000000" stroke-miterlimit="10" x1="61.3" y1="48.6" x2="35.3" y2="48.6"/>
	<line fill="none" stroke="#000000" stroke-miterlimit="10" x1="61.3" y1="60" x2="45.4" y2="60"/>
	<line fill="none" stroke="#000000" stroke-miterlimit="10" x1="61.3" y1="60" x2="73.2" y2="60"/>
	<line fill="none" stroke="#000000" stroke-miterlimit="10" x1="61.3" y1="88.9" x2="73.2" y2="88.9"/>
	<line fill="none" stroke="#000000" stroke-miterlimit="10" x1="61.3" y1="88.9" x2="45.4" y2="88.9"/>
	<line fill="none" stroke="#000000" stroke-miterlimit="10" x1="61.3" y1="96.4" x2="73.3" y2="96.4"/>
	<line fill="none" stroke="#000000" stroke-miterlimit="10" x1="61.3" y1="96.4" x2="45.4" y2="96.4"/>
	<line fill="none" stroke="#000000" stroke-miterlimit="10" x1="578" y1="180.5" x2="562.9" y2="180.5"/>
	<line fill="none" stroke="#000000" stroke-miterlimit="10" x1="562.9" y1="180.5" x2="562.9" y2="149.3"/>
	<line id="POSA" fill="none" stroke="#000000" stroke-miterlimit="10" x1="562.9" y1="149.3" x2="607.5" y2="149.3"/>
	<line fill="none" stroke="#000000" stroke-miterlimit="10" x1="562.9" y1="149.3" x2="562.9" y2="96.1"/>
	<line fill="none" stroke="#000000" stroke-miterlimit="10" x1="562.9" y1="96.1" x2="556.7" y2="96.1"/>
	<line fill="none" stroke="#000000" stroke-miterlimit="10" x1="562.9" y1="96.1" x2="572.4" y2="96.1"/>
	<line fill="none" stroke="#000000" stroke-miterlimit="10" x1="556.7" y1="96.1" x2="556.7" y2="77"/>
	<line id="PSacRoom.POSA" fill="none" stroke="#000000" stroke-miterlimit="10" x1="556.7" y1="96.1" x2="540.4" y2="96.1"/>
	<line fill="none" stroke="#000000" stroke-miterlimit="10" x1="540.4" y1="96.1" x2="540.4" y2="44.1"/>
	<line fill="none" stroke="#000000" stroke-miterlimit="10" x1="540.4" y1="44.1" x2="526.2" y2="44.1"/>
	<line fill="none" stroke="#000000" stroke-miterlimit="10" x1="526.2" y1="44.1" x2="526.2" y2="54.3"/>
	<line fill="none" stroke="#000000" stroke-miterlimit="10" x1="526.2" y1="44.1" x2="526.2" y2="34.4"/>
	<line fill="none" stroke="#000000" stroke-miterlimit="10" x1="540.4" y1="96.1" x2="540.4" y2="129.3"/>
	
		<line id="P301B.PMaleCRB3.PFemaleCR3A" fill="none" stroke="#000000" stroke-miterlimit="10" x1="540.4" y1="96.1" x2="499.5" y2="96.1"/>
	<line id="P302B.P303B" fill="none" stroke="#000000" stroke-miterlimit="10" x1="479.1" y1="96.1" x2="437.4" y2="96.1"/>
	<line fill="none" stroke="#000000" stroke-miterlimit="10" x1="437.4" y1="96.1" x2="421.3" y2="96.1"/>
	<line id="P304B.P305B" fill="none" stroke="#000000" stroke-miterlimit="10" x1="421.3" y1="96.1" x2="380.2" y2="96.1"/>
	<line fill="none" stroke="#000000" stroke-miterlimit="10" x1="380.2" y1="96.1" x2="359.8" y2="96.1"/>
	<line id="P306B.P307B" fill="none" stroke="#000000" stroke-miterlimit="10" x1="359.8" y1="96.1" x2="318.2" y2="96.1"/>
	<line fill="none" stroke="#000000" stroke-miterlimit="10" x1="318.2" y1="96.1" x2="302.9" y2="96.1"/>
	<line fill="none" stroke="#000000" stroke-miterlimit="10" x1="479.1" y1="96.1" x2="479.1" y2="77.1"/>
	<line fill="none" stroke="#000000" stroke-miterlimit="10" x1="479.1" y1="96.1" x2="479.1" y2="129.3"/>
	<line fill="none" stroke="#000000" stroke-miterlimit="10" x1="437.4" y1="96.1" x2="437.4" y2="77.1"/>
	<line fill="none" stroke="#000000" stroke-miterlimit="10" x1="437.4" y1="96.1" x2="437.4" y2="129.3"/>
	<line fill="none" stroke="#000000" stroke-miterlimit="10" x1="421.3" y1="96.1" x2="421.3" y2="77.1"/>
	<line fill="none" stroke="#000000" stroke-miterlimit="10" x1="421.3" y1="96.1" x2="421.3" y2="129.3"/>
	<line fill="none" stroke="#000000" stroke-miterlimit="10" x1="380.2" y1="96.1" x2="380.2" y2="77.1"/>
	<line fill="none" stroke="#000000" stroke-miterlimit="10" x1="380.2" y1="96.1" x2="380.2" y2="129.3"/>
	<line fill="none" stroke="#000000" stroke-miterlimit="10" x1="359.8" y1="96.1" x2="359.8" y2="76.9"/>
	<line fill="none" stroke="#000000" stroke-miterlimit="10" x1="359.8" y1="96.1" x2="359.8" y2="129.3"/>
	<line fill="none" stroke="#000000" stroke-miterlimit="10" x1="318.2" y1="96.1" x2="318.2" y2="76.9"/>
	<line fill="none" stroke="#000000" stroke-miterlimit="10" x1="318.2" y1="96.1" x2="318.2" y2="129.3"/>
	<line fill="none" stroke="#000000" stroke-miterlimit="10" x1="302.9" y1="96.1" x2="302.9" y2="76.9"/>
	<line fill="none" stroke="#000000" stroke-miterlimit="10" x1="302.9" y1="96.1" x2="302.9" y2="129.3"/>
	<line id="P308B.P309B" fill="none" stroke="#000000" stroke-miterlimit="10" x1="302.9" y1="96.1" x2="259.1" y2="96.1"/>
	<line fill="none" stroke="#000000" stroke-miterlimit="10" x1="259.1" y1="96.1" x2="259.1" y2="129.3"/>
	<line fill="none" stroke="#000000" stroke-miterlimit="10" x1="259.1" y1="96.1" x2="259.1" y2="76.9"/>
	<line id="P310B.P311B" fill="none" stroke="#000000" stroke-miterlimit="10" x1="242.4" y1="96.1" x2="201.8" y2="96.1"/>
	<line fill="none" stroke="#000000" stroke-miterlimit="10" x1="201.8" y1="96.1" x2="201.8" y2="76.9"/>
	<line fill="none" stroke="#000000" stroke-miterlimit="10" x1="201.8" y1="96.1" x2="201.8" y2="129.3"/>
	<line id="PStockRoom" fill="none" stroke="#000000" stroke-miterlimit="10" x1="201.8" y1="96.1" x2="181.7" y2="96.1"/>
	<line fill="none" stroke="#000000" stroke-miterlimit="10" x1="181.7" y1="96.1" x2="181.7" y2="129.3"/>
	<line fill="none" stroke="#000000" stroke-miterlimit="10" x1="181.7" y1="96.1" x2="166.9" y2="96.1"/>
	<line fill="none" stroke="#000000" stroke-miterlimit="10" x1="166.9" y1="96.1" x2="166.9" y2="139.3"/>
	<line fill="none" stroke="#000000" stroke-miterlimit="10" x1="166.9" y1="96.1" x2="166.9" y2="32.3"/>
	<line fill="none" stroke="#000000" stroke-miterlimit="10" x1="242.4" y1="96.1" x2="242.4" y2="76.9"/>
	<line fill="none" stroke="#000000" stroke-miterlimit="10" x1="242.4" y1="96.1" x2="242.4" y2="129.3"/>
	<line fill="none" stroke="#000000" stroke-miterlimit="10" x1="242.4" y1="96.1" x2="259.1" y2="96.1"/>
	<line fill="none" stroke="#000000" stroke-miterlimit="10" x1="109.3" y1="37.1" x2="109.3" y2="15.4"/>
	<line fill="none" stroke="#000000" stroke-miterlimit="10" x1="109.3" y1="37.1" x2="122.3" y2="37.1"/>
	<line fill="none" stroke="#000000" stroke-miterlimit="10" x1="499.5" y1="96.1" x2="499.5" y2="129.3"/>
	<line fill="none" stroke="#000000" stroke-miterlimit="10" x1="479.1" y1="96.1" x2="499.5" y2="96.1"/>
	<line fill="none" stroke="#000000" stroke-miterlimit="10" x1="61.3" y1="15.4" x2="109.3" y2="15.4"/>
	<line fill="none" stroke="#000000" stroke-miterlimit="10" x1="109.3" y1="15.4" x2="166.9" y2="15.4"/>
	<line fill="none" stroke="#000000" stroke-miterlimit="10" x1="166.9" y1="32.3" x2="155.7" y2="32.3"/>
	<line fill="none" stroke="#000000" stroke-miterlimit="10" x1="166.9" y1="15.4" x2="166.9" y2="32.3"/>
	<line fill="none" stroke="#000000" stroke-miterlimit="10" x1="607.5" y1="149.3" x2="607.5" y2="176.4"/>
	<line fill="none" stroke="#000000" stroke-miterlimit="10" x1="607.5" y1="176.4" x2="603" y2="176.4"/>
	<line fill="none" stroke="#000000" stroke-miterlimit="10" x1="42.6" y1="136.7" x2="61.3" y2="136.7"/>
	<line fill="none" stroke="#000000" stroke-miterlimit="10" x1="96.3" y1="37.1" x2="109.3" y2="37.1"/>
	<line fill="none" stroke="#000000" stroke-miterlimit="10" x1="61.3" y1="20.5" x2="61.3" y2="15.4"/>
</g>
<g id="Doors">
	<line id="Faculty_1_" fill="none" stroke="#000000" stroke-miterlimit="10" x1="68.1" y1="188.2" x2="61.3" y2="182.2"/>
	<line id="rm.301a" fill="none" stroke="#000000" stroke-miterlimit="10" x1="76.1" y1="176.4" x2="73.2" y2="174.2"/>
	<line id="rm.301a_1_" fill="none" stroke="#000000" stroke-miterlimit="10" x1="75.6" y1="138.1" x2="73.2" y2="136.7"/>
	<line id="rm.302a_1_" fill="none" stroke="#000000" stroke-miterlimit="10" x1="76.8" y1="128.9" x2="73.3" y2="125.8"/>
	<line id="rm.302a" fill="none" stroke="#000000" stroke-miterlimit="10" x1="76.9" y1="99.8" x2="73.3" y2="96.4"/>
	<line id="rm.303a" fill="none" stroke="#000000" stroke-miterlimit="10" x1="77.4" y1="92.1" x2="73.2" y2="88.9"/>
	<line id="rm.303a_1_" fill="none" stroke="#000000" stroke-miterlimit="10" x1="77.7" y1="62.5" x2="73.2" y2="60"/>
	<line id="PhysicsLab_1_" fill="none" stroke="#000000" stroke-miterlimit="10" x1="41" y1="124.5" x2="45.4" y2="125.8"/>
	<line id="PhysicsLab_2_" fill="none" stroke="#000000" stroke-miterlimit="10" x1="42.5" y1="94.8" x2="45.4" y2="96.4"/>
	<line id="BiochemLab_1_" fill="none" stroke="#000000" stroke-miterlimit="10" x1="41.8" y1="86.4" x2="45.4" y2="88.9"/>
	<line id="BiochemLab" fill="none" stroke="#000000" stroke-miterlimit="10" x1="42.6" y1="57.4" x2="45.4" y2="60"/>
	<line id="UtilityRoom3_1_" fill="none" stroke="#000000" stroke-miterlimit="10" x1="31.1" y1="46.3" x2="35.3" y2="48.6"/>
	<line id="MaleCR_1_" fill="none" stroke="#000000" stroke-miterlimit="10" x1="30" y1="34.5" x2="35.2" y2="37.1"/>
	<line id="FemaleCR_1_" fill="none" stroke="#000000" stroke-miterlimit="10" x1="30.9" y1="10.8" x2="35.3" y2="15.4"/>
	<line id="StockRoom" fill="none" stroke="#000000" stroke-miterlimit="10" x1="161.6" y1="145.2" x2="166.9" y2="139.3"/>
	<line fill="none" stroke="#000000" stroke-miterlimit="10" x1="177.7" y1="133.1" x2="181.7" y2="129.3"/>
	<line id="rm.311b_2_" fill="none" stroke="#000000" stroke-miterlimit="10" x1="196.8" y1="134.4" x2="201.8" y2="129.3"/>
	<line id="rm.311b_1_" fill="none" stroke="#000000" stroke-miterlimit="10" x1="238.1" y1="134.6" x2="242.4" y2="129.3"/>
	<line id="rm.309b_1_" fill="none" stroke="#000000" stroke-miterlimit="10" x1="254.5" y1="134.6" x2="259.1" y2="129.3"/>
	<line id="rm.309b_2_" fill="none" stroke="#000000" stroke-miterlimit="10" x1="299.1" y1="134.9" x2="302.9" y2="129.3"/>
	<line id="rm.307b_1_" fill="none" stroke="#000000" stroke-miterlimit="10" x1="313" y1="134.9" x2="318.2" y2="129.3"/>
	<line id="rm.307b_2_" fill="none" stroke="#000000" stroke-miterlimit="10" x1="358" y1="133.6" x2="359.8" y2="129.3"/>
	<line id="rm.305b_3_" fill="none" stroke="#000000" stroke-miterlimit="10" x1="372.4" y1="134" x2="380.2" y2="129.3"/>
	<line id="rm.305b_4_" fill="none" stroke="#000000" stroke-miterlimit="10" x1="417.6" y1="134" x2="421.3" y2="129.3"/>
	<line id="rm.303b_1_" fill="none" stroke="#000000" stroke-miterlimit="10" x1="432" y1="134" x2="437.4" y2="129.3"/>
	<line id="rm.303b_2_" fill="none" stroke="#000000" stroke-miterlimit="10" x1="474.9" y1="134" x2="479.1" y2="129.3"/>
	<line id="rm.301b_1_" fill="none" stroke="#000000" stroke-miterlimit="10" x1="494.3" y1="134" x2="499.5" y2="129.3"/>
	<line id="rm.301b_2_" fill="none" stroke="#000000" stroke-miterlimit="10" x1="536.9" y1="134" x2="540.4" y2="129.3"/>
	<line id="OSARoom_1_" fill="none" stroke="#000000" stroke-miterlimit="10" x1="577.7" y1="100.4" x2="572.4" y2="96.1"/>
	<line id="SACRoom_1_" fill="none" stroke="#000000" stroke-miterlimit="10" x1="560.3" y1="72.9" x2="556.7" y2="77"/>
	<line id="MaleCR" fill="none" stroke="#000000" stroke-miterlimit="10" x1="524.4" y1="58.5" x2="526.2" y2="54.3"/>
	<line id="FemaleCR_3_" fill="none" stroke="#000000" stroke-miterlimit="10" x1="529.8" y1="30.5" x2="526.2" y2="34.4"/>
	<line id="rm.302b_1_" fill="none" stroke="#000000" stroke-miterlimit="10" x1="486.3" y1="71.5" x2="479.1" y2="77.1"/>
	<line id="rm.302b_2_" fill="none" stroke="#000000" stroke-miterlimit="10" x1="439.6" y1="71.5" x2="437.4" y2="77.1"/>
	<line id="rm.304b" fill="none" stroke="#000000" stroke-miterlimit="10" x1="426.5" y1="71.5" x2="421.3" y2="77.1"/>
	<line id="rm.304b_2_" fill="none" stroke="#000000" stroke-miterlimit="10" x1="382.4" y1="71.5" x2="380.2" y2="77.1"/>
	<line id="rm.306b" fill="none" stroke="#000000" stroke-miterlimit="10" x1="362.4" y1="71.5" x2="359.8" y2="76.9"/>
	<line id="rm.306b_2_" fill="none" stroke="#000000" stroke-miterlimit="10" x1="320.3" y1="71.5" x2="318.2" y2="76.9"/>
	<line id="rm.308b" fill="none" stroke="#000000" stroke-miterlimit="10" x1="306.9" y1="71.5" x2="302.9" y2="76.9"/>
	<line id="rm.308b_2_" fill="none" stroke="#000000" stroke-miterlimit="10" x1="260.7" y1="71.5" x2="259.1" y2="76.9"/>
	<line id="rm.310b" fill="none" stroke="#000000" stroke-miterlimit="10" x1="247.3" y1="71.5" x2="242.4" y2="76.9"/>
	<line id="rm.310b_2_" fill="none" stroke="#000000" stroke-miterlimit="10" x1="204.1" y1="71.5" x2="201.8" y2="76.9"/>
</g>
<g id="Portals">
	<line id="Stair.5.floor2" fill="none" stroke="#000000" stroke-miterlimit="10" x1="41.1" y1="138" x2="42.6" y2="136.7"/>
	<line fill="none" stroke="#000000" stroke-miterlimit="10" x1="603" y1="176.4" x2="601" y2="178.4"/>
	<line id="Stair.8.floor2" fill="none" stroke="#000000" stroke-miterlimit="10" x1="580.2" y1="178.9" x2="578" y2="180.5"/>
	<line id="Stair.7.floor2" fill="none" stroke="#000000" stroke-miterlimit="10" x1="124.5" y1="35.4" x2="122.3" y2="37.1"/>
	<line fill="none" stroke="#000000" stroke-miterlimit="10" x1="153.7" y1="34.1" x2="155.7" y2="32.3"/>
	<line id="Stair.6.floor2" fill="none" stroke="#000000" stroke-miterlimit="10" x1="96.3" y1="37.1" x2="94.9" y2="35.7"/>
</g>
<g id="RoomNames">
	<text transform="matrix(1 0 0 1 28.4092 216.459)" font-family="'ArialMT'" font-size="6.6119px">FACULTY</text>
	<text transform="matrix(1 0 0 1 166.8848 167.5957)" font-family="'ArialMT'" font-size="6.6119px">STOCK</text>
	<text transform="matrix(1 0 0 1 166.8848 175.5303)" font-family="'ArialMT'" font-size="6.6119px">ROOM</text>
	<text transform="matrix(1 0 0 1 214.3975 165.6162)" font-family="'ArialMT'" font-size="6.6119px">311B</text>
	<text transform="matrix(1 0 0 1 214.3975 40.9619)" font-family="'ArialMT'" font-size="6.6119px">310B</text>
	<text transform="matrix(1 0 0 1 273.1084 40.9619)" font-family="'ArialMT'" font-size="6.6119px">308B</text>
	<text transform="matrix(1 0 0 1 332.5059 40.9619)" font-family="'ArialMT'" font-size="6.6119px">306B</text>
	<text transform="matrix(1 0 0 1 392.9375 40.2026)" font-family="'ArialMT'" font-size="6.6119px">304B</text>
	<text transform="matrix(1 0 0 1 451.8896 40.2026)" font-family="'ArialMT'" font-size="6.6119px">302B</text>
	<text transform="matrix(1 0 0 1 494.1377 65.8955)" font-family="'ArialMT'" font-size="6.6119px">FEMALE CR</text>
	<text transform="matrix(1 0 0 1 580.2598 110.3926)" font-family="'ArialMT'" font-size="6.6119px">OSA</text>
	<text transform="matrix(1 0 0 1 580.2598 118.3267)" font-family="'ArialMT'" font-size="6.6119px">OFFICE</text>
	<text transform="matrix(1 0 0 1 554.7451 65.8955)" font-family="'ArialMT'" font-size="6.6119px">SAC ROOM</text>
	<text transform="matrix(1 0 0 1 495.5264 23.4492)" font-family="'ArialMT'" font-size="6.6119px">MALE CR</text>
	<text transform="matrix(1 0 0 1 273.9111 165.6162)" font-family="'ArialMT'" font-size="6.6119px">309B</text>
	<text transform="matrix(1 0 0 1 332.5059 164.5586)" font-family="'ArialMT'" font-size="6.6119px">307B</text>
	<text transform="matrix(1 0 0 1 392.9375 165.6162)" font-family="'ArialMT'" font-size="6.6119px">305B</text>
	<text transform="matrix(1 0 0 1 451.1289 165.6162)" font-family="'ArialMT'" font-size="6.6119px">303B</text>
	<text transform="matrix(1 0 0 1 510.9063 165.6162)" font-family="'ArialMT'" font-size="6.6119px">301B</text>
	<text transform="matrix(0 -1 1 0 93.7217 162.1768)" font-family="'ArialMT'" font-size="6.6119px">301A</text>
	<text transform="matrix(0 -1 1 0 20.2681 122.3633)" font-family="'ArialMT'" font-size="6.6119px">PHYSICS</text>
	<text transform="matrix(0 -1 1 0 28.2021 122.3633)" font-family="'ArialMT'" font-size="6.6119px">LAB</text>
	<text transform="matrix(0 -1 1 0 22.6787 87.6738)" font-family="'ArialMT'" font-size="6.6119px">BIOCHEM</text>
	<text transform="matrix(0 -1 1 0 30.6133 87.6738)" font-family="'ArialMT'" font-size="6.6119px">LAB</text>
	<text transform="matrix(1 0 0 1 12.0332 48.6396)" font-family="'ArialMT'" font-size="6.6317px">UTILITY</text>
	<text transform="matrix(1 0 0 1 12.0332 53.1094)" font-family="'ArialMT'" font-size="6.6317px">ROOM3</text>
	<text transform="matrix(1 0 0 1 8.5957 33.8101)" font-family="'ArialMT'" font-size="6.7282px">MALE CR</text>
	<text transform="matrix(1 0 0 1 7.2734 21.644)" font-family="'ArialMT'" font-size="6.7282px">FEMALE CR</text>
	<text transform="matrix(0 -1 1 0 93.7217 118.5742)" font-family="'ArialMT'" font-size="6.6119px">302A</text>
	<text transform="matrix(0 -1 1 0 92.9473 81.46)" font-family="'ArialMT'" font-size="6.6119px">303A</text>
</g>
</svg>
